<?xml version="1.0" encoding="utf-8"?>
<!-- Generator: Adobe Illustrator 17.1.0, SVG Export Plug-In . SVG Version: 6.00 Build 0)  -->
<!DOCTYPE svg PUBLIC "-//W3C//DTD SVG 1.1//EN" "http://www.w3.org/Graphics/SVG/1.1/DTD/svg11.dtd">
<svg version="1.1" id="Capa_1" xmlns="http://www.w3.org/2000/svg" xmlns:xlink="http://www.w3.org/1999/xlink" x="0px" y="0px"
	 width="1000px" height="1000px" viewBox="0 0 1000 1000" enable-background="new 0 0 1000 1000" xml:space="preserve">
<path d="M636.934,247c40.617-21.654,72.929-58.561,92.375-99.952c16.841-35.848,25.32-75.332,24.163-114.967
	c-0.327-11.188-9.096-20.539-20.539-20.539c-3.063,0-6.044,0.732-8.744,2.03c-0.966,0.161-1.927,0.409-2.877,0.757
	c-27.546,10.102-55.697,18.297-82.406,30.593c-26.517,12.208-50.176,29.639-72.618,48.138c-31.717,26.144-60.03,57.561-79.92,93.625
	c-13.379-25.162-29.338-48.917-47.982-70.898c-24.374-28.737-54.612-53.239-87.277-71.937
	c-19.439-11.127-44.819-4.695-56.202,14.737c-11.237,19.182-4.666,45.095,14.737,56.202c10.373,5.937,20.369,12.464,29.965,19.572
	c17.319,13.94,32.992,29.746,46.912,47.08c15.846,21.304,29.023,44.424,39.749,68.704c9.191,22.659,16.298,46.079,21.536,69.93
	c18.208,8.296,34.236,18.174,47.966,29.586c10.834-8.975,23.081-16.994,36.663-24.048c-3.213-19.274-7.491-38.352-12.935-57.03
	C559.822,273.252,600.454,266.449,636.934,247z M522.555,227.917c-0.337-0.05-0.676-0.096-1.013-0.148
	c-1.973-0.296-3.937-0.643-5.899-0.998c-1.055-0.191-2.108-0.395-3.16-0.606c0.092-0.225,0.18-0.44,0.254-0.622
	c1.084-2.482,2.217-4.943,3.386-7.386c5.839-12.208,12.912-23.803,20.683-34.87c1.543-2.198,3.141-4.357,4.753-6.505
	c0.459-0.596,1.589-2.073,1.852-2.406c1.018-1.285,2.055-2.552,3.093-3.82c4.507-5.505,9.248-10.816,14.108-16.009
	c9.345-9.984,19.349-19.34,29.727-28.24c4.597-3.943,9.309-7.751,14.073-11.49c0.682-0.526,1.73-1.337,2.021-1.556
	c1.281-0.971,2.572-1.929,3.864-2.886c2.992-2.219,6.022-4.387,9.067-6.534c11.833-8.345,24.135-15.68,37.177-21.986
	c3.048-1.474,6.138-2.862,9.239-4.222c0.184-0.08,0.344-0.151,0.493-0.217c0.196-0.08,0.42-0.172,0.691-0.284
	c1.51-0.623,3.029-1.223,4.549-1.824c6.531-2.583,13.153-4.931,19.79-7.226c6.709-2.321,13.439-4.577,20.16-6.861
	c-0.168,1.802-0.348,3.602-0.556,5.402c-0.021,0.184-0.055,0.45-0.094,0.748c-0.161,1.101-0.328,2.201-0.501,3.299
	c-0.426,2.7-0.924,5.388-1.445,8.071c-1.124,5.784-2.519,11.513-4.081,17.194c-1.433,5.21-3.093,10.354-4.889,15.45
	c-0.894,2.535-1.854,5.047-2.836,7.549c-0.171,0.437-0.354,0.87-0.53,1.305c-0.198,0.439-1.258,2.94-1.577,3.651
	c-4.523,10.092-9.877,19.803-15.86,29.1c-2.433,3.78-5.019,7.458-7.694,11.07c0.064-0.139-3.108,3.952-3.84,4.837
	c-1.937,2.344-3.947,4.625-5.986,6.879c-6.72,7.427-14.065,14.275-21.854,20.566c-0.035-0.022-3.975,2.986-4.896,3.643
	c-2.1,1.497-4.246,2.927-6.406,4.333c-4.688,3.05-9.546,5.829-14.499,8.422c-2.292,1.201-4.624,2.324-6.967,3.422
	c-1.045,0.489-2.102,0.955-3.158,1.421c-0.087,0.035-0.174,0.071-0.276,0.112c-5.253,2.13-10.632,3.937-16.069,5.533
	c-6.807,1.999-13.755,3.489-20.755,4.625c-0.465,0.074-0.931,0.14-1.395,0.21c-1.751,0.212-3.508,0.379-5.264,0.538
	c-4.13,0.374-8.276,0.553-12.42,0.636c-8.092,0.162-16.188-0.319-24.227-1.216C523.049,227.977,522.777,227.944,522.555,227.917z"/>
<path d="M454.337,357.414C411.087,331.951,354.772,322,308.64,322c-0.058,0-0.113,0-0.171,0
	c-153.424,0-227.576,66.891-236.466,245.722C64.598,746.793,212.532,962,435.113,962c0.177,0,0.348,0,0.524,0
	c21.135,0,43.206-17.411,60.074-30.794C513.169,944.589,534.706,962,555.841,962c0.163,0,0.361,0,0.524,0
	c222.603,0,370.572-215.196,363.167-394.278C910.642,388.891,836.453,322,683.028,322c-0.054,0-0.117,0-0.171,0
	c-46.31,0-102.702,10.013-146.078,35.693c-0.005-0.051-0.01-0.102-0.015-0.153c-15.777,9.343-29.833,20.735-41.053,34.438
	c-11.239-13.85-25.428-25.338-41.391-34.736"/>
</svg>
