<?xml version="1.0" encoding="utf-8"?>
<!-- Generator: Adobe Illustrator 17.0.0, SVG Export Plug-In . SVG Version: 6.00 Build 0)  -->
<!DOCTYPE svg PUBLIC "-//W3C//DTD SVG 1.1//EN" "http://www.w3.org/Graphics/SVG/1.1/DTD/svg11.dtd">
<svg version="1.1" id="Capa_1" xmlns="http://www.w3.org/2000/svg" xmlns:xlink="http://www.w3.org/1999/xlink" x="0px" y="0px"
	 width="25.034px" height="20.02px" viewBox="0 0 25.034 20.02" enable-background="new 0 0 25.034 20.02" xml:space="preserve">
<path d="M23.537,9.869c0.303-0.527,0.48-1.137,0.48-1.787c0-1.445-0.861-2.688-2.096-3.25c-0.285-1.688-1.749-2.976-3.518-2.976
	c-0.186,0-0.369,0.019-0.549,0.047c-0.564-0.374-1.241-0.594-1.97-0.594c-1.012,0-1.924,0.424-2.573,1.1
	c-0.317-0.092-0.651-0.142-0.998-0.142c-1.972,0-3.571,1.598-3.571,3.572c0,0.107,0.006,0.212,0.017,0.32
	C8.745,6.183,8.729,6.209,8.714,6.235c-1.151,0.594-1.939,1.79-1.939,3.174c0,1.038,0.444,1.969,1.151,2.621
	c0.019,0.075,0.041,0.149,0.062,0.224c-0.191,0.438-0.299,0.92-0.299,1.429c0,1.972,1.599,3.571,3.571,3.571
	c0.002,0,0.002,0,0.002,0c0.591,1.157,1.793,1.952,3.181,1.952c1.025,0,1.948-0.436,2.601-1.129c0.418,0.173,0.878,0.27,1.36,0.27
	c1.937,0,3.511-1.544,3.567-3.467c1.208-0.571,2.048-1.799,2.048-3.227C24.018,11.003,23.841,10.394,23.537,9.869z M11.545,11.783
	l-0.179-0.254l1.277-0.898l0.18,0.255L11.545,11.783z M12.854,8.557l-1.553-0.164l0.032-0.311l1.554,0.164L12.854,8.557z
	 M14.208,15.189h-0.312v-1.562h0.312V15.189z M14.748,5.587h0.312v1.562h-0.312V5.587z M15.215,11.039h-0.311l-0.001-1.562h0.312
	V11.039z M17.238,6.368h0.311l0.002,1.562h-0.312V6.368z M17.707,13.141h-0.313V11.58h0.313V13.141z M19.025,11.476l-0.117-0.291
	l1.446-0.583l0.119,0.288L19.025,11.476z M19.195,8.896l-0.179-0.255l1.278-0.898l0.18,0.255L19.195,8.896z M10.498,18.209
	c-0.532,0.317-1.149,0.501-1.815,0.501c-1.388,0-2.589-0.794-3.181-1.951c-0.001,0-0.001,0-0.001,0c-1.973,0-3.571-1.6-3.571-3.572
	c0-0.508,0.107-0.99,0.299-1.427c-0.022-0.075-0.043-0.15-0.062-0.226c-0.706-0.652-1.151-1.584-1.151-2.621
	c0-1.383,0.788-2.581,1.939-3.173C2.971,5.713,2.986,5.686,3,5.662C2.991,5.556,2.984,5.45,2.984,5.341
	c0-1.973,1.6-3.571,3.571-3.571c0.346,0,0.681,0.052,0.997,0.144c0.65-0.677,1.563-1.101,2.575-1.101
	c0.727,0,1.403,0.219,1.968,0.593c0.18-0.028,0.362-0.047,0.549-0.047c0.269,0,0.532,0.034,0.785,0.091
	c-0.123,0.085-0.244,0.174-0.359,0.269c-0.251-0.045-0.505-0.067-0.757-0.067c-2.391,0-4.342,1.923-4.389,4.303
	C7.265,6.391,6.748,6.986,6.408,7.674L5.575,7.585L5.543,7.897l0.73,0.077C6.067,8.486,5.954,9.041,5.954,9.615
	c0,0.367,0.049,0.725,0.139,1.075l-0.487,0.343l0.179,0.255l0.401-0.283c0.191,0.564,0.491,1.091,0.893,1.539
	c-0.139,0.435-0.21,0.885-0.21,1.345C6.869,16.049,8.438,17.845,10.498,18.209z"/>
</svg>
