<?xml version="1.0" encoding="utf-8"?>
<!-- Generator: Adobe Illustrator 17.1.0, SVG Export Plug-In . SVG Version: 6.00 Build 0)  -->
<!DOCTYPE svg PUBLIC "-//W3C//DTD SVG 1.1//EN" "http://www.w3.org/Graphics/SVG/1.1/DTD/svg11.dtd">
<svg version="1.1" id="Capa_1" xmlns="http://www.w3.org/2000/svg" xmlns:xlink="http://www.w3.org/1999/xlink" x="0px" y="0px"
	 width="300px" height="300px" viewBox="0 0 300 300" enable-background="new 0 0 300 300" xml:space="preserve">
<g>
	<path d="M193.3,43.3c-2.1,2.3-2.2,5-1.1,7.1c-3.6,0.1-7.3,0.6-11.1,1.5c-21.3,5.4-47.9,32.2-53.4,53.8c-1.6,0.2-3.3,0.3-4.9,0.6
		c-23.2,4.6-37.5,26-42.5,47.5c-13.7,5.6-31.4,19.7-31.7,35.3c0,1.5,0.9,3.4,2.3,4c0.5,0.2,0.9,0.4,1.4,0.6
		c-20.1,8.2-36.2,29.5-35.5,56.9c1.6,68.8,84.8,31.9,115.5,10.1c39.2-27.8,70.7-70.3,100.5-107.4c21.1-26.3,42-51.6,44.8-86.6
		C282.8,2.8,229.6,4.8,193.3,43.3z M260,87.2c-12,42.8-55.5,81.5-84.6,113.9c-26.6,29.7-54.4,56.7-91.8,71.8
		C53.6,285,25,270.6,31.3,233.4c7-41.6,57-34.1,76.9-10.6c2.7,3.2,7.4-0.9,5.6-4.3c-14-25.9-36.9-32.5-56.9-26.4
		c-0.4-10.1,17.5-21.5,24.7-25.3c22.2-11.8,40.8-1.6,62,5.3c5,1.6,8.1-4.9,4.9-8.4c-13.5-14.7-37-17.4-56.4-13.3
		c6.7-15.3,16.9-27.3,34.3-31.9c20.9-5.4,35.4,8.5,53.4,15.1c3.7,1.4,7.1-3.4,5.1-6.6c-9.5-14.8-28.7-21.5-46.6-21.9
		c12.1-10.7,20.9-25.6,34.7-35.1c26.4-18,46.6,3.3,64.6,21.6c4.6,4.7,12.6-1.4,9.1-7c-10.2-16.4-25.2-29.7-43-33.3
		c13.2-13.6,47.8-44.9,60.1-10.2C268.6,55.6,263.9,73.2,260,87.2z"/>
</g>
</svg>
