<?xml version="1.0" encoding="utf-8"?>
<!-- Generator: Adobe Illustrator 15.0.0, SVG Export Plug-In . SVG Version: 6.00 Build 0)  -->
<!DOCTYPE svg PUBLIC "-//W3C//DTD SVG 1.1//EN" "http://www.w3.org/Graphics/SVG/1.1/DTD/svg11.dtd">
<svg version="1.1" id="Layer_1" xmlns="http://www.w3.org/2000/svg" xmlns:xlink="http://www.w3.org/1999/xlink" x="0px" y="0px"
	 width="64px" height="64px" viewBox="0 0 64 64" enable-background="new 0 0 64 64" xml:space="preserve">
<g>
	<path fill="#231F20" d="M58.696,5.306c-0.894-0.894-2.184-1.347-3.834-1.347c-4.413,0-11.115,3.192-18.871,8.986
		c-0.276,0.207-0.473,0.231-0.832,0.272c-0.869,0.094-1.95,0.214-4.138,2.401c-1.807,1.808-2.323,2.653-2.737,3.333
		c-0.271,0.441-0.482,0.79-1.11,1.37c-1.183,1.096-2.357,2.226-3.491,3.359c-0.563,0.563-1.119,1.129-1.706,1.739
		c-0.387,0.389-0.685,0.491-1.135,0.647c-0.599,0.209-1.347,0.469-2.326,1.446c-0.448,0.449-0.904,1.004-1.396,1.701
		c-1.54,2.168-1.961,3.184-2.271,3.926c-0.198,0.474-0.341,0.815-0.765,1.36C5.188,45.937,1.826,55.206,5.31,58.69
		c0.896,0.897,2.189,1.352,3.838,1.352H9.15c6.846,0,19.374-7.926,31.172-19.726c7.203-7.204,13.067-14.745,16.514-21.233
		C60.333,12.497,60.993,7.604,58.696,5.306z M22.842,44.091c-1.93-0.643-4.307-1.824-6.696-3.327
		c-1.057-0.664-2.101-1.394-3.107-2.172c0.629-0.883,1.299-1.786,1.994-2.693c1.03,0.53,2.063,1.12,3.072,1.754
		c2.383,1.5,4.478,3.132,5.896,4.598c1.416,1.464,1.551,2.139,1.566,2.27C25.438,44.571,24.869,44.767,22.842,44.091z
		 M38.177,31.646c-0.026,0.038-0.237,0.18-0.838,0.18c-0.53,0-1.504-0.114-3.124-0.651c-2.595-0.865-5.786-2.451-8.986-4.466
		c-0.461-0.288-0.914-0.593-1.375-0.904c1.302-1.333,2.636-2.64,3.968-3.886c0.102,0.063,0.203,0.125,0.305,0.189
		c3.198,2.012,6.01,4.205,7.912,6.17C37.966,30.27,38.313,31.425,38.177,31.646z M47.479,17.375c0,0-0.115,0.074-0.473,0.074
		c-0.38,0-1.086-0.084-2.287-0.483c-1.928-0.643-4.305-1.823-6.694-3.328c-0.048-0.03-0.095-0.06-0.141-0.09
		c1.111-0.808,2.206-1.568,3.263-2.258C45.949,14.532,47.612,17.074,47.479,17.375z"/>
</g>
</svg>
