<?xml version="1.0" encoding="utf-8"?>
<!-- Generator: Adobe Illustrator 16.0.0, SVG Export Plug-In . SVG Version: 6.00 Build 0)  -->
<!DOCTYPE svg PUBLIC "-//W3C//DTD SVG 1.1//EN" "http://www.w3.org/Graphics/SVG/1.1/DTD/svg11.dtd">
<svg version="1.1" id="Layer_1" xmlns="http://www.w3.org/2000/svg" xmlns:xlink="http://www.w3.org/1999/xlink" x="0px" y="0px"
	 width="50px" height="50px" viewBox="0 0 50 50" enable-background="new 0 0 50 50" xml:space="preserve">
<g>
	<path d="M34.21,19.935c0.081,0.714-0.046,1.457-0.433,2.126c-0.022,0.039-0.033,0.081-0.053,0.12l4.236,0.735
		c0.266-0.737,0.412-1.496,0.445-2.253L34.21,19.935z"/>
	<path d="M34.542,24.915c0.979,0.565,2.22,0.244,2.813-0.709l-3.804-0.659C33.672,24.102,34.01,24.608,34.542,24.915z"/>
	<path d="M38.337,19.255c-0.122-0.859-0.389-1.693-0.79-2.467l-11.993-2.079c-0.548,0.507-1.03,1.104-1.423,1.783l-0.158,0.273
		l4.66,0.808c1.086-0.839,2.61-0.994,3.871-0.267c0.497,0.288,0.885,0.688,1.175,1.142L38.337,19.255z"/>
	<path d="M34.592,13.688c-2.38-1.374-5.194-1.313-7.456-0.1l9.319,1.615C35.932,14.619,35.31,14.103,34.592,13.688z"/>
	<path d="M14.714,36.979c0.999,0.577,2.275,0.235,2.854-0.765l0.283-0.492L13.683,35C13.62,35.78,13.992,36.563,14.714,36.979z"/>
	<polygon points="14.198,33.695 18.584,34.455 19.806,32.337 15.422,31.577 	"/>
	<polygon points="16.153,30.309 20.539,31.069 21.041,30.2 21.041,28.826 17.378,28.19 	"/>
	<polygon points="21.042,27.432 21.042,25.965 19.089,27.093 	"/>
	<path d="M24.796,20.633c0.528-0.044,1.149-0.068,1.79-0.04l1.04-1.8l-4.384-0.76l-0.309,0.535c0.437,0.696,0.788,1.395,1.029,1.92
		L24.796,20.633z"/>
	<polygon points="20.877,25.115 17.582,23.212 11.595,26.672 14.132,27.111 13.242,29.527 	"/>
	<polygon points="21.857,34.5 23.504,32.522 25.153,34.5 25.156,27.586 21.86,25.683 	"/>
	<path d="M28.615,21.81c-1.773-0.789-5.06-0.2-5.06-0.2s-1.188-3.076-2.704-4.283c-1.587-1.261-2.549-0.667-2.79-0.249l-1.963,3.397
		c-0.24,0.418-0.065,1.322,1.613,2.292c1.679,0.968,3.882,2.241,3.882,2.241s2.199,1.27,3.882,2.241
		c1.681,0.971,2.55,0.668,2.791,0.251l1.961-3.397C30.47,23.686,30.414,22.612,28.615,21.81z M19.675,19.37
		c-1.215-0.702-1.438-1.309-1.261-1.617c0.178-0.308,0.908-0.571,2.029,0.283c0.713,0.54,1.52,1.792,1.989,2.926L19.675,19.37z
		 M23.355,23.759c-0.248,0.431-0.798,0.582-1.231,0.332c-0.434-0.25-0.576-0.801-0.327-1.231c0.247-0.432,0.795-0.582,1.229-0.332
		C23.459,22.778,23.605,23.329,23.355,23.759z M29.468,24.135c-0.18,0.309-0.817,0.418-2.03-0.283l-2.76-1.594
		c1.215-0.16,2.697-0.075,3.529,0.26C29.54,23.053,29.645,23.827,29.468,24.135z"/>
</g>
</svg>
