<?xml version="1.0" encoding="iso-8859-1"?>
<!-- Generator: Adobe Illustrator 16.0.4, SVG Export Plug-In . SVG Version: 6.00 Build 0)  -->
<!DOCTYPE svg PUBLIC "-//W3C//DTD SVG 1.1//EN" "http://www.w3.org/Graphics/SVG/1.1/DTD/svg11.dtd">
<svg version="1.1"
	 id="Capa_1" text-rendering="geometricPrecision" image-rendering="optimizeQuality" shape-rendering="geometricPrecision"
	 xmlns="http://www.w3.org/2000/svg" xmlns:xlink="http://www.w3.org/1999/xlink" x="0px" y="0px" width="300px" height="300px"
	 viewBox="0 0 300 300" style="enable-background:new 0 0 300 300;" xml:space="preserve">
<path d="M283.998,86.304l-68.535,30.388c-13.386-18.599-37.643-31.027-65.346-31.027c-27.743,0-52.031,12.468-65.4,31.105
	L16.001,86.304c31.408,47.805,28.855,81.533,4.504,121.61l62.988-26.451c13.082,19.618,38.008,32.871,66.623,32.871
	c28.576,0,53.478-13.222,66.575-32.794l62.803,26.374C255.143,167.837,252.59,134.109,283.998,86.304z M214.381,149.533
	c-5.027-24.95-33.377-44.078-67.61-44.078c-17.993,0-34.365,5.292-46.583,13.93c11.011-13.791,30.334-22.935,52.334-22.935v0
	c34.257,0,62.021,22.163,62.021,49.509C214.543,147.159,214.482,148.358,214.381,149.533z"/>
</svg>
