<?xml version="1.0" encoding="utf-8"?>
<!-- Generator: Adobe Illustrator 16.0.0, SVG Export Plug-In . SVG Version: 6.00 Build 0)  -->
<!DOCTYPE svg PUBLIC "-//W3C//DTD SVG 1.1//EN" "http://www.w3.org/Graphics/SVG/1.1/DTD/svg11.dtd">
<svg version="1.1" id="Artwork" xmlns="http://www.w3.org/2000/svg" xmlns:xlink="http://www.w3.org/1999/xlink" x="0px" y="0px"
	 width="512px" height="512px" viewBox="0 0 512 512" enable-background="new 0 0 512 512" xml:space="preserve">
<path d="M476.908,190.88c-1.308,0-2.637,0.132-3.972,0.393l4.563-2.398c5.612-2.951,9.318-7.849,10.167-13.439
	c0.85-5.59-1.235-11.368-5.719-15.852l-35.593-35.595c-3.964-3.964-9.04-6.147-14.292-6.147c-6.476,0-12.437,3.256-16.355,8.934
	l-31.621,45.82c-2.015,2.919-3.875,6.573-5.464,10.525c-8.442-16.527-25.627-27.877-45.425-27.877H177.492
	c-19.79,0-36.969,11.341-45.414,27.858c-1.588-3.945-3.445-7.591-5.457-10.505l-31.622-45.821
	c-3.918-5.677-9.879-8.934-16.354-8.934c-5.252,0-10.328,2.183-14.293,6.147l-35.591,35.595c-4.484,4.483-6.569,10.261-5.72,15.852
	c0.849,5.59,4.555,10.489,10.167,13.439l4.563,2.398c-1.335-0.261-2.664-0.393-3.972-0.393c-10.24,0-17.673,7.847-17.673,18.658
	v62.291c0,10.754,7.372,18.56,17.53,18.56c1.278,0,2.577-0.126,3.881-0.378l-4.441,2.382c-5.578,2.993-9.253,7.924-10.079,13.529
	c-0.827,5.605,1.267,11.387,5.742,15.863l35.593,35.593c3.883,3.883,8.789,6.021,13.813,6.021c6.576,0,12.479-3.514,16.197-9.639
	l33.276-54.836c0.893-1.471,1.749-3.125,2.563-4.887c7.557,18.715,25.899,31.96,47.289,31.96h155.706
	c21.397,0,39.745-13.255,47.297-31.98c0.817,1.77,1.677,3.431,2.573,4.907l33.277,54.836c3.717,6.125,9.621,9.639,16.197,9.639
	c5.024,0,9.93-2.138,13.813-6.021l35.591-35.593c4.477-4.476,6.57-10.258,5.743-15.863c-0.826-5.605-4.501-10.537-10.08-13.53
	l-4.44-2.383c1.304,0.251,2.603,0.378,3.881,0.378h0.001c4.93,0,9.417-1.891,12.635-5.324c3.156-3.368,4.895-8.069,4.895-13.236
	v-62.291C494.581,198.727,487.148,190.88,476.908,190.88z M372.183,206.228v5.534L270.438,313.999h-90.556l146.754-146.755h6.562
	C354.694,167.243,372.183,184.731,372.183,206.228z M177.492,167.243h24.409l-63.394,63.959v-24.975
	C138.508,184.731,155.996,167.243,177.492,167.243z M125.245,264.585c0,8.216-3.602,21.09-7.864,28.114l-33.276,54.836
	c-1.513,2.492-3.622,3.864-5.939,3.864c-1.846,0-3.688-0.866-5.327-2.506L37.245,313.3c-1.79-1.791-2.627-3.789-2.356-5.626
	c0.271-1.837,1.649-3.509,3.881-4.707l44.183-23.701c4.741-2.544,10.115-5.427,8.747-10.87c-0.558-2.218-2.615-4.808-6.581-4.808
	c-1.188,0-3.174,0.193-8.025,1.702l-40.671,12.646c-0.968,0.301-1.897,0.453-2.765,0.453c-3.463,0-5.53-2.452-5.53-6.56v-62.291
	c0-4.169,2.12-6.658,5.673-6.658c0.853,0,1.765,0.145,2.711,0.43l41.152,12.418c4.802,1.449,6.775,1.635,7.959,1.635
	c4.001,0,6.064-2.606,6.615-4.838c1.35-5.468-4.061-8.312-8.833-10.821l-44.612-23.451c-2.232-1.173-3.613-2.814-3.888-4.619
	c-0.273-1.805,0.558-3.781,2.342-5.564l35.591-35.595c1.723-1.722,3.73-2.633,5.808-2.633c2.509,0,4.81,1.332,6.479,3.75
	l31.622,45.821c4.527,6.561,8.5,19.31,8.5,27.283V264.585z M138.508,275.015v-26.766l80.289-81.005h90.87L164.984,311.928
	C149.607,306.703,138.508,292.135,138.508,275.015z M333.198,313.999h-45.829l84.813-85.225v46.241
	C372.183,296.51,354.694,313.999,333.198,313.999z M482.581,271.829c0,2.139-0.57,3.878-1.65,5.03
	c-1.186,1.265-2.764,1.53-3.879,1.53h-0.001c-0.867,0-1.798-0.152-2.765-0.453l-40.671-12.646c-4.852-1.508-6.838-1.702-8.025-1.702
	c-3.966,0-6.023,2.59-6.581,4.808c-1.368,5.443,4.006,8.326,8.748,10.87l44.181,23.701c2.232,1.197,3.61,2.869,3.882,4.707
	c0.271,1.837-0.566,3.836-2.357,5.626l-35.591,35.593c-1.641,1.64-3.482,2.506-5.328,2.506c-2.317,0-4.427-1.372-5.939-3.864
	L393.326,292.7c-4.262-7.024-7.863-19.898-7.863-28.114v-57.891c0-7.973,3.973-20.722,8.501-27.283l31.621-45.82
	c1.669-2.418,3.97-3.75,6.479-3.75c2.077,0,4.085,0.911,5.807,2.633l35.593,35.595c1.783,1.784,2.614,3.76,2.341,5.564
	c-0.274,1.805-1.655,3.446-3.888,4.619l-44.612,23.451c-4.773,2.509-10.183,5.353-8.833,10.822c0.551,2.232,2.614,4.838,6.616,4.838
	c1.183,0,3.156-0.186,7.958-1.635l41.152-12.418c0.946-0.286,1.858-0.43,2.711-0.43c3.552,0,5.673,2.489,5.673,6.658V271.829z"/>
</svg>
