<?xml version="1.0" encoding="iso-8859-1"?>
<!-- Generator: Adobe Illustrator 16.0.4, SVG Export Plug-In . SVG Version: 6.00 Build 0)  -->
<!DOCTYPE svg PUBLIC "-//W3C//DTD SVG 1.1//EN" "http://www.w3.org/Graphics/SVG/1.1/DTD/svg11.dtd">
<svg version="1.1"
	 id="Capa_1" text-rendering="geometricPrecision" image-rendering="optimizeQuality" shape-rendering="geometricPrecision"
	 xmlns="http://www.w3.org/2000/svg" xmlns:xlink="http://www.w3.org/1999/xlink" x="0px" y="0px" width="300px" height="300px"
	 viewBox="0 0 300 300" style="enable-background:new 0 0 300 300;" xml:space="preserve">
<path d="M129.091,100.87c1.783-0.699,3.565-1.348,5.35-1.945l-32.387,105.833c-6.444-2.613-12.088-6.181-16.629-10.631l25.81-84.338
	C116.72,106.392,122.694,103.38,129.091,100.87L129.091,100.87z"/>
<path d="M76.4,206.979c1.042-10.828-6.389-26.812-14.862-30.801l-47.537,1.711l20.911,17.864l-10.736,14.256l15.447,5.617
	l-2.729,23.223L76.4,206.979L76.4,206.979z"/>
<path d="M236.578,128.251c-9.18-5.833-17.221-21.52-15.158-30.655l30.567-36.444l1.237,27.474l17.844,0.293l-5.062,15.638
	l19.995,12.122L236.578,128.251L236.578,128.251z"/>
<path d="M148.333,95.248c8.841-1.725,17.5-2.238,25.624-1.631l-35.511,116.035c-8.693,0.705-17.047,0.221-24.702-1.374
	L148.333,95.248L148.333,95.248z"/>
<path d="M186.156,95.469c6.886,1.617,13.167,4.153,18.566,7.545l-29.635,96.833c-1.997,0.923-4.04,1.798-6.129,2.618
	c-5.716,2.243-11.459,3.971-17.137,5.195L186.156,95.469L186.156,95.469z"/>
<path d="M214.865,111.583c2.966,3.396,5.342,7.238,7.015,11.494c8.857,22.572-4.75,49.984-31.36,68.063L214.865,111.583
	L214.865,111.583z"/>
<path d="M76.591,181.275c-0.143-0.336-0.287-0.675-0.42-1.018c-7.265-18.515,0.586-40.287,18.327-57.495L76.591,181.275z"/>
</svg>
