<svg width="23.044" xmlns="http://www.w3.org/2000/svg" height="18.355" viewBox="0 0 23.044 18.355" xmlns:xlink="http://www.w3.org/1999/xlink" enable-background="new 0 0 23.044 18.355">
<path d="m16.428,7.05l6.616-1.565c0,0-6.063-.984-4.031-1.263 2.03-.278 .25-4.222 .25-4.222l-4.213,4.986c-.962-.429-2.199-.463-3.467-.099l4.066,1.035 .779,1.128z"/>
<path d="m6.469,11.093l-6.469,1.778c0,0 6.063,.985 4.032,1.263-2.032,.278-.251,4.221-.251,4.221l4.168-4.933c.993,.552 2.343,.631 3.731,.23l-4.178-1.062-1.033-1.497z"/>
<path d="m6.414,11.013l7.128,1.812c.125-.077 .25-.156 .374-.241 .183-.127 .356-.258 .524-.395l-7.992-2.031c-.043,.29-.055,.577-.034,.855z"/>
<path d="m9.722,5.716c-.125,.078-.25,.157-.373,.242-.373,.257-.712,.536-1.019,.834l8.37,2.128c.132-.474 .184-.943 .148-1.391l-7.126-1.813z"/>
<path d="m6.802,8.945l8.686,2.21c.284-.342 .526-.695 .726-1.058l-8.802-2.238c-.246,.355-.45,.719-.61,1.086z"/>
</svg>
