<?xml version="1.0" encoding="utf-8"?>
<!-- Generator: Adobe Illustrator 16.0.0, SVG Export Plug-In . SVG Version: 6.00 Build 0)  -->
<!DOCTYPE svg PUBLIC "-//W3C//DTD SVG 1.1//EN" "http://www.w3.org/Graphics/SVG/1.1/DTD/svg11.dtd">
<svg version="1.1" id="Layer_1" xmlns="http://www.w3.org/2000/svg" xmlns:xlink="http://www.w3.org/1999/xlink" x="0px" y="0px"
	 width="96px" height="96px" viewBox="0 0 96 96" enable-background="new 0 0 96 96" xml:space="preserve">
<path d="M93.049,42.846v-16.91c-3.572-11.312-18.908-12.671-26.066-12.671c-2.262,0-3.706,0.136-3.706,0.136L2.951,37.687v11.849
	c0.262-0.047,0.53-0.075,0.805-0.075c2.524,0,4.57,2.047,4.57,4.57c0,2.524-2.046,4.57-4.57,4.57c-0.275,0-0.543-0.028-0.805-0.074
	v24.209h18.55c0.2-2.648,2.408-4.737,5.108-4.737s4.908,2.089,5.108,4.737h61.332V56.57c-2.964-0.875-5.128-3.614-5.128-6.863
	C87.92,46.46,90.084,43.722,93.049,42.846z M27.055,64.621c-1.231,0-2.229-0.998-2.229-2.229c0-1.232,0.999-2.23,2.229-2.23
	c1.231,0,2.229,0.998,2.229,2.23C29.284,63.623,28.286,64.621,27.055,64.621z M32.592,47.145C31.769,47.684,30.787,48,29.73,48
	c-2.888,0-5.229-2.34-5.229-5.229c0-2.887,2.341-5.229,5.229-5.229c1.977,0,3.697,1.099,4.585,2.717
	c0.956-0.728,2.146-1.166,3.441-1.166c3.14,0,5.686,2.545,5.686,5.685c0,3.141-2.546,5.686-5.686,5.686
	C35.462,50.463,33.49,49.101,32.592,47.145z M42.662,69.971c-1.478,0-2.675-1.197-2.675-2.674c0-1.479,1.197-2.676,2.675-2.676
	c1.477,0,2.675,1.197,2.675,2.676C45.337,68.773,44.139,69.971,42.662,69.971z M66.021,65.736c-4.897,0-8.867-3.972-8.867-8.869
	S61.123,48,66.021,48c4.898,0,8.868,3.97,8.868,8.867S70.918,65.736,66.021,65.736z M82.458,74.208
	c-1.169,0-2.118-0.949-2.118-2.117c0-1.171,0.948-2.12,2.118-2.12c1.17,0,2.118,0.949,2.118,2.12
	C84.576,73.259,83.628,74.208,82.458,74.208z M28.59,30.97l35.455-14.273c0.558-0.036,1.593-0.087,2.938-0.087
	c5.002,0,15.858,0.724,20.836,6.636L28.59,30.97z"/>
</svg>
