<?xml version="1.0" encoding="utf-8"?>
<!-- Generator: Adobe Illustrator 15.0.0, SVG Export Plug-In . SVG Version: 6.00 Build 0)  -->
<!DOCTYPE svg PUBLIC "-//W3C//DTD SVG 1.1//EN" "http://www.w3.org/Graphics/SVG/1.1/DTD/svg11.dtd">
<svg version="1.1" id="Layer_1" xmlns="http://www.w3.org/2000/svg" xmlns:xlink="http://www.w3.org/1999/xlink" x="0px" y="0px"
	 width="64px" height="64px" viewBox="0 0 64 64" enable-background="new 0 0 64 64" xml:space="preserve">
<g>
	<g>
		<path fill="#231F20" d="M59.583,27.597h0.318V27.54h0.546v-4.951h-0.622L29.66,4.231l-0.089-0.053l-0.276,0.023
			C12.326,5.533,5.203,19.53,3.845,22.589H3.552v37.232h56.895v-3.758h-0.864c-2.01,0-3.646-1.636-3.646-3.646
			c0-1.97,1.603-3.715,3.814-4.151l0.695-0.14v-3.072h-0.546v-0.057h-0.318c-4.801,0-8.701-3.903-8.701-8.7
			C50.882,31.5,54.782,27.597,59.583,27.597z M29.15,5.95l27.344,16.639H5.752C7.629,18.717,14.41,7.241,29.15,5.95z M5.282,58.092
			V24.319h53.434v1.583c-5.377,0.442-9.565,4.979-9.565,10.396c0,5.416,4.188,9.954,9.565,10.396v0.05
			c-2.659,0.814-4.51,3.132-4.51,5.675c0,2.633,1.931,4.889,4.51,5.308v0.366H24.019c-0.093-3.207-2.717-5.789-5.945-5.789
			c-3.229,0-5.854,2.582-5.946,5.789"/>
	</g>
	<g>
		<path fill="#231F20" d="M21.577,33.331c-2.409,0-4.369,1.96-4.369,4.37s1.96,4.37,4.369,4.37c2.41,0,4.371-1.96,4.371-4.37
			S23.987,33.331,21.577,33.331z"/>
	</g>
	<g>
		<path fill="#231F20" d="M38.827,43.161c-3.288,0-5.963,2.675-5.963,5.965c0,3.287,2.675,5.963,5.963,5.963
			s5.963-2.676,5.963-5.963C44.79,45.836,42.115,43.161,38.827,43.161z"/>
	</g>
	<g>
		<path fill="#231F20" d="M30.635,10.026c-3.409,0-6.081,1.9-6.081,4.326c0,2.425,2.672,4.324,6.081,4.324
			c3.411,0,6.083-1.899,6.083-4.324C36.718,11.926,34.046,10.026,30.635,10.026z"/>
	</g>
</g>
</svg>
