<?xml version="1.0" encoding="utf-8"?>
<!-- Generator: Adobe Illustrator 17.1.0, SVG Export Plug-In . SVG Version: 6.00 Build 0)  -->
<!DOCTYPE svg PUBLIC "-//W3C//DTD SVG 1.1//EN" "http://www.w3.org/Graphics/SVG/1.1/DTD/svg11.dtd">
<svg version="1.1" id="Capa_1" xmlns="http://www.w3.org/2000/svg" xmlns:xlink="http://www.w3.org/1999/xlink" x="0px" y="0px"
	 width="1000px" height="1000px" viewBox="0 0 1000 1000" enable-background="new 0 0 1000 1000" xml:space="preserve">
<path d="M958.952,71.591c-0.003-3.321-0.881-6.733-2.826-10.054c-5.305-9.057-19.16-14.037-28.353-7.434
	c-8.126,5.837-16.733,10.891-25.744,15.233c-1.325,0.639-2.664,1.248-4.007,1.848c0.046-0.051-4.23,1.745-5.329,2.166
	c-4.87,1.868-9.828,3.502-14.822,5.007c-9.77,2.943-19.749,5.163-29.787,6.966c-2.448,0.44-4.905,0.836-7.362,1.221
	c-0.847,0.132-3.525,0.505-4.98,0.711c-4.833,0.61-9.676,1.133-14.525,1.586c-42.886,4.005-86.047,2.478-129.034,4.374
	c-24.582,1.084-49.703,3.123-73.913,8.563c-0.017-11.075-4.224-22.25-12.048-30.075c-16.607-16.607-41.821-15.083-58.613,0
	c-25.331,22.754-49.673,46.548-72.903,71.367c-23.231-24.819-47.572-48.613-72.903-71.367c-16.792-15.083-42.006-16.607-58.614,0
	c-15.327,15.327-16.813,43.511,0,58.613c26.768,24.044,52.52,49.22,76.97,75.596c-11.603,14.444-22.854,29.183-33.694,44.247
	c-43.483,60.422-79.452,126.407-106.229,195.91c-1.934,5.019-3.819,10.055-5.656,15.11c-1.84,5.063-3.629,10.145-5.37,15.243
	C143.728,483.376,44.116,587.319,44.116,714.538c0,131.72,106.78,238.5,238.5,238.5c67.729,0,128.86-28.236,172.276-73.574
	c3.516-3.671,6.907-7.462,10.185-11.352c3.338-3.962,6.551-8.031,9.629-12.207c29.164-39.562,46.41-88.447,46.41-141.367
	s-17.247-101.805-46.41-141.367c-3.078-4.176-6.291-8.245-9.629-12.207c-3.278-3.89-6.669-7.681-10.185-11.353
	c-27.635-28.858-62.445-50.787-101.569-62.915c1.705-4.724,3.455-9.431,5.249-14.123c1.783-4.665,3.609-9.313,5.48-13.945
	c0.628-1.555,1.252-3.112,1.89-4.663c28.014-65.254,64.616-126.453,107.662-182.888c0.365-0.465,0.737-0.925,1.102-1.389
	c0.365,0.465,0.737,0.924,1.102,1.389c43.046,56.435,79.648,117.635,107.662,182.888c0.638,1.551,1.262,3.108,1.89,4.663
	c1.87,4.632,3.697,9.281,5.48,13.945c1.794,4.692,3.544,9.4,5.249,14.123c-39.124,12.128-73.935,34.057-101.569,62.915
	c14.405,18.462,26.294,38.677,35.484,60.405c14.009,33.121,21.112,68.287,21.112,104.521c0,36.234-7.103,71.4-21.112,104.521
	c-9.19,21.728-21.079,41.942-35.484,60.405c43.415,45.338,104.546,73.574,172.276,73.574c131.72,0,238.5-106.78,238.5-238.5
	c0-127.219-99.611-231.163-225.093-238.117c-1.742-5.098-3.531-10.179-5.37-15.243c-1.837-5.055-3.722-10.091-5.656-15.11
	c-26.776-69.503-62.746-135.489-106.229-195.91c-3.808-5.291-7.681-10.53-11.585-15.744c77.729,28.836,167.18,35.316,245.967,8.073
	c36.301-12.552,69.792-32.272,97.398-59.087c29.533-28.688,50.427-64.979,63.489-103.823
	C959.103,76.937,959.305,74.224,958.952,71.591z M889.784,125.524c-1.453,2.118-2.96,4.2-4.485,6.267
	c-0.216,0.293-0.612,0.817-0.969,1.288c-0.414,0.521-0.823,1.046-1.239,1.566c-3.406,4.252-7.003,8.348-10.712,12.337
	c-7.017,7.545-14.623,14.531-22.619,21.024c-0.503,0.408-1.014,0.806-1.521,1.208c-0.395,0.306-0.803,0.62-1.058,0.811
	c-1.956,1.468-3.947,2.888-5.949,4.292c-4.331,3.038-8.791,5.89-13.319,8.624c-8.719,5.264-17.813,9.892-27.119,14.022
	c-0.277,0.123-0.713,0.312-1.145,0.498c-0.606,0.248-1.21,0.499-1.817,0.745c-2.28,0.922-4.578,1.794-6.883,2.652
	c-5.013,1.864-10.094,3.541-15.209,5.104c-9.929,3.035-20.044,5.445-30.24,7.394c-4.117,0.787-8.256,1.463-12.401,2.081
	c-0.206,0.03-0.412,0.059-0.619,0.089c-0.515,0.07-1.049,0.141-1.383,0.183c-2.096,0.261-4.195,0.489-6.295,0.708
	c-8.458,0.885-16.953,1.389-25.453,1.627c-17.684,0.495-35.397-0.462-52.959-2.55c-0.786-0.094-1.571-0.193-2.356-0.292
	c-2.129-0.298-4.253-0.624-6.376-0.958c-4.318-0.679-8.62-1.453-12.913-2.277c-8.613-1.653-17.159-3.64-25.641-5.864
	c-17.433-4.572-34.526-10.416-51.17-17.318c-0.123-0.051-0.248-0.092-0.372-0.139c0.062-0.083,0.121-0.168,0.182-0.252
	c0.712-0.891,1.443-1.767,2.175-2.64c1.763-2.102,3.615-4.126,5.503-6.116c3.161-3.333,6.536-6.458,10.026-9.444
	c0.825-0.706,1.667-1.39,2.51-2.074c1.922-1.436,3.891-2.81,5.884-4.146c3.712-2.487,7.572-4.748,11.499-6.874
	c1.966-1.065,3.968-2.063,5.979-3.04c1.075-0.522,5.071-2.268,5.731-2.585c8.014-3.196,16.281-5.745,24.636-7.877
	c9.494-2.423,19.152-4.179,28.846-5.577c1.047-0.133,2.094-0.261,3.142-0.387c2.434-0.291,4.873-0.549,7.312-0.797
	c5.354-0.544,10.721-0.969,16.09-1.337c21.307-1.464,42.68-1.735,64.028-2.043c50.639-0.732,105.646-0.903,154.674-17.108
	C893.845,119.45,891.85,122.512,889.784,125.524z"/>
</svg>
