<?xml version="1.0" encoding="utf-8"?>
<!-- Generator: Adobe Illustrator 15.0.0, SVG Export Plug-In . SVG Version: 6.00 Build 0)  -->
<!DOCTYPE svg PUBLIC "-//W3C//DTD SVG 1.1//EN" "http://www.w3.org/Graphics/SVG/1.1/DTD/svg11.dtd">
<svg version="1.1" id="Layer_1" xmlns="http://www.w3.org/2000/svg" xmlns:xlink="http://www.w3.org/1999/xlink" x="0px" y="0px"
	 width="64px" height="64px" viewBox="0 0 64 64" enable-background="new 0 0 64 64" xml:space="preserve">
<g>
	<g>
		<path d="M48.343,57.706c-1.479,0.227-3.401-0.305-4.697-0.686c-0.539-0.158-1.048-0.306-1.251-0.306l-0.14,0.02l-0.136-0.085
			c-1.851-1.34-2.9-3.516-3.125-6.464l-0.026-0.357l0.355-0.02c2.348-0.128,3.778-2.269,5.159-4.337
			c1.047-1.568,2.035-3.046,3.402-3.699L48,41.739c6.186-0.633,9.657-5.771,10.61-15.7c0.282-2.931-0.584-4.671-1.502-6.516
			c-0.425-0.855-0.866-1.738-1.213-2.772l-0.116-0.345l0.347-0.105c0.37-0.11,0.781-0.377,1.214-0.658
			c0.755-0.487,1.608-1.041,2.626-1.041c0.283,0,0.562,0.043,0.841,0.13c-0.184-0.886-0.94-1.549-1.678-2.194
			c-0.63-0.552-1.224-1.072-1.49-1.73L57.556,10.6l0.155-0.164c0.261-0.284,0.634-2.505,0.65-3.552
			c-0.214,0.024-0.703,0.32-1.029,0.517c-0.357,0.217-0.588,0.352-0.779,0.393L55.91,7.935l0.238-0.612
			c0.137-0.345-0.005-1.669-0.321-2.667c-0.354,0.146-0.44,0.686-0.481,1.656c-0.024,0.624-0.044,1.116-0.336,1.366L54.73,7.915
			l-0.179-0.231L54.35,7.688c-0.566,0-1.329-0.243-2.224-2.137c-0.004-0.006-0.007-0.015-0.01-0.021
			c-0.021,0.691,0.065,1.978,0.239,3.367l0.043,0.339l-0.337,0.051c-3.214,0.491-5.134,2.684-6.977,5.08
			c-0.566,0.739-1.063,2.006-1.588,3.35c-1.281,3.271-2.877,7.345-6.76,7.345c-0.299,0.04-0.652,0.061-1.007,0.061
			c-4.853,0-9.748-4.057-13.322-7.021c-0.868-0.72-1.689-1.4-2.393-1.925l-0.077-0.077c-0.256-0.364-0.537-0.804-0.838-1.282
			c-1.353-2.129-3.209-5.083-5.533-4.781c-0.574,0.074-0.981,0.473-1.453,0.933c-0.507,0.496-1.083,1.059-1.978,1.293
			c-2.744,0.668-7.048,2.326-6.941,3.927c0.108,1.642,6.235,4.044,10.073,5.172l-0.194,0.676c-0.036-0.012-3.655-1.014-5.513-1.014
			c-0.658,0-0.793,0.129-0.796,0.136c0,0-0.002,0.269,0.86,1.008c0.43,0.367,1.772,0.875,3.194,1.41
			c2.275,0.858,4.85,1.827,5.708,2.923l0.135,0.174l-0.079,0.248c-0.04,0.084-0.146,0.225-0.407,0.225
			c-0.328,0-1.104-0.215-2.451-0.592c-1.567-0.44-3.519-0.99-4.346-0.99H9.378c0.878,1.247,4.384,4.138,5.727,5.2l0.081,0.088
			l0.753,1.207l-0.16,0.195c-0.489,0.6,2.068,3.738,2.937,4.477l1.384,1.182l-1.724-0.581c-0.02-0.007-0.034-0.01-0.049-0.013
			c-0.001,0.078,0.005,0.187,0.012,0.263c0.006,0.088,0.011,0.174,0.011,0.259c0.936,0.834,1.33,1.75,1.71,2.636
			c0.266,0.617,0.515,1.202,0.944,1.779c1.068,1.435,3.025,2.003,5.096,2.604c1.149,0.335,2.355,0.686,3.473,1.214l0.024-0.213
			c3.003,0.325,7.425-3.224,9.155-5.816c2.257-3.526,1.2-6.48-0.022-9.903c-0.157-0.44-0.318-0.888-0.473-1.342
			c-0.072-0.208-0.143-0.419-0.212-0.632c-0.013-0.039-0.026-0.079-0.038-0.118l0.67-0.213c0.227,0.711,0.473,1.397,0.714,2.07
			c1.232,3.446,2.396,6.702-0.051,10.523c-1.7,2.551-5.674,5.816-8.87,6.129c1.448,0.869,2.658,2.146,3.251,4.254
			c0.125,0.64,0.343,1.148,0.573,1.688c0.4,0.932,0.813,1.894,0.681,3.403l-0.01,0.122l-0.087,0.092
			c-0.419,0.43-1.273,0.598-2.182,0.771c-0.499,0.099-1.066,0.207-1.5,0.364c0.609-0.053,1.262-0.188,1.899-0.315
			c0.01,0,0.02-0.003,0.027-0.003c0.862-0.178,1.757-0.357,2.564-0.357c0.766,0,1.377,0.16,1.867,0.495l0.26,0.174l-0.145,0.279
			c-0.137,0.26-0.312,0.456-0.482,0.65c-0.113,0.124-0.219,0.239-0.304,0.367c0.328-0.029,0.63-0.174,0.973-0.338
			c0.414-0.197,0.885-0.424,1.471-0.45c0.072,0,0.146-0.003,0.217-0.003c1.264,0,2.495,0.482,3.582,0.906
			c0.904,0.354,1.759,0.686,2.478,0.689c-0.104-0.188-0.167-0.391-0.152-0.562c0.021-0.229,0.178-0.489,0.557-0.532
			c0.279-0.056,0.895-0.053,1.623-0.029c0.352,0.013,0.726,0.026,1.1,0.026c0.563,0,1.292-0.026,1.835-0.19
			c-0.085-0.029-0.176-0.063-0.268-0.092c-0.384-0.128-0.822-0.272-1.071-0.667 M53.746,12.786c-0.478,0-0.865-0.388-0.865-0.865
			c0-0.478,0.388-0.865,0.865-0.865s0.864,0.388,0.864,0.865C54.61,12.398,54.224,12.786,53.746,12.786z"/>
	</g>
</g>
</svg>
