<?xml version="1.0" encoding="utf-8"?>
<!-- Generator: Adobe Illustrator 17.1.0, SVG Export Plug-In . SVG Version: 6.00 Build 0)  -->
<!DOCTYPE svg PUBLIC "-//W3C//DTD SVG 1.1//EN" "http://www.w3.org/Graphics/SVG/1.1/DTD/svg11.dtd">
<svg version="1.1" id="Capa_1" xmlns="http://www.w3.org/2000/svg" xmlns:xlink="http://www.w3.org/1999/xlink" x="0px" y="0px"
	 width="1000px" height="1000px" viewBox="0 0 1000 1000" enable-background="new 0 0 1000 1000" xml:space="preserve">
<g>
	<path d="M903.6,41.6c-8.1,14.6-8.5,31.9-11.6,47.9c-4.7,24.5-15.9,47.8-29.2,68.7c-4,6.2-27.4,46.5-36.6,45.9c0,0-72.5-4.8-104,9.7
		c-6.1,2.8-16.1,11.3-22.9,17.5c-4.3,3.9-3,8.2,2.5,9.7c19.4,5,63.3,15.6,88.5,35.2c48.8,38,71.1,79.8,79.2,98.4
		c2.3,5.3,6.5,5.9,9.5,1c6.9-11.3,18-31.7,20.6-50.1c3-21.7-5.8-42.9-15.4-62.2c-1.8-3.6-5.9-12-9.3-18.7
		c-2.6-5.2-2.1-11.4,0.8-14.2c2.5-2.4,5.1-4.9,5.3-5.1c17.7-17,34.3-35.3,49.5-54.6c19.2-24.4,35.9-52.8,42.5-83.5
		c2.9-13.4,2.8-28.5-5.3-40.2C954.4,27.9,917.1,17.1,903.6,41.6z"/>
	<path d="M42.6,921.2c41.1,26.3,89.5,34.5,137.5,29.2c28-3.1,56-11.8,81.7-23C398.4,868,698.1,707.6,802.6,621.5
		c104.6-86.1,57.6-247.4-33.8-314c-91.4-66.6-294.9-72-328.6,27.4c-27.6,81.4-119.2,227.4-230.7,349.3
		c-44.9,49.1-91.5,96.5-137.9,144.2C59.2,841.1,47,854,36.2,868C20.2,888.7,19.8,906.6,42.6,921.2z M257.4,732.6
		c27.5-30,53.2-61.3,78.5-93.1c42.7-53.8,79.3-112.9,115.4-171.3c27.4-44.4,43.2-97.1,56.6-112.5c21.4-24.8,61.7-24.4,70.5,11.5
		c5.9,24.3,3.8,47.9-3.3,70.5c-16,50.9-57.6,96.5-91.2,132.8c-55.3,59.7-119.1,111.7-184.8,159.5c-17.6,12.8-91.2,55.1-103.3,67.6
		C216.5,776.1,237.6,754.4,257.4,732.6z"/>
</g>
</svg>
