<?xml version="1.0" encoding="utf-8"?>
<!-- Generator: Adobe Illustrator 17.0.0, SVG Export Plug-In . SVG Version: 6.00 Build 0)  -->
<!DOCTYPE svg PUBLIC "-//W3C//DTD SVG 1.1//EN" "http://www.w3.org/Graphics/SVG/1.1/DTD/svg11.dtd">
<svg version="1.1" id="Capa_1" xmlns="http://www.w3.org/2000/svg" xmlns:xlink="http://www.w3.org/1999/xlink" x="0px" y="0px"
	 width="21.146px" height="21.147px" viewBox="0 0 21.146 21.147" enable-background="new 0 0 21.146 21.147" xml:space="preserve">
<path d="M10.573,0.823c-5.385,0-9.75,4.366-9.75,9.751c0,5.385,4.365,9.749,9.75,9.75c5.386,0,9.75-4.365,9.75-9.75
	C20.323,5.189,15.959,0.823,10.573,0.823z M8.345,15.98c0,0.549-0.368,0.994-0.823,0.994c-0.454,0-0.823-0.445-0.823-0.994v-3.049
	c0-0.057,0.007-0.113,0.014-0.167c0.473,0.526,1.024,0.95,1.633,1.241V15.98z M9.691,15.81c-0.455,0-0.823-0.445-0.823-0.994v-0.6
	c0.451,0.153,0.925,0.24,1.416,0.24c0.077,0,0.152-0.01,0.229-0.014v0.374h0.001C10.514,15.365,10.146,15.81,9.691,15.81z
	 M11.636,18.327c-0.455,0-0.823-0.444-0.823-0.994v-2.91c0.56-0.065,1.093-0.242,1.585-0.503c0.04,0.113,0.061,0.237,0.061,0.366
	v3.048h0.001C12.461,17.882,12.093,18.327,11.636,18.327z M10.575,13.661c-1.701,0-3.087-1.385-3.087-3.087
	c0-1.701,1.386-3.086,3.087-3.086c1.703,0,3.086,1.385,3.086,3.086C13.661,12.276,12.278,13.661,10.575,13.661z M13.625,15.81
	c-0.455,0-0.823-0.445-0.823-0.994v-1.131c0.64-0.42,1.198-1.001,1.644-1.692v2.823h0.001C14.448,15.365,14.08,15.81,13.625,15.81z
	 M12.551,2.571c3.782,0.757,6.429,4.161,5.672,7.943C17.845,7.487,15.954,3.705,12.551,2.571z"/>
</svg>
