<?xml version="1.0" encoding="utf-8"?>
<!-- Generator: Adobe Illustrator 17.0.2, SVG Export Plug-In . SVG Version: 6.00 Build 0)  -->
<!DOCTYPE svg PUBLIC "-//W3C//DTD SVG 1.0//EN" "http://www.w3.org/TR/2001/REC-SVG-20010904/DTD/svg10.dtd">
<svg version="1.0" id="Layer_1" xmlns="http://www.w3.org/2000/svg" xmlns:xlink="http://www.w3.org/1999/xlink" x="0px" y="0px"
	 width="12.783px" height="14.161px" viewBox="0 0 12.783 14.161" enable-background="new 0 0 12.783 14.161" xml:space="preserve">
<g>
	<path d="M12.778,2.8c-0.089-1.63-1.487-2.884-3.118-2.795c-1.43,0.078-2.57,1.164-2.769,2.529H0.024L0.003,2.71
		c-0.008,0.071-0.053,0.71,1,1.335C1.616,4.41,3.481,5.518,3.465,6.307V7.21c0,0.735,0.517,1.355,1.206,1.526v4.74
		c-0.226,0.115-1.032,0.362-1.895,0.446c-0.701,0.141-0.52,0.238-0.52,0.238h2.256h0.375h2.95c0,0,0.181-0.097-0.52-0.238
		c-0.864-0.084-1.669-0.331-1.895-0.446V8.73C6.096,8.55,6.6,7.935,6.6,7.21V6.303c-0.008-0.406,0.488-0.899,1.053-1.33
		C8.23,5.596,9.07,5.967,9.983,5.917C11.613,5.829,12.867,4.43,12.778,2.8z M5.042,8.387l-0.009,0l-0.009,0
		C4.385,8.375,3.866,7.847,3.866,7.21V6.311c0.018-0.898-1.334-1.824-2.658-2.61C0.7,3.399,0.512,3.111,0.442,2.935h0.813
		C1.39,3.1,1.594,3.285,1.908,3.472c0.971,0.577,2.577,1.581,2.56,2.434v0.903c0,0.708,0.536,1.283,1.224,1.362
		C5.639,8.199,5.322,8.382,5.042,8.387z M9.959,5.478c-0.758,0.041-1.456-0.26-1.947-0.767c0.416-0.289,0.82-0.529,1.05-0.665
		c1.053-0.626,1.009-1.264,1-1.335L10.04,2.534H7.339c0.195-1.133,1.15-2.025,2.345-2.09c1.388-0.076,2.579,0.992,2.654,2.38
		C12.415,4.212,11.347,5.402,9.959,5.478z"/>
	<path d="M9.927,0.846l0.07,1.283l0.58-1.145C10.373,0.906,10.154,0.857,9.927,0.846z"/>
	<path d="M11.463,1.627c-0.141-0.173-0.307-0.322-0.494-0.443l-0.58,1.144L11.463,1.627z"/>
	<path d="M8.856,1.078l0.701,1.075L9.487,0.87C9.262,0.906,9.051,0.978,8.856,1.078z"/>
	<path d="M8.045,1.814l1.144,0.58L8.488,1.319C8.315,1.46,8.166,1.627,8.045,1.814z"/>
	<path d="M9.066,4.938c0.204,0.078,0.423,0.127,0.65,0.138l-0.07-1.283L9.066,4.938z"/>
	<path d="M11.912,2.627c-0.036-0.225-0.108-0.437-0.208-0.631L10.63,2.697L11.912,2.627z"/>
	<path d="M11.155,4.602c0.173-0.141,0.322-0.307,0.443-0.494l-1.144-0.58L11.155,4.602z"/>
	<path d="M11.798,3.716c0.078-0.204,0.127-0.423,0.138-0.65l-1.283,0.07L11.798,3.716z"/>
	<path d="M10.156,5.051c0.225-0.036,0.437-0.108,0.631-0.208l-0.701-1.075L10.156,5.051z"/>
</g>
</svg>
