<?xml version="1.0" encoding="utf-8"?>
<!-- Generator: Adobe Illustrator 17.0.2, SVG Export Plug-In . SVG Version: 6.00 Build 0)  -->
<!DOCTYPE svg PUBLIC "-//W3C//DTD SVG 1.0//EN" "http://www.w3.org/TR/2001/REC-SVG-20010904/DTD/svg10.dtd">
<svg version="1.0" id="Layer_1" xmlns="http://www.w3.org/2000/svg" xmlns:xlink="http://www.w3.org/1999/xlink" x="0px" y="0px"
	 width="23.5px" height="29.018px" viewBox="0 0 23.5 29.018" enable-background="new 0 0 23.5 29.018" xml:space="preserve">
<g>
	<polygon fill="none" points="7.615,7.507 8.648,9.722 5.953,9.722 12.311,16.411 11.75,16.997 2.666,7.507 	"/>
	<polygon fill="none" points="8.202,7.507 20.834,7.507 18.713,9.722 9.235,9.722 	"/>
	<path d="M11.022,18.544v9.102c-1.848,0.112-3.393,0.644-4.133,1.372h9.721c-0.74-0.729-2.285-1.26-4.133-1.372v-9.102L23.279,7.26
		c0.221-0.231,0.283-0.571,0.157-0.865c-0.125-0.294-0.414-0.485-0.734-0.485H7.458L6.43,3.707c0.779-0.497,1.114-1.451,0.741-2.25
		C6.798,0.656,5.852,0.3,4.971,0.578L4.773,0.154C4.711,0.02,4.552-0.037,4.419,0.025c-0.133,0.062-0.191,0.22-0.129,0.354
		l0.198,0.424c-0.779,0.497-1.114,1.451-0.741,2.25c0.373,0.8,1.319,1.156,2.201,0.878l0.923,1.979H0.798
		c-0.319,0-0.608,0.191-0.734,0.485C-0.061,6.689,0,7.03,0.222,7.26L11.022,18.544z M5.003,1.797c0,0.217-0.176,0.393-0.393,0.393
		c-0.217,0-0.393-0.176-0.393-0.393c0-0.217,0.176-0.393,0.393-0.393C4.827,1.404,5.003,1.58,5.003,1.797z M9.235,9.722L8.202,7.507
		h12.632l-2.121,2.216H9.235z M2.666,7.507h4.949l1.033,2.216H5.953l6.358,6.689l-0.561,0.586L2.666,7.507z"/>
</g>
</svg>
