<?xml version="1.0" encoding="utf-8"?>
<!-- Generator: Adobe Illustrator 17.0.2, SVG Export Plug-In . SVG Version: 6.00 Build 0)  -->
<!DOCTYPE svg PUBLIC "-//W3C//DTD SVG 1.0//EN" "http://www.w3.org/TR/2001/REC-SVG-20010904/DTD/svg10.dtd">
<svg version="1.0" id="Layer_1" xmlns="http://www.w3.org/2000/svg" xmlns:xlink="http://www.w3.org/1999/xlink" x="0px" y="0px"
	 width="17.761px" height="19.695px" viewBox="0 0 17.761 19.695" enable-background="new 0 0 17.761 19.695" xml:space="preserve">
<g>
	<path d="M9.475,9.3c-0.142,0.011-0.286,0.035-0.43,0.057C8.931,8.789,8.773,8.23,8.539,7.696c-1.061-2.43-3.088-4.062-5.045-4.062
		c-0.454,0-0.889,0.09-1.293,0.267C0.034,4.847-0.65,8.09,0.678,11.13c0.589,1.348,1.496,2.456,2.561,3.187
		c-0.614,1.699-0.424,3.335,0.592,4.373c0.535,0.545,1.259,0.884,2.096,0.978c1.68,0.189,3.674-0.625,5.204-2.123
		c2.37-2.321,2.951-5.585,1.296-7.274C11.728,9.557,10.677,9.209,9.475,9.3z M4.015,5.117l0.097-0.41
		c1.358,0.315,2.739,1.621,3.511,3.39c0.199,0.455,0.35,0.928,0.45,1.41c-0.51,0.143-1.016,0.36-1.497,0.644
		c-0.18-0.286-0.393-0.57-0.643-0.859l-0.225-0.26C3.926,6.973,3.652,6.656,4.015,5.117z M4.953,9.687l0.224,0.259
		c0.262,0.303,0.461,0.596,0.632,0.889c-0.052,0.041-0.102,0.089-0.154,0.131c-0.143-0.197-0.295-0.388-0.475-0.578
		C3.982,9.249,3.286,8.179,3.137,7.256C3.449,7.949,4.05,8.644,4.953,9.687z M1.594,10.73C0.487,8.195,0.939,5.543,2.601,4.817
		C2.777,4.74,2.962,4.688,3.155,4.659C2.898,4.866,2.21,5.522,2.117,6.641c-0.113,1.364,0.686,2.869,2.354,4.45
		c0.141,0.15,0.265,0.3,0.382,0.462c-0.131,0.136-0.259,0.277-0.382,0.429c-0.348,0.427-0.65,0.883-0.903,1.363
		C2.755,12.718,2.065,11.808,1.594,10.73z M4.624,13.679c0.325-0.565,0.73-1.086,1.203-1.549c0.213-0.209,0.438-0.39,0.664-0.565
		c0.327-0.252,0.628-0.452,0.919-0.612c0.69-0.376,1.43-0.603,2.138-0.655c0.243-0.018,0.478-0.014,0.699,0.011
		c0.609,0.068,1.101,0.292,1.465,0.664c0.138,0.139,0.253,0.295,0.347,0.463c-0.173-0.101-0.565-0.296-1.1-0.356
		c-0.709-0.08-1.427,0.111-2.073,0.551c-0.644,0.438-1.242,1.144-1.777,2.1c-0.24,0.429-0.434,0.825-0.598,1.219
		c-0.87,1.783-1.888,1.782-1.919,1.781l-0.678-0.047C3.775,15.804,4.013,14.739,4.624,13.679z M9.603,12.359
		c-0.528,0.537-0.96,1.34-1.606,2.539l-0.163,0.303c-0.467,0.865-0.975,1.441-1.501,1.706c0.368-0.348,0.747-0.843,1.09-1.547
		c0.161-0.385,0.339-0.748,0.56-1.142c0.459-0.82,0.952-1.412,1.467-1.762C9.5,12.421,9.551,12.388,9.603,12.359z M10.431,16.831
		c-1.321,1.293-3.004,2-4.392,1.844l0,0c-0.614-0.069-1.116-0.299-1.493-0.685c-0.107-0.109-0.202-0.229-0.283-0.358
		c0.218,0.164,2.469,1.722,4.452-1.957l0.163-0.303c1.29-2.396,1.489-2.765,3.056-2.972l0.424-0.056
		C12.546,13.697,11.848,15.442,10.431,16.831z"/>
	<path d="M17.719,2.863h0.002l-0.002-0.002c-0.104-0.703-0.397-1.345-0.892-1.853C16.194,0.358,15.292,0,14.285,0
		c-1.352,0-2.766,0.621-3.878,1.704c-0.956,0.931-1.58,2.094-1.759,3.275C8.589,5.369,8.58,5.746,8.62,6.104l0.01,0.082
		C8.728,6.93,9.036,7.588,9.537,8.103c0.633,0.65,1.536,1.009,2.542,1.009c0.001,0,0.001,0,0.001,0c1.352,0,2.765-0.621,3.878-1.704
		C17.319,6.083,17.936,4.34,17.719,2.863z M9.652,6.231C9.584,5.891,9.578,5.52,9.637,5.129c0.146-0.968,0.667-1.93,1.467-2.708
		C12.032,1.518,13.191,1,14.285,1c0.745,0,1.376,0.244,1.825,0.706c0.042,0.043,0.081,0.087,0.119,0.133
		c-0.265-0.117-0.64-0.234-1.086-0.234c-0.986,0-2.381,0.576-3.409,3.294c-0.601,1.33-1.348,1.402-1.51,1.402L9.652,6.231z
		 M14.157,2.953c-0.361,0.451-0.682,1.087-1.127,1.969l-0.128,0.254c-0.221,0.438-0.536,0.929-0.938,1.222
		c0.242-0.278,0.479-0.643,0.693-1.116C13.085,4.154,13.593,3.37,14.157,2.953z M15.261,6.69c-0.928,0.903-2.088,1.421-3.181,1.421
		c-0.721,0-1.335-0.229-1.781-0.662c0.237,0.108,0.559,0.208,0.936,0.208c0.699,0,1.711-0.353,2.561-2.03l0.129-0.255
		c1.027-2.036,1.159-2.298,2.461-2.402l0.342-0.027C16.935,4.114,16.411,5.571,15.261,6.69z"/>
</g>
</svg>
