<?xml version="1.0" encoding="utf-8"?>
<!-- Generator: Adobe Illustrator 17.0.2, SVG Export Plug-In . SVG Version: 6.00 Build 0)  -->
<!DOCTYPE svg PUBLIC "-//W3C//DTD SVG 1.0//EN" "http://www.w3.org/TR/2001/REC-SVG-20010904/DTD/svg10.dtd">
<svg version="1.0" id="Layer_1" xmlns="http://www.w3.org/2000/svg" xmlns:xlink="http://www.w3.org/1999/xlink" x="0px" y="0px"
	 width="25.292px" height="19.974px" viewBox="0 0 25.292 19.974" enable-background="new 0 0 25.292 19.974" xml:space="preserve">
<g>
	<path d="M20.53,3.911l-0.187-0.073h-3.254l0.36-2.25L1.503,0l2.051,4.744C1.38,6.49,0,9.05,0,11.911
		c0,2.486,1.046,4.743,2.744,6.439H18c1.698-1.696,2.744-3.953,2.744-6.439c0-2.255-0.858-4.325-2.285-5.956h1.455
		c0.906,0.447,4.967,2.894,2.453,9.845c-0.199,0.549,0.086,1.156,0.635,1.355c0.119,0.043,0.24,0.064,0.36,0.064
		c0.433,0,0.84-0.268,0.995-0.699C27.138,8.83,23.07,4.91,20.53,3.911z M19.214,9.882H1.53c0.355-1.994,1.488-3.745,3.102-4.986
		h11.469c0.42,0.322,0.813,0.672,1.162,1.058C18.26,7.058,18.951,8.404,19.214,9.882z"/>
	<path d="M18,18.982H3.182c-0.219,0-0.397,0.222-0.397,0.496s0.178,0.496,0.397,0.496H18c0.219,0,0.397-0.222,0.397-0.496
		S18.219,18.982,18,18.982z"/>
</g>
</svg>
