<?xml version="1.0" encoding="utf-8"?>
<!-- Generator: Adobe Illustrator 17.1.0, SVG Export Plug-In . SVG Version: 6.00 Build 0)  -->
<!DOCTYPE svg PUBLIC "-//W3C//DTD SVG 1.1//EN" "http://www.w3.org/Graphics/SVG/1.1/DTD/svg11.dtd">
<svg version="1.1" id="Capa_1" xmlns="http://www.w3.org/2000/svg" xmlns:xlink="http://www.w3.org/1999/xlink" x="0px" y="0px"
	 width="1000px" height="1000px" viewBox="0 0 1000 1000" enable-background="new 0 0 1000 1000" xml:space="preserve">
<g>
	<path d="M267,574c0-6.7,0.4-13.3,1-19.8c-93-27.1-161.8-88.4-161.8-159.7c0-13.8,0.4-37.7,1.1-39.9
		c21.2,52.5,100.6,94.3,193.3,109.2l46.7-74.6c10.1-16.1,22.6-30.5,37.3-42.9c14.1-11.9,30.2-22.1,48-30.2
		c21.3-9.7,44.5-16.4,69.5-20.1c-2.6-3.6-4.2-8-4.2-12.8c0-12,10-22,22-22c12,0,22,10,22,22c0,3.4-0.8,6.7-2.2,9.6
		c3.1-0.1,6.1-0.1,9.2-0.1c48.8,0,100,10.3,149.9,29.8c-0.7-121.9-146.2-221-325.4-221c-179.6,0-325.4,99.8-325.4,222.1l-0.1,97.3
		c0,98.6,94.9,182,225.8,210.6C269.2,612,266.9,592.8,267,574z M480.4,166.3c12,0,22,10,22,22c0,12-10,22-22,22s-22-10-22-22
		S468.3,166.3,480.4,166.3z M394.4,241.3c12,0,22,10,22,22c0,12-10,22-22,22s-22-10-22-22S382.4,241.3,394.4,241.3z M312.8,190.6
		c12,0,22,10,22,22c0,12-10,22-22,22s-22-10-22-22C290.8,200.6,300.8,190.6,312.8,190.6z M262.1,292c12,0,22,10,22,22
		c0,12-10,22-22,22c-12,0-22-10-22-22C240.1,302,250.1,292,262.1,292z M200.4,232.4c12,0,22,10,22,22c0,12-10,22-22,22s-22-10-22-22
		C178.4,242.5,188.4,232.4,200.4,232.4z"/>
	<path d="M766.4,389.8c-22.1-13.9-44.7-25.5-67.4-35.1c-51.1-21.5-102.6-32.1-149.9-32.1c-76.5,0-141.9,27.8-176.3,82.5l-39.3,62.7
		l-12.4,19.8c-14,22.4-21.7,47.4-23.6,73.9c-1.8,24.4,1.4,50,9,75.8c22.4,76.2,83.6,154.6,172.6,210.5
		c72.1,45.2,149.5,67.6,217.9,67.6c76,0,140.8-27.6,175-82.1c0.5-0.8,50.1-79.9,51.9-82.7C988.9,646.9,918.5,485.2,766.4,389.8z
		 M764.7,624.8c0,12-10,22-22,22s-22-10-22-22s10-22,22-22S764.7,612.8,764.7,624.8z M736,463.9c12,0,22,10,22,22s-10,22-22,22
		s-22-10-22-22S724,463.9,736,463.9z M641.3,569.7c0,12-10,22-22,22c-8.3,0-15.7-4.8-19.5-11.8c-1.6-3.1-2.6-6.6-2.6-10.2
		c0-12,10-22,22-22c5.7,0,10.9,2.2,14.8,5.9C638.5,557.6,641.3,563.3,641.3,569.7z M672.1,479.3c0,12-10,22-22,22c-12,0-22-10-22-22
		c0-12,10-22,22-22C662.1,457.3,672.1,467.3,672.1,479.3z M566.3,400c9.1,0,17.1,5.8,20.4,13.8c1.1,2.6,1.7,5.3,1.7,8.3
		c0,12-10,22-22,22c-7.5,0-14.1-3.9-18.1-9.7c-2.5-3.5-3.9-7.8-3.9-12.4C544.3,410,554.3,400,566.3,400z M837,780.1
		c-51.2,81.7-199.3,81.1-319.1,5.9c-60.5-38-107.1-90.7-131.7-144.1c-11.3-24.6-18-49.3-19.3-72.9c-1.4-26.5,4-51.5,17.4-72.9
		c5.1-8.1,13-20.3,17.9-27.5c2.1-3.1,3.7-5.3,4.3-5.7c-0.3,1.8-0.6,3.6-0.8,5.5c-3.2,28.4,7,62,27,96c12.8,21.9,29.7,43.9,49.6,65
		c25.2,26.6,55.4,51.5,88.5,72.3c102.7,64.4,230.5,86.6,288,45C858.8,746.6,844.4,768.4,837,780.1z M855.1,587.3c0,12-10,22-22,22
		s-22-10-22-22s10-22,22-22S855.1,575.3,855.1,587.3z"/>
</g>
</svg>
