<?xml version="1.0" encoding="utf-8"?>
<!-- Generator: Adobe Illustrator 17.1.0, SVG Export Plug-In . SVG Version: 6.00 Build 0)  -->
<!DOCTYPE svg PUBLIC "-//W3C//DTD SVG 1.1//EN" "http://www.w3.org/Graphics/SVG/1.1/DTD/svg11.dtd">
<svg version="1.1" id="Capa_1" xmlns="http://www.w3.org/2000/svg" xmlns:xlink="http://www.w3.org/1999/xlink" x="0px" y="0px"
	 width="1000px" height="1000px" viewBox="0 0 1000 1000" enable-background="new 0 0 1000 1000" xml:space="preserve">
<g>
	<path d="M237.2,461.9c14.2,0,28.5,1.7,42.8,5c12.1,2.8,24.2,6.8,36.3,12H365v27.2c13.4,9.2,26.7,19.9,40,32V479h70v102h-28.4
		c1.1,1.2,2.2,2.5,3.2,3.7c9,10.5,40.2,51.8,45.1,59c4.9-7.2,47.3-61.5,48.4-62.7H515V479h70v59.2c13.3-12.1,27-22.8,40-32V479h48.8
		c12.1-5.2,24.2-9.2,36.2-12c26-6.1,54.5-6.7,80.9-1c-8.2-52.8-20.2-102.9-35.7-149.1C738,266.1,716.8,221,692.3,183
		c-25.8-40-54.9-71.4-86.5-93.5C570.8,65.1,533.5,52.7,495,52.7c-38.3,0-75.5,12.3-110.4,36.6c-31.5,21.9-60.5,53.1-86.3,92.8
		c-24.5,37.7-45.6,82.5-62.8,133c-15.9,46.7-28.1,97.4-36.4,151c12.1-2.6,24.4-4,36.9-4.1C236.4,461.9,236.8,461.9,237.2,461.9z
		 M285.2,439c6-29.7,13.3-58.2,21.8-85h58v85H285.2z M405,439v-85h70v85H405z M405,225h70v89h-70V225z M585,314h-70v-89h70V314z
		 M515,439v-85h70v85H515z M625,439v-85h58c8.5,26.8,15.9,55.3,21.8,85H625z M625,314v-87.8c0,0,0.1,0.1,0.1,0.1
		c16.4,25.4,31.1,54.9,43.8,87.6H625z M585,176.1v8.9h-70v-50.2c15.1,3.2,30.2,10,45.1,20.3C568.6,161.1,576.9,168.1,585,176.1z
		 M475,134.8V185h-70v-8.9c8.2-8.1,16.6-15.2,25.2-21.1C444.9,144.7,459.9,138,475,134.8z M365,226.3V314h-43.9
		C333.9,281.2,348.6,251.6,365,226.3z"/>
	<path d="M948.3,664.1c-28.9-53.3-65.9-108.3-119.1-140c-15.1-9-29.9-16.2-47.5-17.7c-17.1-1.4-34.4-0.3-51.3,2.9
		c-34.6,6.5-67.4,21.6-96,41.9c-49.2,35-87.2,84.2-119.4,134.7c-12.9,20.2-20,33.6-20,33.6s-7.1-13.4-20-33.6
		c-30.3-47.5-66.5-93.4-110-129.5c-37.7-31.3-81.3-54.5-127.8-54.5c-62.4,0-130,41.8-195.4,162.2c-1.7,3.1-1.7,4.7-0.2,4.7
		c0.8,0,2.1-0.5,3.7-1.6c16-10.4,53.1-31.6,92-31.6c37.1,0,75.9,19.3,99.9,85.5C294.5,879.4,387.9,944.2,495,944.2
		s200.5-64.8,257.8-223.1c24-66.2,62.8-85.5,99.9-85.5c38.9,0,76,21.2,92,31.6c1.7,1.1,2.9,1.6,3.7,1.6
		C949.9,668.8,950,667.2,948.3,664.1z"/>
</g>
</svg>
