<?xml version="1.0" encoding="utf-8"?>
<!-- Generator: Adobe Illustrator 17.0.0, SVG Export Plug-In . SVG Version: 6.00 Build 0)  -->
<!DOCTYPE svg PUBLIC "-//W3C//DTD SVG 1.1//EN" "http://www.w3.org/Graphics/SVG/1.1/DTD/svg11.dtd">
<svg version="1.1" id="Capa_1" xmlns="http://www.w3.org/2000/svg" xmlns:xlink="http://www.w3.org/1999/xlink" x="0px" y="0px"
	 width="200px" height="200px" viewBox="0 0 200 200" enable-background="new 0 0 200 200" xml:space="preserve">
<g>
	<path fill="#1D1D1B" d="M182.083,76.003c-0.063-0.604-0.306-1.135-0.647-1.61c-0.37-0.919-0.706-1.842-1.106-2.755
		c-1.987-4.535-8.509-0.607-6.612,3.864c0.138,0.326,0.243,0.65,0.378,0.975c-9.925,17.398-33.186,16.617-50.791,16.505
		c-22.397-0.142-25.931-7.601-19.887-28.038c5.264-17.801,3.547-34.896-9.088-49.01C72.975-7.924,39.116,6.182,39.054,35.863
		c-2.986-0.361-6.117-0.3-9.32,0.254C19.413,37.902,4.284,46.733,7.631,59.191c2.675,9.958,15.702,14.986,24.768,16.192
		c5.762,0.767,11.552,0.381,17.017-1.679c4.288-1.617,11.801-5.868,11.368-11.194c-0.063-0.777-0.418-1.435-0.92-1.916
		c0.812,0.823,2.566,0.556,2.427-0.849c-1.15-11.599-8.347-19.7-17.993-22.76C48.655,1.439,89.26,7.121,97.895,38.418
		c4.827,17.494-14.701,39.816-2.618,55.493c1.718,2.228,4.136,3.847,6.971,5.034c-12.426,1.352-22.084,13.832-23.048,25.854
		c-2.043,25.499,29.036,75.533,59.146,53.506c2.439-1.784,1.089-6.084-2.163-5.132c-16.741,4.903-29.036-1.3-39.373-14.93
		c-8.782-11.581-14.033-28.645-7.044-42.227c9.066-17.616,30.146-5.821,42.873-0.641c10.57,4.302,21.283,5.897,31.663,1.438
		c-0.684,1.367-1.485,2.705-2.766,3.979c-3.333,3.314-8.201,4.878-12.651,5.919c-5.445,1.275-16.628,2.213-20.718-2.902
		c-0.825-1.032-2.534,0.08-2.163,1.26c2.925,9.311,16.631,8.853,24.549,7.693c9.997-1.465,25.668-10.37,22.477-22.667
		c-0.633-2.438-4.336-3.096-5.532-0.723c-0.375,0.745-0.658,1.468-0.952,2.193c-0.354-0.106-0.737-0.146-1.164-0.01
		c-17.002,5.415-31.121-4.425-46.524-9.757c8.565,0.202,17.25-0.791,22.695-1.092c13.375-0.74,28.062-4.108,35.963-14.498
		c17.161,58.8-30.552,111.27-93.267,102.787c-33.702-4.559-75.045-31.146-57.422-69.452c5.797-12.601,22.417-26.606,19.163-41.837
		c-0.135-0.63-0.728-1.196-1.346-1.346c-0.542-0.131-1.085-0.262-1.628-0.393c-0.189-0.046-0.432,0.057-0.471,0.268
		c-5.474,29.741-37.523,45.06-25.256,78.54c10.529,28.734,51.944,41.329,79.045,43.112
		C164.514,202.371,204.595,134.961,182.083,76.003z M59.61,60.358c-0.592-0.431-1.35-0.63-2.195-0.415
		c-3.371,0.852-5.442,4.481-8.51,6.221c-3.438,1.95-7.574,2.41-11.449,2.419c-7.459,0.017-15.712-2.847-20.852-8.371
		c-1.089-1.171-1.635-2.301-1.836-3.392c0.057,0.028,0.063,0.089,0.127,0.112c11.863,4.292,27.299,7.497,39.594,3.292
		c1.971-0.674,1.768-3.932-0.514-3.796c-13.509,0.809-25.019,1.416-38.343-2.169c-0.275-0.074-0.466,0.029-0.681,0.085
		c1.541-4.567,9.215-8.053,13.023-9.503C42.367,39.359,52.165,49.356,59.61,60.358z"/>
	<path fill="#1D1D1B" d="M71.333,30.255c-0.707-4.399-7.071-3.688-7.071,0.485c-0.037-0.01-0.074-0.02-0.111-0.03
		c-0.022,0.406-0.034,0.811-0.054,1.217c-0.344,0.88-0.403,1.932-0.372,2.988c-0.098,0.482-0.168,0.944-0.151,1.325
		c0.018,0.39,0.107,0.745,0.251,1.061c0.004,0.099,0.017,0.229,0.017,0.322c-0.093,2.587,1.932,3.85,3.959,3.812
		c1.117,0.021,2.198-0.379,2.96-1.156c1.081-0.082,1.967-0.946,2.372-1.949C74.105,35.92,73.445,32.134,71.333,30.255z"/>
	<path fill="#1D1D1B" d="M158.421,132.392c-5.388,4.558-8.886,8.964-15.997,11.181c-8.589,2.678-16.778-0.061-21.942-7.297
		c-1.346-1.886-3.943-0.296-3.054,1.785c5.099,11.937,21.727,14.789,33.654,9.684c-1.282,4.872-2.381,9.154-6.573,12.946
		c-4.541,4.109-11.453,4.832-17.259,4.534c-5.319-0.273-10.475-2.211-14.884-5.118c-5.2-3.429-5.847-8.147-7.653-13.527
		c-0.28-0.835-1.348-0.984-1.833-0.24c-8.273,12.714,13.324,23.867,22.733,25.116c16.235,2.155,34.936-8.146,32.259-26.811
		c-0.05-0.346-0.169-0.631-0.308-0.892c2.591-2.28,4.577-5.151,5.61-8.593C164.051,132.242,160.473,130.657,158.421,132.392z"/>
</g>
</svg>
