<?xml version="1.0" encoding="utf-8"?>
<!-- Generator: Adobe Illustrator 17.1.0, SVG Export Plug-In . SVG Version: 6.00 Build 0)  -->
<!DOCTYPE svg PUBLIC "-//W3C//DTD SVG 1.1//EN" "http://www.w3.org/Graphics/SVG/1.1/DTD/svg11.dtd">
<svg version="1.1" id="Capa_1" xmlns="http://www.w3.org/2000/svg" xmlns:xlink="http://www.w3.org/1999/xlink" x="0px" y="0px"
	 width="1000px" height="1000px" viewBox="0 0 1000 1000" enable-background="new 0 0 1000 1000" xml:space="preserve">
<path d="M478.7,870.1c56.2-56.2,124.6-166.8,215.2-314.9c31.9-52.2,83-100.5,128.9-148c-7.8-21.9-16.8-49-20.7-68.3
	c-1.9-9.3-3.9-21.4-5.9-33.7c-11.4,8-16,10.5-18,11.6c-21,11.5-49.5,23.1-69.7,30.8c-4.7,1.8-9.6,2.7-14.6,2.7
	c-13.1,0-25.2-6.4-32.6-17c-7.4-10.7-8.9-24.5-4.1-36.9c7.7-20.2,19.4-48.7,30.8-69.7c1.1-2,3.6-6.6,11.6-18
	c-12.4-1.9-24.4-4-33.7-5.9c-18.7-3.8-44.6-12.3-66.1-19.9c-46,45-94.5,94.9-150.3,128.1c-162.6,96.9-271.8,158.8-321.6,208.6
	C13.5,633.8-21.8,796.7,92.6,911.2S364.2,984.6,478.7,870.1z"/>
<path d="M945.2,35.1c-2.6-1.9-5.4-2.9-8.1-2.9c-4.8,0-9.2,2.9-11.6,8.3c-5,11-14,25.2-26.6,43c-20.9,33.9-49,44.8-49,44.8
	c-16.9-12-36.1-23.4-54.7-32.4c-20-9.7-42.2-15.1-64.4-15.1c-13.5,0-27.1,2-40.1,6.3c-28.2,9.3-64.9,30.6-93,48.6
	c-7.7,4.9-6.9,11.7,1.6,14.8c6.9,2.5,15.5,5.6,24.7,8.7c16.3,5.5,34.4,11.1,47.7,13.8c17.9,3.6,47.3,8,65.7,10.6
	c9,1.3,11.8,8.1,6.3,15.3c-10,13.1-24.4,32.5-29.4,41.7c-11,20.1-22.5,48.6-29.1,66.1c-2.8,7.2,2.3,13.3,8.7,13.3
	c1.2,0,2.5-0.2,3.8-0.7c17.4-6.7,46-18.1,66.1-29.1c9.2-5,28.6-19.5,41.7-29.4c2.5-1.9,5-2.8,7.2-2.8c4.1,0,7.3,3.2,8.1,9.1
	c2.6,18.3,6.9,47.8,10.6,65.7c2.8,13.9,8.8,32.9,14.5,49.7c2.9,8.5,5.7,16.4,8.1,22.8c1.7,4.6,4.4,6.9,7.3,6.9
	c2.5,0,5.2-1.8,7.5-5.3c18-28.1,39.3-64.8,48.6-93c3.5-10.6,5.6-22.1,6.2-33.2c2.3-43.7-18.5-79-40.2-115c-0.6-1-6.8-9.1-6.4-10.2
	c0,0,12-25.3,44.8-49C940,94,950.1,86.4,964.2,79.2c8.3-3.8,10.8-12.4,5.4-19.7C962.3,49.6,955.2,42.5,945.2,35.1z"/>
</svg>
