<?xml version="1.0" encoding="utf-8"?>
<!-- Generator: Adobe Illustrator 15.0.0, SVG Export Plug-In . SVG Version: 6.00 Build 0)  -->
<!DOCTYPE svg PUBLIC "-//W3C//DTD SVG 1.1//EN" "http://www.w3.org/Graphics/SVG/1.1/DTD/svg11.dtd">
<svg version="1.1" id="Layer_1" xmlns="http://www.w3.org/2000/svg" xmlns:xlink="http://www.w3.org/1999/xlink" x="0px" y="0px"
	 width="64px" height="64px" viewBox="0 0 64 64" enable-background="new 0 0 64 64" xml:space="preserve">
<g>
	<path fill="#231F20" d="M19.703,6.096c5.81,0,11.524,5.172,14.671,13.213c-2.867,1.524-5.521,3.454-7.688,5.631
		c-7.993,8.044-9.936,19.33-4.79,26.744c-0.731,0.123-1.464,0.206-2.193,0.206c-9.297,0-16.862-9.571-16.862-21.335
		C2.841,19.246,10.207,6.096,19.703,6.096z M24.136,52.524c-5.509-6.871-3.591-17.998,4.253-25.888
		c2.2-2.214,4.922-4.179,7.875-5.679l0.265-0.135l-0.063-0.125c3.901-1.938,8.104-3.01,11.867-3.01c3.896,0,7.134,1.17,9.361,3.385
		c3.104,3.085,4.172,8.041,3.003,13.953c-1.121,5.673-4.139,11.321-8.285,15.49c-4.668,4.697-10.691,7.389-16.522,7.389
		c-4.264,0-7.959-1.433-10.687-4.146c-0.28-0.275-0.551-0.594-0.825-0.922L24.136,52.524z"/>
</g>
</svg>
