<?xml version="1.0" encoding="iso-8859-1"?>
<!-- Generator: Adobe Illustrator 17.1.0, SVG Export Plug-In . SVG Version: 6.00 Build 0)  -->
<!DOCTYPE svg PUBLIC "-//W3C//DTD SVG 1.1//EN" "http://www.w3.org/Graphics/SVG/1.1/DTD/svg11.dtd">
<svg version="1.1" id="Capa_1" xmlns="http://www.w3.org/2000/svg" xmlns:xlink="http://www.w3.org/1999/xlink" x="0px" y="0px"
	 viewBox="0 0 150 150" style="enable-background:new 0 0 150 150;" xml:space="preserve">
<g>
	<path d="M144.848,70.362l-0.55-2c-0.021-0.076-0.055-0.152-0.11-0.193c0.174-2.097-1.178-3.271-2.459-4.208
		c-0.301-0.22-0.617-0.434-0.935-0.649c-0.95-0.642-1.932-1.305-2.464-2.157c-0.628-1.007-1.486-1.516-2.317-2.008
		c-0.454-0.269-0.884-0.523-1.258-0.85c-1.18-1.028-2.451-2.088-3.894-2.751c-2.461-1.132-5.05-2.067-7.555-2.971l-0.458-0.166
		c-2.23-0.806-4.471-1.583-6.712-2.359c-1.736-0.602-3.474-1.204-5.206-1.819c-5.369-1.908-10.651-3.683-16.245-4.429l-0.313-0.042
		c-2.477-0.332-5.038-0.674-7.576-0.674c-0.967,0-1.863,0.048-2.741,0.146c-2.276,0.255-4.568,0.651-6.785,1.033
		c-1.087,0.188-2.173,0.375-3.261,0.547c-1.944,0.308-3.733,1.062-5.463,1.791c-0.819,0.346-1.668,0.703-2.512,1.003
		c-3.086,1.096-6.266,1.629-9.722,1.629l-0.254-0.001c-5.366-0.043-10.779,0.12-16.096,0.477c-2.566,0.172-4.931,0.96-6.838,2.278
		c-0.228,0.156-0.438,0.338-0.662,0.534l-0.307,0.264c-0.138,0.115-0.203,0.294-0.172,0.471s0.155,0.323,0.324,0.383
		c1.866,0.668,2.942,2.078,3.827,3.502c0.107,0.172,0.391,0.63-0.378,1.398c-0.667,0.666-1.248,1.41-1.863,2.198
		c-0.27,0.345-0.548,0.702-0.847,1.068c-0.115,0.142-0.145,0.334-0.076,0.503c0.069,0.169,0.224,0.288,0.405,0.309l3.783,0.447
		c-0.095,0.117-0.19,0.236-0.287,0.356c-0.669,0.831-1.389,1.725-2.076,2.645c-3.102,4.148-5.23,8.774-6.51,14.143
		c-0.668,2.803-1.816,5.478-2.852,7.724c-0.521,1.131-1.493,2.25-2.538,2.922c-0.736,0.473-1.741,0.661-2.713,0.841
		c-0.333,0.062-0.663,0.124-0.985,0.196c-3.519,0.787-7.979,2.144-11.263,5.678c-1.226,1.319-2.155,3.001-2.841,5.142
		c-0.73,2.285-0.812,4.611-0.892,6.86c-0.018,0.486-0.034,0.972-0.058,1.458c-0.007,0.14-0.022,0.279-0.038,0.424
		c-0.043,0.399-0.092,0.852-0.01,1.44c0.025,0.185,0.152,0.339,0.328,0.402c0.178,0.064,0.372,0.021,0.508-0.105
		c0.082-0.077,0.18-0.148,0.276-0.22c0.286-0.214,0.61-0.457,0.733-0.842c0.304-0.949,0.839-1.604,1.681-2.052
		c0.127-0.005,0.255-0.017,0.382-0.036l1.922-0.292c0.103,0.064,0.224,0.09,0.346,0.071l5.191-0.821
		c0.466,0.151,1.02,0.293,1.613,0.242c0.358-0.032,0.684-0.083,0.987-0.156c0.213,0.063,0.429,0.088,0.637,0.102
		c0.388,0.139,0.789,0.236,1.196,0.289c0.056,0.061,0.105,0.133,0.151,0.221c0.065,0.126,0.182,0.218,0.319,0.253
		c0.139,0.037,0.284,0.01,0.402-0.069l0.573-0.385c0.622-0.057,1.28-0.197,1.938-0.411c0.109-0.029,0.215-0.066,0.297-0.1
		c1.782-0.623,3.535-1.689,5.081-2.631l0.354-0.214c0.373,0.215,0.906,0.269,1.346,0.269c0.237,0,1.284-0.025,1.942-0.449
		c1.834,2.126,3.729,4.321,5.677,6.403c1.622,1.732,4.21,3.798,7.332,3.798c1.071,0,2.129-0.251,3.144-0.747
		c0.317-0.155,0.588-0.388,0.796-0.684c0.664,0.289,1.331,0.573,2.002,0.841c1.125,0.449,2.301,0.541,3.185,0.358
		c0.185,0,0.422-0.02,0.629-0.173l0.04-0.026c0.011,0.003,0.021,0.006,0.031,0.009c0.218,0.06,0.454,0.084,0.692,0.079
		c0.06,0.088,0.116,0.196,0.168,0.321c0.247,0.591,0.423,1.239,0.609,1.925c0.088,0.323,0.179,0.658,0.281,1.005
		c0.062,0.209,0.251,0.354,0.469,0.358c0.004,0,0.008,0,0.011,0c0.214,0,0.404-0.136,0.474-0.338
		c0.722-2.115,0.874-4.27,0.474-6.492c0.033-1.902-0.524-3.701-1.614-5.205c-0.113-0.269-0.229-0.538-0.347-0.806
		c-0.086-0.197-0.365-0.305-0.584-0.278c-0.376-0.372-0.778-0.697-1.199-0.972l-0.517-0.636c-1.021-1.265-2.077-2.572-3.483-3.6
		c-1.116-0.815-2.187-1.939-3.273-3.436c-0.398-0.551-0.651-1.224-0.919-1.937c-0.172-0.458-0.35-0.932-0.572-1.382
		c-0.294-0.597-0.783-1.086-1.176-1.479c-0.178-0.178-0.403-0.244-0.619-0.285l0.021-0.173c0.464-0.681,0.879-1.36,1.239-2.04
		l1.829-2.242c0.262-0.262,0.512-0.502,0.752-0.725c0.103,0.163,0.287,0.26,0.492,0.229c0.136-0.019,0.28-0.034,0.428-0.05
		c0.367-0.039,0.783-0.084,1.189-0.188c0.08-0.02,0.146-0.021,0.193-0.023c0.055,0.05,0.11,0.301,0.141,0.437
		c0.062,0.274,0.065,0.531,0.011,0.706c-0.535,1.73,0.082,3.173,0.678,4.567c0.116,0.272,0.232,0.544,0.34,0.818
		c0.066,0.17,0.125,0.344,0.181,0.524c-0.064,0.057-0.129,0.114-0.195,0.17c-0.374,0.317-0.501,0.769-0.34,1.208
		c0.277,0.752,1.324,1.076,1.965,0.533c4.048-3.432,6.114-8.844,5.434-14.185c0.358-0.234,0.72-0.45,1.029-0.637l0.544-0.164
		c0.113,0.053,0.286,0.083,0.434,0.045c0.968-0.26,1.932-0.535,2.896-0.81l1.42-0.403c-0.004,0.094-0.009,0.188-0.014,0.281
		c-0.032,0.659-0.066,1.341,0.081,1.997c0.183,0.817,0.562,1.572,0.928,2.301l0.259,0.52c0.163,0.339,0.587,0.39,0.825,0.39
		c0.187,0,0.346-0.033,0.473-0.097c1.289-0.646,2.561-1.324,3.831-2.002c0.161-0.086,0.317-0.188,0.474-0.291
		c0.236-0.155,0.459-0.302,0.642-0.349c0.08,0,0.247,0.068,0.324,0.123c0.315,0.977,1.158,1.043,1.616,1.08
		c2.562,0.208,4.355-1.455,4.43-3.991c0.013-0.426-0.01-0.886-0.072-1.459c-0.035-0.311-0.07-0.63-0.062-0.786
		c0.105-0.014,0.412-0.015,0.829-0.001c4.379,0.151,8.731-0.644,13.98-2.508l0.027-0.01l-2.533,8.297
		c-0.055,0.18-0.004,0.375,0.131,0.505c0.135,0.131,0.334,0.175,0.508,0.115l0.124-0.042c3.007-1.019,5.849-1.982,8.354-3.683
		c0.684-0.214,1.287-0.596,1.749-1.108l1.908-2.114c0.143,0.042,0.284,0.083,0.427,0.124c0.858,0.248,1.669,0.481,2.408,0.857
		c0.783,0.399,1.485,0.962,2.229,1.557c0.239,0.192,0.479,0.384,0.721,0.569c0.712,0.547,1.386,0.664,2.271,0.389
		c0.416-0.128,0.888-0.136,1.434-0.145c0.265-0.004,0.537-0.009,0.817-0.027c0.253-0.017,0.453-0.22,0.466-0.473
		c0.161-3.057-1.419-5.495-3.079-7.555l14.328,1.137l-1.975,3.591c-0.091,0.167-0.08,0.371,0.028,0.527
		c0.109,0.156,0.299,0.234,0.484,0.208c0.76-0.114,2.166-1.044,2.73-2.299c0.763-1.696,1.709-2.197,3.25-1.795
		c0.264,0.069,0.582,0.082,0.926,0.064l-1.046,1.369c-0.172,0.097-0.352,0.182-0.538,0.254c-0.562,0.217-0.877,0.792-0.764,1.399
		c0.132,0.712,0.823,1.125,1.491,0.869c1.83-0.705,3.208-2.068,3.904-3.857l0.268-0.08c0.645-0.191,1.312-0.389,1.957-0.638
		c0.509-0.197,0.936-0.524,1.412-0.89c0.385-0.295,0.754-0.61,1.186-0.979l0.025-0.021l0.137,0.553
		c0.216,0.869,0.413,1.664,0.601,2.38l0.158,1.156c0.076,0.559,0.497,0.935,1.048,0.935c0.369,0,0.738-0.169,0.986-0.454
		c0.237-0.272,0.341-0.622,0.286-1.021l-0.244-1.731c0.029-0.798,0.051-1.597,0.069-2.395c0.004-0.178-0.009-0.352-0.028-0.522
		c0.027,0.052,0.057,0.117,0.09,0.2c0.472,1.19,1.086,2.447,1.878,3.841c0.085,0.151,0.214,0.21,0.42,0.205
		c0.149,0.062,0.314,0.095,0.482,0.095c0.405,0,0.791-0.191,1.008-0.498c0.205-0.29,0.247-0.648,0.118-1.01L144.848,70.362z"/>
</g>
</svg>
