<?xml version="1.0" encoding="iso-8859-1"?>
<!-- Generator: Adobe Illustrator 17.1.0, SVG Export Plug-In . SVG Version: 6.00 Build 0)  -->
<!DOCTYPE svg PUBLIC "-//W3C//DTD SVG 1.1//EN" "http://www.w3.org/Graphics/SVG/1.1/DTD/svg11.dtd">
<svg version="1.1" id="Capa_1" xmlns="http://www.w3.org/2000/svg" xmlns:xlink="http://www.w3.org/1999/xlink" x="0px" y="0px"
	 viewBox="0 0 150 150" style="enable-background:new 0 0 150 150;" xml:space="preserve">
<g>
	<path d="M145.495,75.648c-2.792,1.162-5.716,2.008-8.585,2.988c-0.121-0.215-0.242-0.431-0.363-0.646
		c2.383-1.714,4.685-3.56,7.178-5.097c1.687-1.039,1.73-1.886,0.247-2.939c-2.366-1.68-4.692-3.451-7.204-4.887
		c-9.886-5.652-20.042-10.721-31.117-13.694c-0.81-0.217-1.625-0.62-2.293-1.128c-2.66-2.021-5.262-4.118-8.269-6.49
		c-0.131,1.057-0.185,1.494-0.263,2.123c-1.771-1.224-3.473-2.401-5.632-3.894c0.393,1.557,0.649,2.575,0.952,3.776
		c-1.791-1.023-3.345-1.91-4.898-2.797c-0.144,0.131-0.289,0.262-0.433,0.393c0.301,0.791,0.602,1.583,1.04,2.736
		c-1.916-1.039-3.466-1.88-5.542-3.006c0.472,1.476,0.752,2.349,1.167,3.645c-1.473-0.878-2.662-1.587-4.465-2.662
		c0.836,1.835,1.384,3.037,2.195,4.817c-2.3-1.053-4.052-1.855-6.092-2.788c0.098,0.945,0.154,1.484,0.227,2.189
		c-0.891-0.293-1.583-0.521-2.66-0.876c0.747,1.251,1.264,2.116,2.044,3.423c-0.847-0.245-1.259-0.277-1.573-0.469
		c-2.818-1.731-2.783-1.646-6.7-0.396c-0.816,0.26-2.184-0.181-2.888-0.779c-3.207-2.726-6.372-1.14-9.427,0.021
		c-5.314,2.02-10.729,3.869-15.174,7.679c-2.654,2.275-3.667,4.14-4.139,9.076c1.589,0.149,3.181,0.299,5.108,0.48
		c-3.422,1.392-6.569,2.561-9.904,0.955c-3.085-1.486-6.093-3.134-9.106-4.766c-3.791-2.053-7.501-4.263-11.354-6.192
		c-1.418-0.71-3.14-0.813-5.515-1.384c3.922,6.84,0.539,13.014,0.515,19.201c-0.016,3.934,0.615,7.615,1.585,11.372
		c0.834,3.228,1.027,6.592-1.045,9.765c1.968,1.312,4.112,0.769,5.715-0.172c4.451-2.614,8.861-5.37,12.948-8.512
		c5.401-4.151,11.106-6.385,17.939-4.732c0.154,0.037,0.281,0.185,0.891,0.607c-2.091-0.179-3.691-0.316-5.264-0.45
		c-1.285,4.019,0.267,9.505,3.345,12.056c6.531,5.414,11.065,5.614,17.957,0.592c8.316-6.059,6.711-5.784,16.849-3.159
		c6.998,1.812,14.085,2.171,21.252,1.677c0.307-0.021,0.62,0.026,1.445,0.068c-0.814,0.562-1.185,1.003-1.627,1.094
		c-3.194,0.656-3.406,3.018-2.93,5.468c0.462,2.382,1.071,4.824,2.164,6.958c0.608,1.186,2.453,1.78,3.489-0.024
		c2.142-3.729,4.418-7.421,6.098-11.359c0.885-2.073,1.781-2.8,3.995-3.207c5.61-1.03,11.165-2.431,16.665-3.961
		c5.68-1.58,11.287-3.432,16.886-5.285c1.828-0.605,3.713-1.346,5.227-2.484c0.956-0.718,1.658-2.25,1.772-3.482
		C148.053,75.769,147.258,74.915,145.495,75.648z"/>
</g>
</svg>
