<?xml version="1.0" encoding="iso-8859-1"?>
<!-- Generator: Adobe Illustrator 17.1.0, SVG Export Plug-In . SVG Version: 6.00 Build 0)  -->
<!DOCTYPE svg PUBLIC "-//W3C//DTD SVG 1.1//EN" "http://www.w3.org/Graphics/SVG/1.1/DTD/svg11.dtd">
<svg version="1.1" id="Capa_1" xmlns="http://www.w3.org/2000/svg" xmlns:xlink="http://www.w3.org/1999/xlink" x="0px" y="0px"
	 viewBox="0 0 150 150" style="enable-background:new 0 0 150 150;" xml:space="preserve">
<g>
	<path d="M145.588,76.264c-1.522-0.246-2.507-0.406-3.493-0.567c-0.112-0.198-0.372-0.475-0.315-0.577
		c2.353-4.258,0.663-6.54-3.208-9.059c-8-5.207-16.571-8.557-25.809-10.654c-3.199-0.726-6.731-1.799-9.126-3.859
		c-4.663-4.008-9.576-2.932-14.448-1.763c-9.261,2.223-18.42,4.876-27.611,7.392c-3.023,0.827-6.252,1.432-7.622,5.409
		c1.636,0.529,3.161,1.023,5.535,1.79c-6.786,2.324-12.551,4.241-18.822,0.74c-8.181-4.569-16.516-8.872-24.888-13.085
		c-3.871-1.948-7.985-3.414-12.358-4.372c4.165,3.509,8.358,6.985,12.485,10.537c2.956,2.543,5.852,5.158,8.727,7.794
		c4.43,4.063,5.032,8.67,0.435,12.582C19.295,83.489,12.7,87.445,6.442,91.793c-0.471,0.328-1.067,0.477-1.604,0.709
		c0.119,0.377,0.238,0.754,0.357,1.131c5.428-1.601,11.027-2.783,16.242-4.907c6.751-2.75,13.263-6.12,19.744-9.482
		c3.447-1.788,6.782-2.302,10.512-1.231c3.13,0.899,6.349,1.488,9.528,2.214c-0.089,0.245-0.178,0.49-0.267,0.734
		c-2.166,0.599-4.331,1.198-6.497,1.797c-0.043,0.255-0.085,0.511-0.128,0.766c3.812,1.364,7.583,2.868,11.465,3.99
		c0.911,0.263,2.279-0.617,3.29-1.218c3.587-2.13,6.956-2.638,10.993-0.582c2.57,1.308,5.864,1.453,8.859,1.605
		c4.827,0.245,9.676,0.066,15.437,0.066c-5.111,5.139-0.263,9.857-1.365,14.476c0.36,0.159,0.721,0.318,1.082,0.478
		c1.816-3.664,3.952-7.211,5.342-11.03c1.037-2.849,2.362-4.221,5.47-4.717c9.513-1.518,18.823-3.904,27.564-8.126
		c0.899-0.435,1.791-0.885,3.217-1.597C146.175,76.623,146.134,76.352,145.588,76.264z"/>
</g>
</svg>
