<?xml version="1.0" encoding="iso-8859-1"?>
<!-- Generator: Adobe Illustrator 17.1.0, SVG Export Plug-In . SVG Version: 6.00 Build 0)  -->
<!DOCTYPE svg PUBLIC "-//W3C//DTD SVG 1.1//EN" "http://www.w3.org/Graphics/SVG/1.1/DTD/svg11.dtd">
<svg version="1.1" id="Capa_1" xmlns="http://www.w3.org/2000/svg" xmlns:xlink="http://www.w3.org/1999/xlink" x="0px" y="0px"
	 viewBox="0 0 150 150" style="enable-background:new 0 0 150 150;" xml:space="preserve">
<g>
	<path d="M8.684,67.951c0.506,0.648,0.836,1.513,1.471,1.963c1.109,0.786,2.375,1.363,3.611,1.952
		c0.389,0.185,0.892,0.156,1.345,0.173c0.744,0.028,1.492-0.03,2.233,0.024c1.542,0.114,2.811-0.606,4.122-1.241
		c2.236-1.082,4.448-2.231,6.753-3.145c0.824-0.327,1.886-0.052,3.177-0.052c-0.332,0.342-0.488,0.645-0.71,0.705
		c-0.85,0.231-1.733,0.341-2.577,0.588c-0.341,0.099-0.645,0.401-0.912,0.665c-1.026,1.014-2.05,2.032-3.035,3.085
		c-0.583,0.622-0.267,2.374,0.35,2.934c0.656,0.594,1.416,1.229,1.735,2.007c0.705,1.721,2.211,2.523,3.54,3.544
		c0.985,0.756,1.977,1.515,3.035,2.159c0.991,0.603,2.069,1.066,3.117,1.575c1.354,0.658,2.737,1.26,4.067,1.962
		c0.997,0.526,1.983,1.102,2.878,1.783c1.406,1.07,3.119,1.142,4.708,1.378c1.041,0.154,2.229-0.408,3.299-0.793
		c1.588-0.572,3.138-1.254,4.688-1.927c0.281-0.122,0.552-0.269,0.816-0.443c2.743,1.029,5.528,1.934,8.345,2.712
		c-0.394,2.151-0.797,4.301-1.113,6.464c-0.052,0.354,0.428,0.786,0.662,1.181c0.186,0,0.373,0,0.559,0
		c1.45-0.883,2.91-1.752,4.349-2.653c1.551-0.971,3.085-1.97,4.631-2.949c1.999,0.347,4.01,0.627,6.029,0.842
		c1.63,0.474,3.183,1.123,4.987,0.918c1.382-0.157,2.83,0.39,4.255,0.459c1.977,0.094,3.973,0.167,5.939,0
		c1.638-0.139,3.25-0.619,4.865-0.988c0.526-0.12,1.013-0.406,1.537-0.541c0.41-0.105,0.865-0.039,1.274-0.146
		c0.45-0.117,0.87-0.347,1.304-0.525c0.941-0.386,1.975-0.631,2.804-1.184c0.302-0.202,0.61-0.358,0.924-0.48
		c10.313-0.103,20.645-3.296,28.937-9.349c1.047-0.764,1.877-1.56,2.356-2.721c0.412-0.336,0.793-0.718,1.136-1.15
		c0.321-0.404,0.334-0.937,0.029-1.279c0.142-0.165,0.287-0.329,0.437-0.486c0.615-0.642,1.194-1.729,0.938-2.203
		c-0.561-1.043-0.665-1.017-2.152-0.343c0.574-1.606,0.442-1.827-1.228-2.317c-0.518-0.152-1.002-0.421-1.495-0.651
		c-2.004-0.936-3.989-1.916-6.016-2.802c-1.283-0.561-2.6-1.091-3.952-1.438c-1.331-0.341-2.75-0.336-4.087-0.659
		c-1.929-0.466-3.816-1.103-5.729-1.638c-0.146-0.041-0.31-0.021-0.51,0.01c-0.272-0.085-0.545-0.168-0.817-0.252
		c-0.76-0.52-1.918-0.585-2.912-0.981c-0.103-0.041-0.228-0.029-0.365,0.013c-9.808-2.779-19.88-4.579-30.128-5.356
		c-0.411-0.031-0.812-0.002-1.2,0.075c-1.063-0.188-2.116-0.374-3.168-0.56c-1.081-0.191-2.156-0.424-3.244-0.562
		c-1.286-0.164-2.588-0.207-3.873-0.376c-1.421-0.187-2.826-0.504-4.249-0.678c-1.188-0.146-2.397-0.109-3.585-0.256
		c-2.699-0.336-5.389-0.75-8.087-1.094c-0.204-0.026-0.414-0.003-0.625,0.034c-0.102-0.02-0.205-0.039-0.307-0.059
		c-0.699-0.134-1.4-0.159-2.076-0.083c-0.368-0.058-0.736-0.119-1.102-0.188c-1.044-0.197-2.073-0.47-3.119-0.653
		c-1.564-0.274-3.152-0.422-4.701-0.759c-2.634-0.572-5.227-1.346-7.872-1.846c-1.739-0.328-3.256-1.033-4.748-1.904
		c-0.531-0.31-1.139-0.487-1.712-0.725c-0.621,0-1.242,0-1.863,0c-0.06,0.06-0.113,0.164-0.18,0.174
		c-1.675,0.263-3.022,1.058-3.744,2.613c-0.222,0.478-0.171,1.208,0.023,1.722c0.303,0.803,0.784,1.556,1.281,2.266
		c0.637,0.908,1.369,1.75,2.054,2.626c0.223,0.285,0.427,0.586,0.639,0.88c-5.71-2.611-11.6-3.74-17.441-4.225
		c-0.745,1.417-1.553,2.333-2.751,2.886c0,2.235,0,4.471,0,6.706c0.18,0.594,0.44,1.177,0.524,1.785
		C7.26,65.578,7.803,66.825,8.684,67.951z M54.485,86.107c0.045,0.018,0.09,0.036,0.135,0.054c-0.061,0-0.12,0-0.182,0
		C54.455,86.142,54.468,86.125,54.485,86.107z"/>
</g>
</svg>
