<?xml version="1.0" encoding="iso-8859-1"?>
<!-- Generator: Adobe Illustrator 17.1.0, SVG Export Plug-In . SVG Version: 6.00 Build 0)  -->
<!DOCTYPE svg PUBLIC "-//W3C//DTD SVG 1.1//EN" "http://www.w3.org/Graphics/SVG/1.1/DTD/svg11.dtd">
<svg version="1.1" id="Capa_1" xmlns="http://www.w3.org/2000/svg" xmlns:xlink="http://www.w3.org/1999/xlink" x="0px" y="0px"
	 viewBox="0 0 150 150" style="enable-background:new 0 0 150 150;" xml:space="preserve">
<g>
	<path d="M4.17,85.23c0.28,1.828,1.206,3.591,2.039,5.291c1.031,2.104,2.118,4.207,3.428,6.143c1.392,2.056,3.074,3.916,4.629,5.861
		c0.152-0.073,0.304-0.145,0.457-0.217c0.16-0.508,0.321-1.017,0.481-1.525l0.22,0.302c0.706-0.584,1.543-1.067,2.092-1.773
		c1.348-1.733,2.517-3.605,3.844-5.355c1.548-2.042,3.186-4.016,4.785-6.019c0.216,0.08,0.431,0.159,0.647,0.239
		c-0.095,0.563-0.078,1.179-0.311,1.678c-0.353,0.752-0.884,1.419-1.333,2.127c-1.104,1.739-2.263,3.447-3.291,5.23
		c-0.848,1.472-1.544,3.031-2.294,4.558c-0.321,0.654-0.786,1.302-0.877,1.994c-0.348,2.653,1.366,5.193,3.914,6.238
		c1.821,0.747,3.547,1.724,5.362,2.487c1.036,0.436,2.149,0.735,3.255,0.945c1.124,0.213,2.255,0.388,3.387,0.563
		c1.495,1.034,3.292,1.639,5.181,1.652c1.181,0.009,2.364-0.006,3.549-0.033c0.818,0.167,1.636,0.333,2.456,0.494
		c0.394,0.078,0.801,0.126,1.202,0.127c5.165,0.011,10.335,0.153,15.49-0.06c1.917-0.079,3.8-0.997,5.698-1.532
		c0.194-0.055,0.387-0.131,0.584-0.15c3.456-0.331,6.912-0.666,10.37-0.97c0.703-0.062,1.437,0.102,2.122-0.023
		c1.087-0.2,2.129-0.662,3.219-0.817c1.196-0.17,2.632,0.264,3.587-0.256c1.358-0.739,2.712-0.5,4.042-0.791
		c1.718-0.376,3.371-1.045,5.052-1.588c0.096-0.031,0.188-0.075,0.286-0.095c1.613-0.341,3.238-0.633,4.835-1.036
		c0.839-0.212,1.643-0.584,2.437-0.942c0.244-0.11,0.486-0.224,0.729-0.336c0.085-0.029,0.171-0.056,0.256-0.086
		c3.325-1.155,6.534-2.407,9.29-4.342c0.487-0.236,0.972-0.476,1.452-0.725c0.928-0.483,1.663-1.324,2.553-1.897
		c0.941-0.605,1.971-1.071,2.947-1.624c0.827-0.469,1.619-0.999,2.45-1.46c0.726-0.403,1.448-0.893,2.235-1.09
		c2.406-0.6,4.037-2.463,6.12-3.567c0.315-0.167,0.645-0.306,0.98-0.436c1.008-0.038,2.016-0.075,3.024-0.112
		c2.723-0.101,5-2.198,5-5c0-2.649-2.275-5.101-5-5c-0.339,0.013-0.678,0.025-1.017,0.038c-0.761-0.604-1.755-0.989-2.985-1.011
		c-1.154-0.021-2.266-0.148-3.351-0.358c-0.177-0.762-0.281-1.552-0.325-2.362c-0.091-1.678-1.148-2.919-2.208-3.769
		c-1.416-1.137-1.611-2.741-2.382-4.098c-1.036-1.826-1.854-3.782-2.689-5.715c-0.69-1.598-1.185-3.283-1.918-4.859
		c-0.895-1.925-1.907-3.799-2.944-5.653c-1.156-2.065-2.17-4.272-3.667-6.066c-1.456-1.745-2.713-3.686-4.621-5.1
		c-1.882-1.395-3.778-2.619-5.853-3.746c-2.426-1.317-5.046-2.053-7.482-3.27c-1.562-0.781-3.59-0.573-5.271-1.188
		c-2.51-0.919-5.293-0.26-7.585-1.143c-1.955-0.753-3.341,0.203-4.98,0.203c-5.013,0.001-10.035-0.07-15.035,0.216
		c-2.479,0.142-4.903,1.08-7.377,1.512c-1.282,0.224-2.635,0.023-3.929,0.203c-2.492,0.347-5.016,0.606-7.362,1.64
		c-0.134,0.059-0.299,0.046-0.449,0.067c-2.486,0.346-4.981,0.635-7.453,1.061c-1.226,0.211-2.405,0.685-3.611,1.018
		c-0.941,0.26-1.887,0.656-2.841,0.689c-1.75,0.06-3.209,0.698-4.644,1.62c-0.791,0.508-1.739,0.782-2.634,1.113
		c-1.686,0.623-3.383,1.215-5.079,1.81c-1.234,0.433-2.473,0.85-3.709,1.274c0.014,0.145,0.028,0.291,0.042,0.436
		c1.376,0.112,2.753,0.224,4.482,0.364c-0.458,0.363-0.581,0.539-0.732,0.568c-2.052,0.387-3.003,1.567-3.101,3.581
		c-0.098,2.025,0.604,3.705,1.806,5.265c2.134,2.77,4.219,5.577,6.357,8.343c0.901,1.165,1.672,2.653,2.875,3.315
		c2.389,1.315,2.336,4.27,4.554,5.605c-0.478,0.457-0.765,0.817-1.128,1.064c-1.201,0.817-2.452,0.279-2.573-1.16
		c-0.129-1.537-1.36-2.146-2.335-2.927c-2.255-1.805-4.59-3.51-6.879-5.272c-1.586-1.221-3.058-2.622-4.753-3.664
		c-1.495-0.919-3.204-1.513-4.865-2.126c-0.774-0.286-1.154,0.249-1.275,1.047c-0.273,1.798-0.52,3.609-0.961,5.368
		c-0.418,1.666-1.173,3.248-1.577,4.917c-0.232,0.958-0.148,2.02-0.058,3.022c0.187,2.074-0.507,4.249,0.677,6.216
		c0.07,0.116,0.104,0.365,0.035,0.438C2.502,82.345,3.956,83.831,4.17,85.23z"/>
</g>
</svg>
