<?xml version="1.0" encoding="iso-8859-1"?>
<!-- Generator: Adobe Illustrator 17.1.0, SVG Export Plug-In . SVG Version: 6.00 Build 0)  -->
<!DOCTYPE svg PUBLIC "-//W3C//DTD SVG 1.1//EN" "http://www.w3.org/Graphics/SVG/1.1/DTD/svg11.dtd">
<svg version="1.1" id="Capa_1" xmlns="http://www.w3.org/2000/svg" xmlns:xlink="http://www.w3.org/1999/xlink" x="0px" y="0px"
	 viewBox="0 0 150 150" style="enable-background:new 0 0 150 150;" xml:space="preserve">
<g>
	<path d="M146.316,78.638c-2.568-0.857-4.811-1.606-7.363-2.457c-0.524-0.175-0.721-0.702-0.442-1.179
		c1.617-2.755,3.2-5.453,4.904-8.358c0.279-0.476,0.115-1.08-0.365-1.354c-1.093-0.625-2.244-1.302-3.444-1.875
		c-6.109-2.917-12.163-5.969-18.39-8.608c-5.17-2.191-10.474-4.16-15.874-5.674c-3.128-0.877-5.482-2.243-7.664-4.634
		c-2.096-2.296-4.693-4.134-7.236-6.193c-0.429-0.348-1.076-0.305-1.449,0.102c-0.226,0.247-0.432,0.472-0.634,0.692
		c-0.373,0.407-1.067,0.523-1.551,0.257c-0.371-0.203-0.731-0.4-1.064-0.582c-0.485-0.265-1.306-0.353-1.84-0.21
		c-0.965,0.258-1.814,0.465-2.588,0.829c-0.826,0.388-1.576,0.939-2.505,1.581c-0.454,0.314-1.209,0.366-1.679,0.129
		s-1.228-0.188-1.691,0.112c-2.942,1.903-5.637,3.657-8.352,5.38c-0.649,0.412-1.391,0.675-2.08,1.027
		c-1.976,1.01-3.567,3.023-6.338,1.63c-1.024-0.515-2.774-0.307-3.894,0.214c-4.65,2.162-9.195,4.551-13.752,6.908
		c-0.715,0.37-1.663,0.886-1.866,1.535c-0.673,2.148-1.688,4.479-1.387,6.57c0.37,2.573,3.135,2.075,5.135,2.18
		c0.566,0.03,1.135-0.017,1.706-0.07c0.55-0.051,0.62,0.161,0.133,0.422c-2.636,1.408-5.453,1.637-8.075,0.048
		c-5.611-3.399-11.09-7.022-16.555-10.654c-3.434-2.282-6.769-4.712-10.127-7.085c-0.451-0.319-0.76-0.131-0.687,0.416
		c0.992,7.417,2.382,14.368,2.567,21.351c0.195,7.329-5.138,12.694-8.657,19.056c-0.267,0.483-0.023,0.892,0.529,0.886
		c6.211-0.074,11.666-2.01,17.033-4.301c1.228-0.524,2.475-1.063,3.585-1.79c8.43-5.521,17.153-4.619,26-1.268
		c0.156,0.059,0.282,0.194,0.495,0.415c0.25,0.259,0.021,0.528-0.523,0.623c-0.573,0.1-1.052,0.184-1.534,0.209
		c-3.999,0.208-5.621,1.776-5.752,5.618c-0.111,3.228,1.949,5.661,5.524,5.694c2.616,0.024,5.255-0.716,7.853-1.258
		c1.411-0.294,2.785-0.769,4.406-1.276c0.527-0.165,0.799,0.126,0.605,0.643c-0.045,0.121-0.088,0.234-0.129,0.342
		c-0.194,0.517-0.245,1.046-0.114,1.181s0.582-0.041,0.999-0.403c1.348-1.172,2.658-2.406,4.154-3.34
		c1.359-0.849,3.35-2.005,4.545-1.579c6.435,2.293,12.99,1.771,19.563,1.548c0.295-0.01,0.592,0.019,1.008,0.062
		c0.549,0.057,0.717,0.447,0.395,0.895c-0.446,0.621-0.796,1.135-1.268,1.484c-2.732,2.021-2.58,4.461-1.119,7.069
		c1.861,3.323,3.79,6.607,5.95,10.344c0.277,0.478,0.716,0.473,0.964-0.02c3.174-6.323,3.722-13.084,4.521-20.383
		c0.06-0.549,0.559-0.999,1.111-1.009c15.198-0.274,30.095-2.745,44.393-11.069C146.881,79.185,146.84,78.813,146.316,78.638z"/>
</g>
</svg>
