<?xml version="1.0" encoding="iso-8859-1"?>
<!-- Generator: Adobe Illustrator 17.1.0, SVG Export Plug-In . SVG Version: 6.00 Build 0)  -->
<!DOCTYPE svg PUBLIC "-//W3C//DTD SVG 1.1//EN" "http://www.w3.org/Graphics/SVG/1.1/DTD/svg11.dtd">
<svg version="1.1" id="Capa_1" xmlns="http://www.w3.org/2000/svg" xmlns:xlink="http://www.w3.org/1999/xlink" x="0px" y="0px"
	 viewBox="0 0 150 150" style="enable-background:new 0 0 150 150;" xml:space="preserve">
<g>
	<path d="M6.247,93.259c3.174-1.179,6.455-2.147,9.456-3.669c5.242-2.657,10.325-5.64,15.4-8.615
		c2.615-1.533,5.107-2.519,7.892-0.491c0.364,0.266,0.956,0.542,1.325,0.429c4.094-1.249,6.479,2.699,10.067,3.254
		c3.51,0.543,6.856,2.105,10.298,3.142c2.68,0.808,4.236,2.369,4.022,5.577c-0.018,0.276,0.133,0.363,0.359,0.205
		c0.784-0.547,1.411-0.897,1.834-1.414c3.165-3.865,7.215-4.47,11.984-4.1c8.9,0.69,17.84,0.882,26.805,1.27
		c0.276,0.012,0.355,0.192,0.176,0.402c-0.238,0.279-0.525,0.615-0.837,0.981c-0.179,0.21-0.244,0.591-0.146,0.849
		c1.003,2.622,2.016,5.271,3.03,7.921c0.099,0.258,0.402,0.487,0.677,0.513c0.001,0,0.003,0,0.004,0
		c0.275,0.026,0.549-0.171,0.613-0.44c0.706-2.982,1.514-5.947,2.018-8.963c0.237-1.419,0.509-2.283,2.082-2.419
		c8.576-0.743,16.76-3.066,24.771-6.129c1.757-0.672,3.632-1.033,5.846-1.61c0.267-0.07,0.321-0.282,0.113-0.463
		c-1.341-1.168-2.753-1.968-2.938-2.99c-0.177-0.983,0.895-2.19,1.74-3.63c0.14-0.238,0.026-0.484-0.244-0.545
		c-6.136-1.383-12.079-2.942-18.112-3.98c-7.102-1.221-14.288-1.951-21.436-2.904c-0.75-0.1-1.572-0.098-2.225-0.418
		c-3.328-1.635-6.687-1.961-10.348-1.152c-1.051,0.232-2.658-0.864-3.639-1.757c-1.753-1.597-3.272-3.451-4.946-5.307
		c-0.185-0.205-0.453-0.178-0.604,0.053c-3.455,5.288-8.513,7.006-13.655,8.508c-7.539,2.203-15.034,4.665-22.707,6.239
		c-3.078,0.631-6.316,1.452-9.365,1.527c-2.364,0.058-4.848-2.215-7.173-3.626c-4.774-2.898-9.388-6.07-14.246-8.816
		c-2.445-1.382-5.221-2.177-8.052-2.797c-0.27-0.059-0.323,0.042-0.115,0.225c3.63,3.208,7.307,6.367,10.856,9.663
		c1.656,1.538,3.17,3.273,4.515,5.091c1.726,2.333,1.4,4.683-0.739,6.626c-4.146,3.765-8.35,7.466-12.547,11.174
		c-0.708,0.625-1.473,1.186-2.224,1.762c-0.219,0.168-0.318,0.461-0.223,0.652C5.702,93.28,5.988,93.355,6.247,93.259z"/>
</g>
</svg>
