<?xml version="1.0" encoding="iso-8859-1"?>
<!-- Generator: Adobe Illustrator 17.1.0, SVG Export Plug-In . SVG Version: 6.00 Build 0)  -->
<!DOCTYPE svg PUBLIC "-//W3C//DTD SVG 1.1//EN" "http://www.w3.org/Graphics/SVG/1.1/DTD/svg11.dtd">
<svg version="1.1" id="Capa_1" xmlns="http://www.w3.org/2000/svg" xmlns:xlink="http://www.w3.org/1999/xlink" x="0px" y="0px"
	 viewBox="0 0 150 150" style="enable-background:new 0 0 150 150;" xml:space="preserve">
<g>
	<path d="M146.049,77.59c-0.259-0.107-0.517-0.217-0.774-0.327c-0.881-0.375-1.792-0.762-2.726-1.041
		c-3.578-1.068-7.315-1.355-10.93-1.632c-1.197-0.092-2.435-0.187-3.647-0.309c-1.578-0.159-3.158-0.296-4.739-0.433
		c-3.318-0.287-6.75-0.583-10.088-1.092c-3.154-0.48-6.462-1.13-9.185-3.297c-0.039-0.031-0.061-0.07-0.06-0.108
		s0.022-0.076,0.062-0.106c0.124-0.095,0.25-0.188,0.375-0.28c0.929-0.687,1.89-1.396,2.054-2.804
		c0.138-1.194-0.336-1.896-1.495-2.208c-6.705-1.813-13.889-2.732-21.354-2.732c-2.166,0-4.404,0.077-6.652,0.228
		c-1.233,0.083-2.483,0.134-3.807,0.188L71.536,61.7c-0.054,0-0.101-0.019-0.133-0.054c-0.032-0.035-0.046-0.082-0.042-0.135
		l0.054-0.589c0.078-0.812,0.151-1.579,0.086-2.355c-0.075-0.91-0.363-1.861-0.81-2.677c-0.378-0.689-0.877-1.314-1.361-1.918
		l-0.328-0.412c-0.214-0.272-0.632-0.477-0.973-0.477c-0.272,0-0.724,0.04-1.01,0.105c-4.284,0.995-6.903,4.103-8.899,7.012
		c-1.296,1.887-2.778,3.063-4.808,3.812c-1.663,0.614-3.308,1.35-4.898,2.062c-1.293,0.579-2.63,1.178-3.966,1.705
		c-1.936,0.764-4.052,1.454-6.469,2.108l-0.062,0.017c-2.366,0.641-4.812,1.304-6.812,2.977c-0.237,0.199-0.489,0.328-0.664,0.328
		c0,0-0.001,0-0.002,0c-1.503-0.147-2.609,0.408-3.304,1.657c-0.061,0.111-0.1,0.099-0.147,0.046
		c-0.96-1.064-1.209-2.349-1.473-3.709l-0.073-0.372c-0.068-0.349-0.253-0.401-0.357-0.401c-0.121,0-0.281,0.065-0.362,0.377
		c-0.54,2.085-0.03,3.792,2.022,6.766c0.095,0.138,0.104,0.394,0.018,0.537l-0.422,0.714c-0.531,0.902-1.08,1.835-1.702,2.693
		c-0.354,0.488-0.926,0.959-1.749,1.441c-1.117,0.654-2.247,1.285-3.378,1.915c-1.396,0.778-2.839,1.583-4.232,2.422
		c-1.627,0.979-3.259,2.009-4.837,3.004c-1.521,0.959-3.093,1.951-4.657,2.896c-0.418,0.252-0.891,0.418-1.391,0.594
		c-0.221,0.078-0.442,0.155-0.661,0.241c-0.312,0.123-0.35,0.293-0.327,0.415c0.019,0.098,0.1,0.262,0.462,0.262c0,0,0,0,0.001,0
		c1.577-0.033,3.119-0.481,4.584-1.333c2.192-1.275,4.403-2.603,6.541-3.885c1.507-0.905,3.015-1.81,4.528-2.704
		c2.705-1.601,4.734-1.477,7.041,0.535c0.04,0.034,0.06,0.076,0.06,0.121c0,0.047-0.025,0.094-0.069,0.13l-8.639,7.182
		c-0.264,0.219-0.225,0.43-0.196,0.51c0.028,0.079,0.128,0.261,0.471,0.261c0,0,0,0,0,0c0.901-0.02,1.654-0.367,2.519-1.16
		c0.519-0.477,1.025-0.967,1.531-1.458c0.749-0.727,1.523-1.478,2.326-2.164c0.625-0.534,1.397-0.941,2.144-1.334l0.244-0.129
		c0.664-0.351,1.223-0.276,1.731,0.243c0.096,0.098,0.106,0.338,0.021,0.474c-0.267,0.424-0.545,0.844-0.824,1.265
		c-1.14,1.72-2.318,3.499-2.749,5.656c-0.028,0.14-0.044,0.298,0.049,0.412c0.047,0.058,0.136,0.1,0.21,0.1
		c0.173,0,0.276-0.147,0.355-0.292l0.481-0.889c0.596-1.102,1.212-2.24,1.843-3.344c0.279-0.487,0.642-0.977,1.109-1.498
		c0.557-0.621,0.795-0.873,1.074-0.873c0.217,0,0.52,0.132,1.003,0.376c0.115,0.058,0.161,0.199,0.103,0.315l-3.06,6.083
		c-0.306,0.608-0.144,0.743-0.076,0.8c0.045,0.038,0.12,0.064,0.179,0.064c0.061,0,0.221,0,0.562-0.411
		c0.225-0.271,0.458-0.551,0.648-0.86l0.477-0.765c0.685-1.093,1.393-2.224,1.996-3.39c0.408-0.79,0.816-0.891,1.126-0.891
		c0.164,0,0.344,0.033,0.549,0.1c0.06,0.02,0.091,0.064,0.106,0.099c0.025,0.057,0.025,0.125-0.001,0.184l-0.086,0.189
		c-0.103,0.22-0.308,0.578-0.458,0.798c-1.786,2.606-4.078,5.416-7.529,6.49c-0.358,0.111-0.561,0.439-0.503,0.816
		c0.068,0.448,0.479,0.723,0.908,0.591c4.021-1.251,6.628-4.507,8.846-7.839c0.144-0.217,0.395-0.513,0.574-0.636
		c0.698-0.477,1.403-0.517,2.821-0.157c0.201,0.051,0.499,0.403,0.626,0.739c1.467,3.864,3.293,7.491,5.43,10.78
		c2.532,3.9,5.49,6.606,9.042,8.271c0.115,0.053,0.232,0.1,0.357,0.135c0.051,0.014,0.097,0.021,0.14,0.021
		c0.108,0,0.253-0.093,0.287-0.195c0.079-0.24-0.178-0.431-0.263-0.493c-5.591-4.155-9.642-9.498-12.039-15.882
		c-0.438-1.168-0.737-2.375-0.995-3.506c-0.008-0.035-0.012-0.064-0.013-0.088l0.141,0.029c0.09,0.019,0.18,0.034,0.271,0.044
		c0.113,0.013,0.233,0.029,0.272,0.04c0.052,0.019,0.104,0.031,0.154,0.035c3.681,0.267,6.939,0.449,9.963,0.555l0.088,0.001
		c0.499,0,0.991-0.146,1.467-0.289c0.241-0.072,0.482-0.144,0.723-0.195c1.098-0.236,2.196-0.466,3.295-0.696l0.673-0.141
		c0.386-0.081,0.78-0.122,1.172-0.122c1.453,0,2.81,0.551,4.306,1.217c1.26,0.561,2.61,0.955,3.916,1.337
		c0.771,0.225,1.568,0.458,2.335,0.722c0.363,0.125,0.764,0.486,0.842,0.758c0.306,1.071,0.546,2.187,0.778,3.265l0.166,0.766
		c0.032,0.147,0.16,0.633,0.463,0.697c0.016,0.003,0.045,0.006,0.062,0.006c0.328,0,0.473-0.479,0.509-0.625l0.175-0.69
		c0.229-0.893,0.465-1.816,0.608-2.745c0.125-0.81,0.272-1.201,1.084-1.285c0.503-0.052,0.992-0.227,1.51-0.413l0.325-0.115
		c0.212-0.074,0.348-0.217,0.374-0.393c0.026-0.175-0.062-0.35-0.243-0.48c-0.96-0.695-1.954-1.415-3.271-1.415
		c-0.135,0-0.274,0.008-0.448,0.025c-0.2,0-0.509-0.154-0.625-0.311c-0.874-1.195-1.712-2.401-2.599-3.678l-0.588-0.846
		c-0.031-0.044-0.042-0.089-0.031-0.13s0.044-0.075,0.093-0.098l0.629-0.293c0.996-0.465,2.026-0.945,3.055-1.369
		c0.069-0.029,0.48,0.038,0.761,0.211c3.643,2.248,7.917,3.946,13.45,5.342c1.03,0.26,2.09,0.392,3.15,0.392
		c1.635,0,3.19-0.31,4.622-0.921c1.303-0.557,2.65-1.077,3.954-1.58c1.442-0.557,2.933-1.133,4.375-1.762
		c1.633-0.71,2.917-1.771,3.925-3.24c0.069-0.102,0.198-0.124,0.301-0.053l0.111,0.077c0.365,0.252,0.741,0.512,0.958,0.845
		c1.2,1.84,2.395,3.729,3.55,5.556c1.144,1.808,2.326,3.677,3.514,5.501c1.527,2.343,3.178,4.746,5.048,7.346
		c1.617,2.248,3.889,3.755,6.293,5.352l0.17,0.113c0.133,0.088,0.227,0.125,0.315,0.125c0.096,0,0.206-0.066,0.248-0.152
		c0.087-0.18-0.05-0.355-0.124-0.449c-0.528-0.674-1.048-1.332-1.56-1.979c-1.442-1.824-2.804-3.546-4.098-5.329
		c-0.76-1.047-1.452-2.298-2.177-3.937c-1.338-3.03-0.127-4.271,2.741-5.622c0.273-0.128,0.55-0.253,0.827-0.377
		c0.952-0.428,1.936-0.87,2.781-1.493c0.68-0.502,1.283-1.113,1.866-1.705c0.497-0.504,1.011-1.026,1.564-1.468
		c0.808-0.646,1.715-1.206,2.593-1.748c0.368-0.227,0.736-0.455,1.098-0.688c0.013-0.007,0.056-0.016,0.084-0.022
		c0.077-0.016,0.173-0.036,0.262-0.098c0.538-0.369,1.08-0.733,1.622-1.098c1.443-0.971,2.935-1.975,4.337-3.053
		c0.78-0.6,1.448-0.946,2.407-0.91c0.557,0.028,1.157,0.041,1.888,0.041c0.462,0,0.925-0.005,1.387-0.01l0.9-0.008
		c0.308-0.002,0.696-0.102,0.777-0.373C146.671,77.969,146.351,77.716,146.049,77.59z M69.129,92.377
		c-0.001,0.002-0.017,0.018-0.062,0.024c-0.233,0.037-0.46,0.056-0.675,0.056c-1.733,0-2.636-1.144-3.722-2.76
		c-0.072-0.107-0.044-0.254,0.063-0.327l1.406-0.965c0.039-0.026,0.084-0.041,0.131-0.041c0.077,0,0.149,0.038,0.192,0.101
		l2.637,3.833C69.132,92.344,69.131,92.373,69.129,92.377z"/>
</g>
</svg>
