<?xml version="1.0" encoding="iso-8859-1"?>
<!-- Generator: Adobe Illustrator 16.0.4, SVG Export Plug-In . SVG Version: 6.00 Build 0)  -->
<!DOCTYPE svg PUBLIC "-//W3C//DTD SVG 1.1//EN" "http://www.w3.org/Graphics/SVG/1.1/DTD/svg11.dtd">
<svg version="1.1" id="Capa_1" xmlns="http://www.w3.org/2000/svg" xmlns:xlink="http://www.w3.org/1999/xlink" x="0px" y="0px"
	 width="20px" height="20px" viewBox="0 0 20 20" style="enable-background:new 0 0 20 20;" xml:space="preserve">
<path style="fill:#010002;" d="M16.838,10.338c0,0.188-0.152,0.34-0.34,0.34s-0.34-0.152-0.34-0.34c0-0.189,0.152-0.34,0.34-0.34
	S16.838,10.148,16.838,10.338z M20,4v12c0,2.2-1.8,4-4,4H4c-2.2,0-4-1.8-4-4V4c0-2.2,1.8-4,4-4h12C18.2,0,20,1.8,20,4z
	 M17.863,10.607c0.011-0.096-0.048-0.197-0.223-0.311c-0.161-0.104-0.327-0.205-0.488-0.307c-0.352-0.225-0.724-0.432-1.077-0.676
	c-1.028-0.713-2.248-0.969-3.467-1.133c-0.5-0.064-1.059-0.037-1.479-0.346c-0.324-0.24-0.89-1.064-1.508-1.422
	c-0.107-0.064-0.61-0.318-0.61-0.318s0.288,0.781,0.354,0.938c0.153,0.363-0.084,0.674-0.183,1.02
	C9.118,8.281,9.653,8.23,9.68,8.443C9.72,8.76,8.768,8.869,8.23,8.977C7.425,9.135,6.488,9.436,5.686,9.172
	C4.738,8.867,4.063,8.264,3.383,7.58c0.316,1.48,1.196,2.332,1.235,2.512c0.041,0.199-0.101,0.24-0.229,0.369
	c-0.283,0.279-1.52,1.703-1.524,2.152c0.355-0.053,0.783-0.365,1.095-0.547c0.348-0.199,1.673-1.18,2.044-1.334
	c0.084-0.035,1.112-0.336,1.121-0.205c0.015,0.205-0.068,0.25-0.041,0.336c0.05,0.164,0.317,0.324,0.445,0.436
	c0.332,0.287,0.706,0.537,0.94,0.916c0.328,0.529,0.343,1.1,0.436,1.689c0.219-0.025,0.442-0.479,0.562-0.658
	c0.113-0.17,0.525-0.896,0.681-0.943c0.148-0.045,0.606,0.211,0.77,0.26c0.63,0.186,1.242,0.297,1.884,0.297
	c0.771,0.002,2.798,0.057,4.301-1.055c0.166-0.123,0.562-0.598,0.562-0.598s-0.083-0.127-0.232-0.174
	C17.631,10.902,17.845,10.766,17.863,10.607z"/>
<g>
</g>
<g>
</g>
<g>
</g>
<g>
</g>
<g>
</g>
<g>
</g>
<g>
</g>
<g>
</g>
<g>
</g>
<g>
</g>
<g>
</g>
<g>
</g>
<g>
</g>
<g>
</g>
<g>
</g>
</svg>
