<?xml version="1.0" encoding="iso-8859-1"?>
<!-- Generator: Adobe Illustrator 17.1.0, SVG Export Plug-In . SVG Version: 6.00 Build 0)  -->
<!DOCTYPE svg PUBLIC "-//W3C//DTD SVG 1.1//EN" "http://www.w3.org/Graphics/SVG/1.1/DTD/svg11.dtd">
<svg version="1.1" id="Capa_1" xmlns="http://www.w3.org/2000/svg" xmlns:xlink="http://www.w3.org/1999/xlink" x="0px" y="0px"
	 viewBox="0 0 150 150" style="enable-background:new 0 0 150 150;" xml:space="preserve">
<g>
	<path d="M1.759,68.539c0.745,1.004,0.733,1.857,0.023,1.749C1.47,71.339,4.47,71.73,1.833,73.01
		c0.767,0.358,1.378,0.643,2.081,0.97c0.08,0.107,0.165,0.211,0.26,0.306c0.006,0.006,0.013,0.011,0.019,0.016
		c-0.612,0.061-1.052,0.105-1.534,0.153c-0.053,0.602,0.85,1.26-0.127,1.695c0.165,0.316,0.26,0.716,0.513,0.924
		c0.249,0.205,0.658,0.214,1.03,0.318c-0.812,0.876-0.375,2.331,0.889,3.434c0.495,0.431,0.883,0.983,1.329,1.472
		c0.15,0.164,0.313,0.323,0.495,0.45c2.418,1.689,5.034,2.668,8.054,2.434c1.149-0.089,2.325,0.184,3.477,0.107
		c2.092-0.139,4.215-0.236,6.254-0.677c3.502-0.758,6.925-1.883,10.43-2.621c1.817-0.382,3.738-0.286,5.614-0.358
		c0.574-0.022,1.154,0.112,1.732,0.175c-0.045-0.118-0.091-0.235-0.136-0.353c0.294-0.209,0.606-0.615,0.878-0.59
		c0.925,0.086,1.832,0.353,2.754,0.497c1.604,0.252,3.214,0.464,4.822,0.694c-3.218,1.747-6.695,2.714-10.285,3.232
		c-1.753,0.253-3.553,0.171-5.329,0.284c-1.833,0.116-3.376,1.074-4.954,1.878c-0.158,0.08-0.062,1.211,0.083,1.251
		c1.767,0.491,3.112,2.304,5.279,1.617c-0.204,0.377-0.358,0.663-0.423,0.783c0.809,0.686,1.495,1.326,2.249,1.873
		c0.241,0.175,0.668,0.178,0.994,0.135c0.523-0.069,1.032-0.241,1.524-0.363c0.525,1.016,2.903,1.725,4.469,1.399
		c0.818-0.171,1.633-0.361,2.817-0.625c-0.569,0.688-0.898,1.086-1.434,1.733c2.985-0.128,5.698,1.095,8.395-0.246
		c0.731-0.363,1.238,0.017,1.947,0.308c1.776,0.731,3.682,0.502,5.452-0.365c0.482-0.236,0.955-0.493,1.447-0.705
		c0.194-0.084,0.491-0.173,0.638-0.086c1.725,1.03,3.466,0.762,5.06-0.143c2.475-1.405,4.855-2.977,7.266-4.493
		c0.908-0.571,1.855-1.105,2.668-1.795c0.618-0.525,1.15-1.15,1.647-1.831c5.859,0.881,11.824,0.877,17.695,0.006
		c0.646,0.004,1.293,0.005,1.94,0.001c-0.082,0.105-0.161,0.211-0.24,0.317c-1.146,0.391-2.601,0.473-3.504,0.796
		c-0.564,0.201-1.116,0.422-1.658,0.661c-1.636,0.326-3.743,1.443-4.524,2.631c0.113-0.046,0.23-0.094,0.345-0.141
		c-0.362,0.36-0.615,0.795-0.717,1.262c-0.213,0.307-0.335,0.629-0.383,0.949c-0.807,0.856-1.494,1.849-2.028,3.01
		c-0.343,0.744-0.595,1.546-0.757,2.348c-0.049,0.243,0.345,0.576,0.614,0.987c-0.222,0.32-0.546,0.788-0.953,1.376h1.035
		c0.022,0.095,0.086,0.212,0.054,0.253c-0.722,0.91-0.723,1.651,0.4,2.266c0.166,0.091,0.104,0.599,0.15,0.937
		c1.169,0.332,2.489,0.707,3.895,1.107c-0.245,0.282,0.968,0.37,1.815-0.145c0.046,0.047,0.091,0.093,0.137,0.14
		c-0.302,0.317-0.604,0.634-1.072,1.127c0.968-0.163,1.851-0.104,2.497-0.467c1.175-0.66,2.32-0.317,3.5-0.308
		c0.794,0.006,1.59-0.229,2.384-0.364c1.687-0.287,3.386-0.517,5.055-0.885c2.079-0.459,4.132-1.034,6.196-1.563
		c0.25-0.064,0.49-0.216,0.738-0.224c1.164-0.037,1.891-0.679,2.387-1.657c0.338-0.667,0.657-1.343,0.985-2.015l0.336,0.118
		c-0.217,0.685-0.434,1.37-0.651,2.055c0.073,0.042,0.146,0.084,0.219,0.126c0.144-0.136,0.362-0.245,0.42-0.411
		c0.61-1.746,2.023-2.677,3.477-3.638c2.308-1.526,2.137-6.172-0.463-7.635c-1.406-0.791-1.933-2.125-2.937-3.13
		c-0.097-0.097-0.189-0.195-0.28-0.291c6.762-0.558,13.445-2.048,19.798-4.442c0.029-0.011,0.057-0.024,0.086-0.036
		c0.835-0.049,1.553-0.347,2.214-1.1c1.56-1.776,3.639-2.633,5.986-2.476c1.244,0.083,1.994-0.168,2.263-1.513
		c-2.128-1.292-4.17-0.744-6.249,0.442c0.691-1.689,5.089-2.598,6.88-1.75c0.076,0.122,0.197,0.182,0.322,0.194
		c0.071,0.055,0.201,0.038,0.204-0.024c0.058-0.02,0.109-0.052,0.151-0.092c0.175-0.025,0.325-0.152,0.306-0.383
		c-0.247-2.93-1.745-5.539-4.12-7.191c-0.142-0.24-0.318-0.468-0.486-0.619c-1.162-1.046-2.428-1.98-3.904-3.149
		c-0.35-0.619-0.802-1.175-1.354-1.638c-0.027-0.706-0.48-1.158-1.093-1.439c-1.652-0.759-3.332-1.557-5.087-1.954
		c-1-0.226-2.173,0.304-3.266,0.505c-1.037,0.19-2.088,0.624-3.103,0.548c-2.95-0.221-5.879-0.695-8.827-0.961
		c-1.157-0.105-1.57-0.543-1.514-1.688c0.083-1.701,0.124-3.412,0.042-5.112c-0.147-3.057-1.374-5.747-3.061-8.246
		c-0.139-0.205-0.445-0.477-0.626-0.445c-2.657,0.468-4.845-1.1-7.258-1.666c-0.776-0.182-1.27-0.129-1.931,0.353
		c-1.917,1.396-3.917,2.679-5.906,3.972c-0.366,0.238-0.827,0.426-1.255,0.453c-1.023,0.062-0.959,0.569-0.988,1.427
		c-0.042,1.236-0.558,2.45-0.775,3.691c-0.079,0.455-0.059,1.142,0.218,1.406c0.999,0.949,2.124,1.764,3.205,2.626
		c0.395,0.315,0.799,0.619,1.199,0.928l-0.104,0.428c-1.262,0-2.534-0.104-3.783,0.021c-2.822,0.282-4.696-0.667-5.629-3.514
		c-1.08-3.295-3.368-5.847-5.699-8.324c-1.056-1.122-2.127-2.24-3.289-3.249c-1.566-1.36-1.624-1.329-4.824-1.214
		c-0.451-0.442-1.081-0.731-1.899-0.731c-0.83,0-1.468,0.294-1.92,0.745c-0.5-0.12-1.048-0.079-1.696,0.238
		c-0.705,0.345-1.68,0.107-2.522,0.213c-0.156,0.02-0.308,0.068-0.459,0.127c-0.389,0.022-0.767,0.124-1.112,0.298
		c-2.133-0.611-4.056,0.963-6.17,0.667c-0.333-0.047-0.722,0.297-1.085,0.461c0.279,0.346,0.489,0.817,0.85,1.014
		c0.221,0.121,0.13,0.423-0.14,0.461c-1.169-0.663-2.242-1.228-3.782-0.633c-1.381,0.534-2.996,0.443-4.493,0.711
		c-0.458,0.082-0.869,0.433-1.276,0.727c-2.642,0.996-5.549,1.249-7.884,3.124c-0.471,0.378-1.06,0.709-1.643,0.828
		c-1.157,0.237-2.145,0.487-2.959,1.56c-0.643,0.847-1.812,1.294-2.744,1.925c-0.36,0.244-0.709,0.504-1.181,0.841
		c0.642,0.036,1.259,0.104,1.859,0.196c-0.075,0.31-1.278,0.751-1.922,0.639c1.165,1.363,2.467,2.335,3.549,2.782
		c0.35,0.57,0.49,1.302,0.051,1.221c-0.027,0.11-0.053,0.22-0.08,0.331c3.999,2.423,8.845,2.364,13.422,4.149
		c-0.618,0.335-0.862,0.546-1.138,0.605c-5.583,1.19-11.129,2.051-16.577-0.705c-1.781-0.901-3.783-1.356-5.614-2.171
		c-1.067-0.475-1.936-1.392-3.001-1.875c-1.25-0.566-2.635-1.252-3.929-1.191c-1.269,0.06-2.023-0.562-3.02-0.933
		c-1.493-0.556-3.102-0.978-4.681-1.058C10.902,54.782,9.931,55.491,9,55.903c-0.369,0.163-0.686,0.444-1.059,0.692
		c-0.016,0.324-0.034,0.714-0.053,1.094c-2.06,0.247-2.153,0.331-1.821,1.609c-0.529,0.111-1.059,0.222-1.733,0.363
		c0.216,0.322,0.301,0.464,0.401,0.594c0.229,0.296,0.467,0.586,0.701,0.878c-0.333,0.127-0.659,0.286-1.003,0.377
		c-1.307,0.343-0.475,1.122-0.297,1.833c-0.413,0.195-0.797,0.376-1.293,0.61c0.785,0.711,1.057,1.375-0.133,1.964
		c-0.676,0.335-0.51,0.839,0.016,1.272C3.22,67.594,1.759,68.539,1.759,68.539z"/>
</g>
</svg>
