<?xml version="1.0" encoding="iso-8859-1"?>
<!-- Generator: Adobe Illustrator 17.0.2, SVG Export Plug-In . SVG Version: 6.00 Build 0)  -->
<!DOCTYPE svg PUBLIC "-//W3C//DTD SVG 1.1//EN" "http://www.w3.org/Graphics/SVG/1.1/DTD/svg11.dtd">
<svg version="1.1" id="Capa_1" xmlns="http://www.w3.org/2000/svg" xmlns:xlink="http://www.w3.org/1999/xlink" x="0px" y="0px"
	 width="64px" height="64px" viewBox="0 0 64 64" style="enable-background:new 0 0 64 64;" xml:space="preserve">
<g>
	<path d="M5.446,48.36c0,1.092,0.884,1.975,1.975,1.975h45.757c1.091,0,1.975-0.883,1.975-1.975v-1.974
		c0-1.091-0.884-1.975-1.975-1.975h-2.641c0-11.177-9.06-20.237-20.237-20.237c-11.177,0-20.237,9.061-20.237,20.237H7.421
		c-1.091,0-1.975,0.884-1.975,1.975V48.36z"/>
	<path d="M31.287,22.009c1.01-0.396,1.727-1.372,1.727-2.523c0-1.498-1.215-2.714-2.714-2.714c-1.499,0-2.715,1.216-2.715,2.714
		c0,1.151,0.718,2.128,1.727,2.523v2.166H30.3h0.987V22.009z"/>
	<path d="M12.969,10.032c0.419-0.342,0.486-0.958,0.149-1.381c-0.339-0.429-0.962-0.497-1.387-0.158
		c-1.035,0.825-2.4,3.129-0.158,5.952c1.681,2.115-0.935,5.208-0.96,5.236c-0.357,0.413-0.312,1.035,0.1,1.393
		c0.187,0.161,0.417,0.241,0.646,0.241c0.276,0,0.551-0.114,0.747-0.339c0.152-0.179,3.713-4.361,1.014-7.76
		C11.622,11.331,12.727,10.235,12.969,10.032z"/>
	<path d="M21.607,10.032c0.418-0.342,0.486-0.958,0.149-1.381c-0.339-0.429-0.961-0.497-1.388-0.158
		c-1.035,0.825-2.4,3.129-0.158,5.952c1.681,2.115-0.935,5.208-0.96,5.236c-0.357,0.413-0.312,1.035,0.1,1.393
		c0.186,0.161,0.417,0.241,0.646,0.241c0.276,0,0.551-0.114,0.747-0.339c0.153-0.179,3.713-4.361,1.014-7.76
		C20.259,11.331,21.366,10.235,21.607,10.032z"/>
	<path d="M38.484,21.074c0.187,0.161,0.417,0.241,0.646,0.241c0.276,0,0.551-0.114,0.747-0.339c0.153-0.179,3.713-4.361,1.014-7.76
		c-1.497-1.886-0.392-2.981-0.15-3.185c0.419-0.342,0.487-0.958,0.149-1.381c-0.339-0.429-0.961-0.497-1.387-0.158
		c-1.035,0.825-2.4,3.129-0.158,5.952c1.681,2.115-0.935,5.208-0.96,5.236C38.028,20.095,38.072,20.717,38.484,21.074z"/>
	<path d="M49.379,10.032c0.419-0.342,0.487-0.958,0.149-1.381c-0.34-0.429-0.961-0.497-1.388-0.158
		c-1.035,0.825-2.399,3.129-0.158,5.952c1.681,2.115-0.935,5.208-0.96,5.236c-0.357,0.413-0.312,1.035,0.1,1.393
		c0.187,0.161,0.417,0.241,0.646,0.241c0.276,0,0.551-0.114,0.747-0.339c0.153-0.179,3.713-4.361,1.014-7.76
		C48.032,11.331,49.138,10.235,49.379,10.032z"/>
</g>
</svg>
