<?xml version="1.0" encoding="utf-8"?>
<!-- Generator: Adobe Illustrator 16.0.0, SVG Export Plug-In . SVG Version: 6.00 Build 0)  -->
<!DOCTYPE svg PUBLIC "-//W3C//DTD SVG 1.1//EN" "http://www.w3.org/Graphics/SVG/1.1/DTD/svg11.dtd">
<svg version="1.1" id="Layer_1" xmlns="http://www.w3.org/2000/svg" xmlns:xlink="http://www.w3.org/1999/xlink" x="0px" y="0px"
	 width="96px" height="96px" viewBox="0 0 96 96" enable-background="new 0 0 96 96" xml:space="preserve">
<path d="M79.182,90.388c-3-5.468-1.932-5.205-1.932-7.448c0,0,3.252-18.759,0-33.815c-3.9-18.058-0.838-34.808-0.838-34.808
	s0.75-4.438,2.613-8.613c2.539-5.695-8.59-2.41-11.789-2.41H28.764c-3.199,0-14.328-3.285-11.789,2.41
	c1.863,4.176,2.613,8.613,2.613,8.613s3.063,16.75-0.838,34.808c-3.252,15.057,0,33.815,0,33.815c0,2.243,1.068,1.98-1.932,7.448
	c-2.996,5.467,8.59,2.41,11.791,2.41h38.781C70.592,92.798,82.178,95.854,79.182,90.388z M63.498,49.622
	c-4.682,2.943-10.773,2.27-14.041,1.59c-0.041,8.668-2.566,10.982-2.34,15.732c-0.994,0.043-1.982,0.105-2.971,0.193
	c-0.236-4.85,2.314-8.654,2.33-15.922c-3.293,0.678-9.309,1.318-13.945-1.586c-6.729-4.217-8.006-14.305-8.006-14.305
	s9.635-3.252,16.363,0.963c2.84,1.779,4.705,4.604,5.92,7.271c0.092-2.719,0.139-5.352,0.066-7.871l2.975-0.088
	c0.063,2.154,0.041,4.42-0.025,6.721c1.197-2.271,2.898-4.52,5.289-6.025c6.723-4.229,16.361-0.994,16.361-0.994
	S70.217,45.394,63.498,49.622z"/>
</svg>
