<?xml version="1.0" encoding="iso-8859-1"?>
<!-- Generator: Adobe Illustrator 16.0.4, SVG Export Plug-In . SVG Version: 6.00 Build 0)  -->
<!DOCTYPE svg PUBLIC "-//W3C//DTD SVG 1.1//EN" "http://www.w3.org/Graphics/SVG/1.1/DTD/svg11.dtd">
<svg version="1.1" id="Capa_1" xmlns="http://www.w3.org/2000/svg" xmlns:xlink="http://www.w3.org/1999/xlink" x="0px" y="0px"
	 width="12.359px" height="15px" viewBox="0 0 12.359 15" style="enable-background:new 0 0 12.359 15;" xml:space="preserve">
<path style="fill:#010002;" d="M4.824,6.692c0.069,0.071,0.103,0.155,0.103,0.253c0,0.109-0.04,0.205-0.122,0.287
	C4.724,7.313,4.618,7.364,4.487,7.384V6.527C4.643,6.566,4.756,6.621,4.824,6.692z M3.772,5.43c0,0.077,0.029,0.15,0.084,0.216
	c0.057,0.068,0.141,0.121,0.253,0.162v-0.76C4.007,5.076,3.925,5.126,3.864,5.196C3.804,5.268,3.772,5.344,3.772,5.43z M6.13,0.013
	C5.151-0.095,4.809,0.506,4.32,0.53C3.827,0.506,3.488-0.095,2.508,0.013c-1,0.111-1.608,0.962-1.608,0.962L2.12,2.111h4.397
	l1.221-1.135C7.738,0.976,7.131,0.125,6.13,0.013z M2.838,9.293H1.646c-1.22,0-1.484-1.017-1.484-1.017
	c-0.8-3.523,1.63-5.435,1.63-5.435h5.057c0,0,0.959,0.756,1.473,2.191C7.983,5.426,7.672,5.886,7.412,6.413
	C7.168,6.91,6.996,7.41,6.889,7.889C5.655,7.93,3.754,8.149,2.838,9.293z M4.109,6.333v0.92c-0.093-0.038-0.179-0.1-0.255-0.184
	C3.777,6.984,3.727,6.883,3.698,6.767l-0.68,0.061C3.07,7.116,3.189,7.339,3.377,7.498C3.564,7.656,3.809,7.75,4.109,7.781v0.4
	h0.378v-0.41C4.825,7.729,5.09,7.618,5.28,7.437c0.19-0.182,0.285-0.405,0.285-0.669c0-0.238-0.075-0.433-0.228-0.584
	C5.188,6.031,4.904,5.908,4.487,5.812V4.954C4.656,5.015,4.76,5.133,4.8,5.306l0.659-0.073C5.414,5.014,5.31,4.838,5.146,4.707
	s-0.384-0.21-0.659-0.238V4.251H4.109v0.218C3.811,4.493,3.571,4.588,3.392,4.751c-0.181,0.163-0.27,0.365-0.27,0.604
	c0,0.238,0.079,0.439,0.238,0.606C3.52,6.127,3.769,6.252,4.109,6.333z M11.013,8.966c-0.097,0.155-0.201,0.296-0.305,0.437
	c0.55,0.231,0.894,0.522,0.894,0.844c0,0.742-1.76,1.344-3.93,1.344s-3.93-0.602-3.93-1.344c0-0.636,1.296-1.167,3.031-1.306
	c0.001-0.149,0.003-0.299,0.019-0.458c-2.213,0.104-3.898,0.669-3.898,2.414c0,1.958,2.12,4.104,4.733,4.104
	s4.732-2.145,4.732-4.104C12.359,9.934,11.844,9.332,11.013,8.966z M7.485,11.277l0.627-1.005l0,0
	c0.051-0.1-0.123-0.077-0.281-0.157l0,0C7.673,10.034,7.59,9.881,7.54,9.979l-0.442,1.133C7.043,11.22,7.368,11.508,7.485,11.277z
	 M7.814,8.575C7.21,7.82,7.558,7.296,7.558,7.296C7.358,7.442,6.693,9.268,7.51,9.685C7.877,9.872,8.493,9.422,7.814,8.575z
	 M8.434,7.36C7.829,6.606,8.179,6.081,8.179,6.081c-0.2,0.146-0.867,1.972-0.049,2.39C8.496,8.658,9.112,8.209,8.434,7.36z
	 M9.035,6.183C8.43,5.43,8.778,4.904,8.778,4.904C8.58,5.049,7.913,6.874,8.73,7.293C9.097,7.479,9.712,7.031,9.035,6.183z
	 M8.39,10.134c0.818,0.417,1.905-1.194,1.907-1.441c0,0-0.222,0.588-1.187,0.544C8.025,9.184,8.024,9.947,8.39,10.134z M9.009,8.919
	c0.817,0.418,1.906-1.194,1.908-1.441c0,0-0.223,0.591-1.187,0.544C8.645,7.971,8.643,8.732,9.009,8.919z M9.61,7.741
	c0.818,0.418,1.905-1.194,1.906-1.44c0,0-0.221,0.592-1.185,0.543C9.245,6.792,9.244,7.553,9.61,7.741z M9.693,6.634
	c0.868,0.442,0.896-1.874,0.896-1.874C10.39,4.878,8.825,6.191,9.693,6.634z"/>
<g>
</g>
<g>
</g>
<g>
</g>
<g>
</g>
<g>
</g>
<g>
</g>
<g>
</g>
<g>
</g>
<g>
</g>
<g>
</g>
<g>
</g>
<g>
</g>
<g>
</g>
<g>
</g>
<g>
</g>
</svg>
