<?xml version="1.0" encoding="iso-8859-1"?>
<!-- Generator: Adobe Illustrator 17.0.2, SVG Export Plug-In . SVG Version: 6.00 Build 0)  -->
<!DOCTYPE svg PUBLIC "-//W3C//DTD SVG 1.1//EN" "http://www.w3.org/Graphics/SVG/1.1/DTD/svg11.dtd">
<svg version="1.1" id="Layer_1" xmlns="http://www.w3.org/2000/svg" xmlns:xlink="http://www.w3.org/1999/xlink" x="0px" y="0px"
	 width="64px" height="64px" viewBox="0 0 64 64" style="enable-background:new 0 0 64 64;" xml:space="preserve">
<g>
	<path d="M57.5,50.375c0-0.828-0.672-1.5-1.5-1.5H8c-0.828,0-1.5,0.672-1.5,1.5s0.672,1.5,1.5,1.5h48
		C56.828,51.875,57.5,51.203,57.5,50.375z"/>
	<path d="M4.625,45c0,1.379,1.121,2.5,2.5,2.5h49.75c1.379,0,2.5-1.121,2.5-2.5v-2.25c0-1.379-1.121-2.5-2.5-2.5h-0.982
		c-1.57-10.455-9.811-18.694-20.268-20.267v-0.816h2.042c1.379,0,2.5-1.121,2.5-2.5v-1.452c0-1.379-1.121-2.5-2.5-2.5H26.333
		c-1.379,0-2.5,1.121-2.5,2.5v1.452c0,1.379,1.121,2.5,2.5,2.5h2.042v0.816C17.918,21.556,9.678,29.795,8.107,40.25H7.125
		c-1.379,0-2.5,1.121-2.5,2.5V45z M7.625,43.25h1.811c0.774,0,1.422-0.59,1.493-1.361c0.94-10.116,8.967-18.143,19.085-19.084
		c0.771-0.071,1.361-0.719,1.361-1.493v-3.645c0-0.828-0.672-1.5-1.5-1.5h-3.042v-0.452h10.334v0.452h-3.042
		c-0.828,0-1.5,0.672-1.5,1.5v3.645c0,0.774,0.59,1.422,1.361,1.493c10.118,0.941,18.145,8.968,19.085,19.084
		c0.071,0.771,0.719,1.361,1.493,1.361h1.811v1.25H7.625V43.25z"/>
</g>
</svg>
