<?xml version="1.0" encoding="iso-8859-1"?>
<!-- Generator: Adobe Illustrator 16.0.4, SVG Export Plug-In . SVG Version: 6.00 Build 0)  -->
<!DOCTYPE svg PUBLIC "-//W3C//DTD SVG 1.1//EN" "http://www.w3.org/Graphics/SVG/1.1/DTD/svg11.dtd">
<svg version="1.1" id="Capa_1" xmlns="http://www.w3.org/2000/svg" xmlns:xlink="http://www.w3.org/1999/xlink" x="0px" y="0px"
	 width="15px" height="12.142px" viewBox="0 0 15 12.142" style="enable-background:new 0 0 15 12.142;" xml:space="preserve">
<path style="fill:#010002;" d="M7.451,6.137C7.148,5.111,8.797,4.492,8.777,5.525C8.93,6.077,8.973,6.396,8.41,6.502
	C7.913,6.595,7.603,6.649,7.451,6.137z M8.645,2.741C8.48,3.299,9.291,3.379,9.081,3.995c0.423,0,0.3-0.337,0.458-0.614
	c0.229-0.398,0.758-0.495,0.719-1.044c0.04,1.009,0.601-0.074,0.979-0.114c0.021-0.188-0.067-0.423-0.088-0.55
	c-0.186-0.398-0.169-0.787-0.68-0.507c-0.364,0.198-0.832,0.582-0.376,0.928C9.631,2.161,8.814,2.157,8.645,2.741z M7.461,1.288
	c-0.21,0.119-0.319,0.579-0.367,0.797C7.006,2.488,7.032,3.767,7.71,3.559c0.384-0.116,0.315-0.701,0.464-1.008
	C8.274,2.347,8.419,2.38,8.473,2.163c0.039-0.159-0.052-0.408-0.076-0.57c0.258,0.664,1.255,0.364,1.01-0.305
	C9.205,1.104,8.812,0.99,8.552,1.127c-0.378,0.2-0.033,0.419-0.322,0.43C8.031,1.562,7.873,1.056,7.461,1.288z M8.552,4.118
	C8.275,3.199,6.619,4.533,6.937,5.104C7.168,5.523,7.545,4.811,7.778,4.69C8.099,4.526,8.621,4.674,8.552,4.118z M9.177,0.749
	c0.254,0.104,0.545,0.09,0.458-0.286c-0.376-0.304-1.43-0.388-1.396,0.305C8.533,0.73,8.889,0.629,9.177,0.749z M9.889,4.341
	c0.279-0.192,0.744-0.163,0.67-0.629C10.095,2.653,9.23,4.758,9.157,5.119C9.49,4.977,9.587,4.547,9.889,4.341z M11.86,5.714
	c0.159,0.309,0.851,0.112,1.199-0.062c0.456-0.225,0.562-0.529,0.455-1.04C13.201,3.317,11.425,4.87,11.86,5.714z M10.796,6.23
	c0.386-0.324,0.294-1.375,0.23-1.804c-0.402-0.063-0.889,0.112-1.175,0.402c-0.207,0.213-0.793,1.212-0.56,1.506
	C9.449,6.533,10.656,6.35,10.796,6.23z M13.047,3.689c0.312-0.063,0.194-0.554,0.143-0.838c-0.024-0.754-0.829-0.149-0.687,0.393
	C12.56,3.456,12.787,3.742,13.047,3.689z M10.942,3.693c0.121,0.227,0.43,0.229,0.511,0.629c0.093,0.452-0.106,0.93-0.047,1.39
	c0.291-0.237,0.243-1.093,0.499-1.491c0.148-0.233,0.323-0.268,0.328-0.542c0.004-0.191-0.184-0.441-0.279-0.599
	c0.296-0.014,0.595-1.07,0.176-1.05c-0.215-0.314-0.458-0.363-0.564-0.021c-0.111,0.359,0.323,0.707,0.434,1.007
	C11.483,2.723,10.548,2.951,10.942,3.693z M4.676,3.575c0.206-0.011,0.173,0.184,0.376,0.098c0.206-0.086,0.35-0.462,0.481-0.634
	C5.748,2.087,3.806,2.234,3.973,3.36C4.039,3.808,4.234,3.602,4.676,3.575z M3.798,2.466C3.745,2.067,3.154,1.955,2.989,2.341
	C2.868,2.623,3.727,3.417,3.798,2.466z M3.592,4.799c-0.13,0.27-0.178,0.603-0.154,0.9C3.479,6.225,3.54,6.106,3.913,6.227
	C4.116,6.29,4.455,6.482,4.669,6.449c0.437-0.071,0.235-0.198,0.153-0.503C4.755,5.693,4.595,5.426,4.598,5.158
	C4.602,4.79,4.912,4.539,4.876,4.161C4.588,3.325,3.753,4.459,3.592,4.799z M2.005,3.753C2.2,3.836,2.272,4.171,2.459,4.219
	c0.163,0.04,0.347-0.196,0.615-0.153c0.23,0.038,0.272,0.468,0.513,0.102c0.145-0.223,0.1-0.468,0.016-0.709
	C3.11,2.979,2.491,2.731,1.864,3.052c-0.131,0.067-0.668,0.217-0.42,0.443C1.705,3.732,1.782,3.658,2.005,3.753z M7.839,0.416
	c-0.319-0.578-1.905-0.621-1.6,0.305C6.437,1.317,7.945,1.151,7.839,0.416z M1.927,4.021C1.567,4.223,1.195,4.562,1.401,5.027
	c0.369,0.831,0.507,0.374,0.735-0.149c0.062,0.348-0.014,0.711,0.353,0.885C2.887,5.949,3.05,5.751,3.092,5.346
	C3.12,5.078,3.3,4.402,2.948,4.316c-0.251-0.06-0.534,0.37-0.771,0.436c0.04-0.119,0.062-0.264,0.125-0.372
	C2.231,4.206,2.078,4.118,1.927,4.021z M6.026,2.563c0.076,0.368-0.426,0.895-0.605,1.169c0.146-0.067,0.14-0.015,0.254-0.129
	C5.689,3.791,5.704,3.978,5.72,4.165c0.514-0.071,0.647,0.479,1.05-0.174c0.377-0.608-0.011-0.889-0.629-0.807
	C6.26,2.835,6.584,3.16,6.664,2.778c0.079-0.374,0.077-0.756,0.154-1.13C6.661,1.464,6.282,1.215,6.046,1.284
	C5.878,1.336,5.475,1.84,5.497,1.987C5.542,2.279,5.958,2.238,6.026,2.563z M5.104,5.132C4.732,5.645,5.24,5.65,5.434,5.869
	c0.201,0.227,0.13,0.543,0.394,0.591c0.195,0.034,0.607,0.204,0.799,0.061c0.391-0.292-0.104-1.103-0.293-1.434
	C6.085,4.731,5.359,4.78,5.104,5.132z M15,5.111c0-0.542-0.311-1.046-0.841-1.496c-0.224,0.147-0.464,0.276-0.711,0.38
	c0.344,0.258,0.536,0.542,0.536,0.842c0,1.171-2.903,2.119-6.484,2.119S1.016,6.008,1.016,4.837c0-0.33,0.242-0.644,0.658-0.923
	L1,3.48c-0.632,0.48-1,1.036-1,1.631c0,0.032,0.002,0.065,0.004,0.098H0c0.049,1.267,0.441,2.595,1.089,3.837
	c0,0,1.569,3.096,6.411,3.096s6.385-3.122,6.385-3.122c0.646-1.236,1.066-2.576,1.113-3.811h-0.002C14.998,5.177,15,5.144,15,5.111z
	 M5.704,1.068C5.956,0.188,3.858,1.05,4.225,1.967C4.492,2.635,5.506,1.381,5.704,1.068z"/>
<g>
</g>
<g>
</g>
<g>
</g>
<g>
</g>
<g>
</g>
<g>
</g>
<g>
</g>
<g>
</g>
<g>
</g>
<g>
</g>
<g>
</g>
<g>
</g>
<g>
</g>
<g>
</g>
<g>
</g>
</svg>
