<?xml version="1.0" encoding="iso-8859-1"?>
<!-- Generator: Adobe Illustrator 16.0.4, SVG Export Plug-In . SVG Version: 6.00 Build 0)  -->
<!DOCTYPE svg PUBLIC "-//W3C//DTD SVG 1.1//EN" "http://www.w3.org/Graphics/SVG/1.1/DTD/svg11.dtd">
<svg version="1.1" id="Capa_1" xmlns="http://www.w3.org/2000/svg" xmlns:xlink="http://www.w3.org/1999/xlink" x="0px" y="0px"
	 width="15px" height="14.988px" viewBox="0 0 15 14.988" style="enable-background:new 0 0 15 14.988;" xml:space="preserve">
<path style="fill:#010002;" d="M14.376,4.988L7.5,1.57L0.624,4.988L0,3.732l7.49-3.724L7.493,0L7.5,0.004L7.507,0L7.51,0.009
	L15,3.732L14.376,4.988z M11.18,6.035L9.867,7.259H5.133L3.821,6.035c0,0,0.653-0.915,1.73-1.032
	C6.606,4.886,6.973,5.53,7.501,5.557C8.027,5.53,8.395,4.886,9.448,5.003C10.527,5.12,11.18,6.035,11.18,6.035z M11.977,13.893
	c0,0-0.286,1.096-1.599,1.096H4.624c-1.314,0-1.601-1.096-1.601-1.096C2.165,10.102,4.78,8.046,4.78,8.046h5.44
	C10.221,8.046,12.835,10.102,11.977,13.893z M8.474,10.499c0.594,0.591,1.23-1.295,1.23-1.295C9.51,9.249,7.886,9.907,8.474,10.499z
	 M7.515,10.782c0.25,0.249,0.87,0.045,0.541-0.827C7.762,9.179,8.188,8.841,8.188,8.841C7.983,8.909,6.958,10.224,7.515,10.782z
	 M6.712,11.585c0.248,0.25,0.871,0.047,0.539-0.827C6.958,9.983,7.384,9.644,7.384,9.644C7.183,9.711,6.151,11.028,6.712,11.585z
	 M5.903,12.979c-0.107-0.108-0.137-0.257-0.203-0.188l-0.66,0.807c-0.074,0.077,0.116,0.396,0.272,0.238L6.09,13.18
	C6.157,13.113,6.011,13.086,5.903,12.979z M6.425,11.586c-0.294-0.776,0.133-1.113,0.133-1.113c-0.205,0.067-1.233,1.384-0.674,1.94
	C6.131,12.664,6.754,12.459,6.425,11.586z M8.423,12.34c0,0-0.339,0.425-1.113,0.13c-0.873-0.328-1.077,0.294-0.826,0.544
	C7.041,13.57,8.355,12.542,8.423,12.34z M9.252,11.513c0,0-0.339,0.424-1.115,0.129c-0.872-0.329-1.078,0.295-0.827,0.544
	C7.867,12.744,9.185,11.713,9.252,11.513z M10.054,10.709c0,0-0.338,0.427-1.113,0.13c-0.874-0.328-1.075,0.293-0.827,0.542
	C8.671,11.939,9.986,10.911,10.054,10.709z"/>
<g>
</g>
<g>
</g>
<g>
</g>
<g>
</g>
<g>
</g>
<g>
</g>
<g>
</g>
<g>
</g>
<g>
</g>
<g>
</g>
<g>
</g>
<g>
</g>
<g>
</g>
<g>
</g>
<g>
</g>
</svg>
