<?xml version="1.0" encoding="iso-8859-1"?>
<!-- Generator: Adobe Illustrator 17.0.2, SVG Export Plug-In . SVG Version: 6.00 Build 0)  -->
<!DOCTYPE svg PUBLIC "-//W3C//DTD SVG 1.1//EN" "http://www.w3.org/Graphics/SVG/1.1/DTD/svg11.dtd">
<svg version="1.1" id="Capa_1" xmlns="http://www.w3.org/2000/svg" xmlns:xlink="http://www.w3.org/1999/xlink" x="0px" y="0px"
	 width="64px" height="64px" viewBox="0 0 64 64" style="enable-background:new 0 0 64 64;" xml:space="preserve">
<g>
	<path d="M9.065,52.996V27.809l21.967-13.123l23.114,13.127v25.184c0,1.568,1.271,2.84,2.84,2.84c1.568,0,2.84-1.271,2.84-2.84
		V26.567c0-0.392-0.08-0.765-0.223-1.104c-0.168-0.756-0.633-1.442-1.36-1.855L32.398,8.93c-0.889-0.506-1.981-0.494-2.858,0.032
		L4.968,23.641c-0.64,0.381-1.067,0.979-1.261,1.642c-0.198,0.387-0.321,0.819-0.321,1.285v26.429c0,1.568,1.271,2.84,2.839,2.84
		C7.794,55.836,9.065,54.565,9.065,52.996z"/>
	<path d="M14.748,43.418l-0.498,0.625c-0.771,0.969-1.412,1.753-1.431,1.753c-0.019,0-0.079,1.122,0.744,2.047
		c0.563,0.635,1.387,1.033,2.302,1.033c0.788,0,1.503-0.297,2.044-0.784c0.918-0.829,1.083-0.829,2.002,0
		c0.542,0.487,1.257,0.784,2.045,0.784c0.788,0,1.503-0.297,2.044-0.784c0.918-0.829,1.083-0.829,2.002,0
		c0.542,0.487,1.256,0.784,2.044,0.784c0.789,0,1.503-0.297,2.044-0.784c0.918-0.829,1.083-0.829,2.002,0
		c0.542,0.487,1.256,0.784,2.044,0.784s1.503-0.297,2.044-0.784c0.919-0.829,1.083-0.829,2.003,0
		c0.541,0.487,1.256,0.784,2.044,0.784c0.788,0,1.503-0.297,2.044-0.784c0.919-0.829,1.084-0.829,2.002,0
		c0.542,0.487,1.256,0.784,2.044,0.784c0.916,0,1.738-0.398,2.302-1.033c0.823-0.925,0.795-2.047,0.814-2.047
		c0.019,0-0.443-0.882-1.033-1.969l-0.104-0.193c-0.59-1.088-2.071-1.97-3.309-1.97h-2.688c1.237,0,1.38-0.514,0.318-1.149
		l-0.211-0.126c-0.41-0.245-0.927-0.37-1.461-0.43v-4.187h0.128c4.218-0.13,1.714-10.548,1.714-10.548h-4.812
		c0,0-2.49,10.418,1.728,10.548h0.121v4.193c-0.468,0.062-0.92,0.172-1.288,0.381l-0.367,0.21c-1.075,0.612-0.943,1.107,0.294,1.107
		h-5.379c1.237,0,2.616-0.657,3.081-1.47c0.463-0.811-0.163-1.47-1.401-1.47h-4.574c0,0-0.276-4.843-4.244-4.749
		c0,0,0.041,0.021,0.11,0.06c-0.308-0.112-0.648-0.008-0.859,0.351c-0.473,0.799-1.091,2.935-1.39,4.338h-4.446
		c-1.238,0-1.802,0.658-1.261,1.47c0.542,0.812,1.983,1.47,3.221,1.47h-2.941C17.147,41.664,15.519,42.449,14.748,43.418z
		 M27.804,35.84c0.442,0.708,0.845,1.64,1.036,2.885h-0.773c-0.21-0.912-0.586-2.539-1.267-3.817
		C27.031,35.034,27.373,35.3,27.804,35.84z"/>
</g>
</svg>
