<?xml version="1.0" encoding="iso-8859-1"?>
<!-- Generator: Adobe Illustrator 16.0.4, SVG Export Plug-In . SVG Version: 6.00 Build 0)  -->
<!DOCTYPE svg PUBLIC "-//W3C//DTD SVG 1.1//EN" "http://www.w3.org/Graphics/SVG/1.1/DTD/svg11.dtd">
<svg version="1.1" id="Capa_1" xmlns="http://www.w3.org/2000/svg" xmlns:xlink="http://www.w3.org/1999/xlink" x="0px" y="0px"
	 width="20px" height="20px" viewBox="0 0 20 20" style="enable-background:new 0 0 20 20;" xml:space="preserve">
<path style="fill:#010002;" d="M16,0H4C1.8,0,0,1.8,0,4v12c0,2.2,1.8,4,4,4h12c2.2,0,4-1.8,4-4V4C20,1.8,18.2,0,16,0z M15.689,6.78
	c0.052,0.284,0.169,0.774-0.143,0.838c-0.26,0.053-0.487-0.233-0.544-0.445C14.86,6.631,15.665,6.026,15.689,6.78z M16.015,8.541
	c0.107,0.511,0.001,0.815-0.455,1.04c-0.349,0.174-1.04,0.37-1.199,0.062C13.925,8.799,15.701,7.246,16.015,8.541z M14.065,5.938
	c0.106-0.343,0.35-0.294,0.564,0.021c0.419-0.021,0.12,1.036-0.176,1.05c0.096,0.157,0.283,0.407,0.279,0.599
	c-0.005,0.274-0.18,0.309-0.328,0.542c-0.256,0.398-0.208,1.254-0.499,1.491c-0.06-0.46,0.14-0.938,0.047-1.39
	c-0.081-0.4-0.39-0.402-0.511-0.629c-0.395-0.742,0.541-0.971,1.057-0.677C14.389,6.646,13.954,6.298,14.065,5.938z M12.352,8.758
	c0.286-0.29,0.772-0.466,1.175-0.402c0.063,0.429,0.155,1.479-0.23,1.804c-0.14,0.119-1.347,0.303-1.504,0.104
	C11.559,9.97,12.145,8.971,12.352,8.758z M11.657,9.048c0.073-0.361,0.938-2.466,1.401-1.407c0.074,0.466-0.391,0.437-0.67,0.629
	C12.087,8.476,11.99,8.905,11.657,9.048z M12.969,5.095c0.511-0.28,0.494,0.108,0.68,0.507c0.021,0.127,0.108,0.361,0.088,0.55
	c-0.378,0.04-0.938,1.123-0.979,0.114c0.039,0.549-0.49,0.646-0.719,1.044c-0.158,0.277-0.035,0.614-0.458,0.614
	c0.21-0.616-0.601-0.696-0.437-1.254c0.17-0.584,0.986-0.58,1.448-0.647C12.137,5.677,12.604,5.293,12.969,5.095z M11.277,9.454
	c0.152,0.552,0.195,0.871-0.367,0.977c-0.497,0.093-0.808,0.147-0.959-0.365C9.648,9.04,11.297,8.421,11.277,9.454z M9.437,9.033
	c-0.317-0.571,1.339-1.905,1.615-0.986c0.069,0.556-0.453,0.408-0.773,0.572C10.045,8.739,9.668,9.452,9.437,9.033z M12.135,4.392
	c0.087,0.376-0.204,0.391-0.458,0.286c-0.288-0.12-0.644-0.019-0.938,0.019C10.705,4.004,11.759,4.088,12.135,4.392z M11.052,5.056
	c0.26-0.137,0.653-0.022,0.854,0.161c0.245,0.669-0.752,0.969-1.01,0.305c0.024,0.162,0.115,0.411,0.076,0.57
	c-0.054,0.217-0.198,0.184-0.299,0.388c-0.148,0.307-0.08,0.892-0.464,1.008c-0.678,0.208-0.704-1.07-0.616-1.474
	c0.048-0.218,0.157-0.678,0.367-0.797c0.412-0.232,0.57,0.274,0.769,0.269C11.019,5.475,10.674,5.256,11.052,5.056z M10.339,4.345
	c0.106,0.735-1.402,0.901-1.6,0.305C8.434,3.724,10.02,3.767,10.339,4.345z M8.546,5.213c0.236-0.069,0.615,0.18,0.772,0.364
	c-0.077,0.374-0.075,0.756-0.154,1.13C9.084,7.089,8.76,6.764,8.641,7.113C9.259,7.031,9.646,7.312,9.27,7.92
	C8.867,8.572,8.733,8.022,8.22,8.094C8.204,7.906,8.189,7.72,8.175,7.532C8.061,7.646,8.066,7.594,7.921,7.661
	c0.18-0.274,0.682-0.801,0.605-1.169C8.458,6.167,8.042,6.208,7.997,5.916C7.975,5.769,8.378,5.265,8.546,5.213z M9.126,10.449
	c-0.191,0.144-0.604-0.026-0.799-0.061c-0.264-0.048-0.192-0.364-0.394-0.591C7.74,9.579,7.232,9.573,7.604,9.061
	c0.256-0.352,0.981-0.4,1.229-0.045C9.021,9.347,9.517,10.157,9.126,10.449z M8.204,4.997C8.006,5.31,6.992,6.563,6.725,5.896
	C6.358,4.979,8.456,4.116,8.204,4.997z M8.033,6.968C7.901,7.14,7.758,7.516,7.552,7.602c-0.203,0.086-0.17-0.108-0.376-0.098
	C6.734,7.53,6.539,7.736,6.473,7.289C6.306,6.163,8.248,6.016,8.033,6.968z M7.322,9.875c0.082,0.305,0.283,0.432-0.153,0.503
	c-0.214,0.033-0.553-0.159-0.756-0.223c-0.373-0.12-0.434-0.002-0.476-0.527c-0.023-0.298,0.024-0.631,0.154-0.9
	c0.161-0.34,0.996-1.474,1.284-0.638c0.036,0.378-0.274,0.629-0.278,0.997C7.095,9.354,7.255,9.622,7.322,9.875z M5.489,6.27
	c0.165-0.386,0.756-0.273,0.809,0.125C6.227,7.346,5.368,6.552,5.489,6.27z M4.364,6.98C4.991,6.66,5.61,6.907,6.103,7.387
	c0.084,0.241,0.129,0.486-0.016,0.709c-0.24,0.366-0.282-0.063-0.513-0.102C5.306,7.951,5.122,8.188,4.959,8.147
	C4.772,8.1,4.7,7.765,4.505,7.682c-0.223-0.095-0.3-0.021-0.561-0.258C3.696,7.197,4.233,7.048,4.364,6.98z M5.448,8.245
	C5.8,8.331,5.62,9.007,5.592,9.274C5.55,9.68,5.387,9.878,4.989,9.691c-0.366-0.174-0.29-0.537-0.353-0.885
	C4.408,9.33,4.271,9.787,3.901,8.956C3.695,8.49,4.067,8.151,4.427,7.949c0.151,0.098,0.305,0.186,0.376,0.359
	C4.739,8.417,4.718,8.562,4.678,8.681C4.914,8.615,5.197,8.186,5.448,8.245z M17.498,9.138c-0.047,1.234-0.468,2.574-1.113,3.811
	c0,0-1.543,3.122-6.385,3.122s-6.411-3.096-6.411-3.096c-0.647-1.242-1.04-2.57-1.089-3.837h0.004C2.502,9.105,2.5,9.072,2.5,9.04
	c0-0.595,0.368-1.15,1-1.631l0.674,0.434C3.758,8.122,3.516,8.436,3.516,8.766c0,1.171,2.903,2.119,6.484,2.119
	s6.484-0.948,6.484-2.119c0-0.3-0.192-0.584-0.536-0.842c0.247-0.104,0.487-0.232,0.711-0.38c0.53,0.45,0.841,0.954,0.841,1.496
	c0,0.032-0.002,0.065-0.004,0.098H17.498z"/>
<g>
</g>
<g>
</g>
<g>
</g>
<g>
</g>
<g>
</g>
<g>
</g>
<g>
</g>
<g>
</g>
<g>
</g>
<g>
</g>
<g>
</g>
<g>
</g>
<g>
</g>
<g>
</g>
<g>
</g>
</svg>
