<?xml version="1.0" encoding="iso-8859-1"?>
<!-- Generator: Adobe Illustrator 16.0.4, SVG Export Plug-In . SVG Version: 6.00 Build 0)  -->
<!DOCTYPE svg PUBLIC "-//W3C//DTD SVG 1.1//EN" "http://www.w3.org/Graphics/SVG/1.1/DTD/svg11.dtd">
<svg version="1.1" id="Capa_1" xmlns="http://www.w3.org/2000/svg" xmlns:xlink="http://www.w3.org/1999/xlink" x="0px" y="0px"
	 width="20px" height="20px" viewBox="0 0 20 20" style="enable-background:new 0 0 20 20;" xml:space="preserve">
<path style="fill:#010002;" d="M11.752,14.019c-0.067,0.2-1.385,1.231-1.942,0.673c-0.251-0.249-0.045-0.873,0.827-0.544
	C11.413,14.442,11.752,14.019,11.752,14.019z M8.925,14.092c-0.294-0.776,0.133-1.113,0.133-1.113
	c-0.205,0.067-1.233,1.384-0.674,1.94C8.631,15.17,9.254,14.965,8.925,14.092z M9.81,14.976c-0.873-0.328-1.077,0.294-0.826,0.544
	c0.558,0.557,1.872-0.472,1.939-0.674C10.923,14.846,10.584,15.271,9.81,14.976z M20,4v12c0,2.2-1.8,4-4,4H4c-2.2,0-4-1.8-4-4V4
	c0-2.2,1.8-4,4-4h12C18.2,0,20,1.8,20,4z M12.721,10.552H7.28c0,0-2.615,2.056-1.757,5.847c0,0,0.286,1.096,1.601,1.096h5.754
	c1.312,0,1.599-1.096,1.599-1.096C15.335,12.607,12.721,10.552,12.721,10.552z M7.633,9.765h4.734l1.312-1.224
	c0,0-0.652-0.915-1.731-1.032c-1.054-0.117-1.421,0.527-1.947,0.554C9.473,8.036,9.106,7.392,8.052,7.509
	c-1.077,0.117-1.73,1.032-1.73,1.032L7.633,9.765z M17.5,6.238l-7.49-3.724l-0.003-0.009L10,2.51L9.993,2.506L9.99,2.515L2.5,6.238
	l0.624,1.256L10,4.076l6.876,3.418L17.5,6.238z M11.44,13.345c-0.874-0.328-1.075,0.293-0.827,0.542
	c0.558,0.559,1.873-0.47,1.94-0.672C12.554,13.215,12.216,13.642,11.44,13.345z M8.2,15.297l-0.66,0.807
	c-0.074,0.077,0.116,0.396,0.272,0.238l0.777-0.656c0.067-0.066-0.079-0.094-0.187-0.2C8.296,15.377,8.267,15.229,8.2,15.297z
	 M12.204,11.71c-0.194,0.045-1.818,0.703-1.23,1.295C11.567,13.596,12.204,11.71,12.204,11.71z M10.015,13.288
	c0.25,0.249,0.87,0.045,0.541-0.827c-0.294-0.776,0.133-1.114,0.133-1.114C10.483,11.415,9.458,12.729,10.015,13.288z M9.212,14.091
	c0.248,0.25,0.871,0.047,0.539-0.827c-0.293-0.774,0.133-1.114,0.133-1.114C9.683,12.217,8.651,13.534,9.212,14.091z"/>
<g>
</g>
<g>
</g>
<g>
</g>
<g>
</g>
<g>
</g>
<g>
</g>
<g>
</g>
<g>
</g>
<g>
</g>
<g>
</g>
<g>
</g>
<g>
</g>
<g>
</g>
<g>
</g>
<g>
</g>
</svg>
