<?xml version="1.0" encoding="utf-8"?>
<!-- Generator: Adobe Illustrator 17.0.0, SVG Export Plug-In . SVG Version: 6.00 Build 0)  -->
<!DOCTYPE svg PUBLIC "-//W3C//DTD SVG 1.1//EN" "http://www.w3.org/Graphics/SVG/1.1/DTD/svg11.dtd">
<svg version="1.1" id="Capa_1" xmlns="http://www.w3.org/2000/svg" xmlns:xlink="http://www.w3.org/1999/xlink" x="0px" y="0px"
	 width="200px" height="200px" viewBox="0 0 200 200" enable-background="new 0 0 200 200" xml:space="preserve">
<path d="M192.917,156.292c-33.336-6.661-67.733-1.453-101.377-0.748c-15.9,0.333-31.803-1.157-47.702-1.236
	c-12.045-0.061-26.534-0.686-36.391,7.074c-2.227,1.754-0.902,5.711,1.661,6.289c11.012,2.482,23.43-0.217,34.73-0.15
	c15.909,0.093,31.788,1.198,47.702,1.099c33.561-0.209,66.235-4.424,99.814-0.783C197.957,168.553,199.369,157.581,192.917,156.292z
	"/>
<path d="M163.318,61.644c-19.337-13.677-40.823-19.797-63.268-19.61c0.756-2.923-1.554-7.03-3.433-8.881
	c-2.363-2.327-5.888-2.887-8.963-1.847c-3.011,1.019-5.312,3.31-6.465,6.25c-0.532,1.355-0.751,2.82-0.645,4.272
	c0.053,0.723,0.221,1.291,0.437,1.816c-1.78,0.283-3.562,0.593-5.349,0.948C50.3,49.625,25.738,64.404,15.644,88.947
	c-3.674,8.933-18.688,44.758-4.504,51.785c0.266,0.872,0.976,1.612,2.093,1.632c29.136,0.522,58.451-2.604,87.629-2.932
	c29.161-0.328,60.062,3.346,88.84-1.951c0.965-0.178,1.326-1.225,1.094-2.064c1.763,1.027,4.449,0.305,4.813-2.624
	C199.03,105.295,185.97,77.665,163.318,61.644z M89.261,37.135c1.245-0.466,2.442-0.454,3.493,0.482
	c1.342,1.194,1.482,3.067,2.137,4.577c-3.137,0.159-6.291,0.438-9.458,0.835C85.521,40.501,86.834,38.043,89.261,37.135z
	 M189.785,134.389c-0.03-0.008-0.051-0.028-0.083-0.034c-28.684-5.382-59.743-3.187-88.84-3.253
	c-28.282-0.064-58.328-0.65-85.99,6.232c-10.104-8.993,4.906-41.494,9.399-50.897c10.348-21.652,35.32-31.805,57.468-35.949
	c48.079-8.996,115.581,25.461,107.558,81.45C189.152,132.956,189.386,133.755,189.785,134.389z"/>
<path d="M65.978,66.788c-0.256-0.998-1.346-1.774-2.62-1.183c-20.338,9.427-33.564,31.219-37.542,52.809
	c-0.401,2.176,0.897,3.746,3.041,3.992c6.025,0.691,11.601,0.005,17.532-1.054c1.875-0.335,2.544-2.389,2.275-4.007
	c-3.04-18.308,8.93-32.242,18.265-46.539C67.89,69.335,67.185,67.694,65.978,66.788z M41.906,115.558
	c-3.075,0.521-6.088,0.865-9.166,0.811c3.431-13.588,10.728-26.901,20.541-37.333C45.913,90.051,40.581,101.954,41.906,115.558z"/>
</svg>
