<?xml version="1.0" encoding="utf-8"?>
<!-- Generator: Adobe Illustrator 16.0.0, SVG Export Plug-In . SVG Version: 6.00 Build 0)  -->
<!DOCTYPE svg PUBLIC "-//W3C//DTD SVG 1.1//EN" "http://www.w3.org/Graphics/SVG/1.1/DTD/svg11.dtd">
<svg version="1.1" id="Layer_1" xmlns="http://www.w3.org/2000/svg" xmlns:xlink="http://www.w3.org/1999/xlink" x="0px" y="0px"
	 width="96px" height="96px" viewBox="0 0 96 96" enable-background="new 0 0 96 96" xml:space="preserve">
<path d="M67.321,38.049c-3.608-2.079-8.042-3.316-12.853-3.316c-0.503,0-0.996,0.033-1.49,0.059
	c7.726-4.579,15.773-7.308,22.261-5.028c1.541,0.543,3.278-0.141,3.879-1.526c0.604-1.384-0.156-2.945-1.697-3.487
	c-12.568-4.42-27.565,4.306-38.569,13.112c-0.14-0.476-0.279-0.951-0.429-1.433c7.874-9.986,18.372-19.55,28.347-18.255
	c1.617,0.211,3.155-0.808,3.391-2.28c0.235-1.471-0.9-2.836-2.538-3.048c-11.927-1.547-23.099,7.534-31.396,17.212
	C30.186,14.184,21.59,2.58,16.84,4.002c-4.836,1.448-3.85,15.854,2.203,32.175c0.234,0.635,0.482,1.25,0.725,1.872H1.94v13.458
	h9.585l6.117,39.941h60.715l6.117-39.941h9.585V38.049H67.321z M32.355,84.644h-6.393l-3.365-27.59h9.758V84.644z M52.83,84.644
	h-9.758v-27.59h9.758V84.644z M70.038,84.644h-6.393v-27.59h9.757L70.038,84.644z"/>
</svg>
