<?xml version="1.0" encoding="utf-8"?>
<!-- Generator: Adobe Illustrator 16.0.4, SVG Export Plug-In . SVG Version: 6.00 Build 0)  -->
<!DOCTYPE svg PUBLIC "-//W3C//DTD SVG 1.1//EN" "http://www.w3.org/Graphics/SVG/1.1/DTD/svg11.dtd">
<svg version="1.1" id="Layer_1" xmlns="http://www.w3.org/2000/svg" xmlns:xlink="http://www.w3.org/1999/xlink" x="0px" y="0px"
	 width="50px" height="50px" viewBox="0 0 50 50" enable-background="new 0 0 50 50" xml:space="preserve">
<path d="M37.538,33.074h-6.771c2.482-1.105,4.933-4.355,5.991-7.428c1.358-3.929,0.179-6.994-3.237-8.409
	c-2.095-0.868-4.033-0.629-5.494,0.638v-6.069c0-0.276-0.225-0.5-0.5-0.5c-0.276,0-0.5,0.224-0.5,0.5v1.906
	c-0.277-0.417-0.641-0.823-1.133-1.102c-0.486-0.274-1.067-0.414-1.727-0.414c-0.886,0-1.613,0.256-1.646,0.267
	c-0.233,0.083-0.371,0.327-0.321,0.571c0.017,0.081,0.423,1.992,1.87,2.812c0.486,0.273,1.066,0.413,1.727,0.413
	c0.491,0,0.928-0.078,1.229-0.15v1.764c-1.459-1.265-3.399-1.503-5.493-0.637c-0.245,0.102-0.476,0.214-0.697,0.333
	c-0.035-0.09-0.087-0.173-0.171-0.232l-3.862-2.704c-0.223-0.154-0.526-0.107-0.688,0.112l-1.696,2.286l-3.565-3.026
	c-0.211-0.177-0.525-0.152-0.705,0.058c-0.179,0.21-0.152,0.526,0.059,0.705l3.615,3.067l-3.383,4.558
	c-0.109,0.147-0.131,0.344-0.051,0.51l4.775,10.169h-1.055c-1.342,0-2.433,1.26-2.433,2.811c0,1.55,1.091,2.811,2.433,2.811h23.431
	c1.342,0,2.435-1.261,2.435-2.811C39.973,34.334,38.88,33.074,37.538,33.074z M25.798,15.261c-0.485,0-0.901-0.096-1.235-0.284
	c-0.687-0.39-1.064-1.185-1.246-1.689c0.231-0.047,0.531-0.09,0.854-0.09c0.484,0,0.898,0.096,1.232,0.284
	c0.688,0.39,1.066,1.185,1.246,1.689C26.418,15.218,26.119,15.261,25.798,15.261z M21.916,18.162
	c2.134-0.884,3.956-0.454,5.205,1.29c0.007,0.009,0.02,0.013,0.025,0.022c0.033,0.041,0.071,0.072,0.115,0.1
	c0.02,0.012,0.032,0.026,0.053,0.035c0.064,0.031,0.136,0.051,0.213,0.051c0.076,0,0.146-0.021,0.213-0.051
	c0.02-0.009,0.033-0.023,0.052-0.035c0.044-0.028,0.083-0.06,0.116-0.1c0.007-0.009,0.02-0.013,0.025-0.022
	c1.25-1.743,3.073-2.172,5.205-1.29c2.904,1.203,3.854,3.745,2.676,7.158c-1.444,4.19-5.312,7.91-7.5,7
	c-0.146-0.06-0.297-0.153-0.479-0.296c-0.09-0.07-0.198-0.105-0.308-0.105s-0.219,0.035-0.311,0.106
	c-0.179,0.142-0.33,0.233-0.479,0.295c-2.182,0.904-6.055-2.81-7.5-7.001C18.062,21.907,19.014,19.365,21.916,18.162z
	 M27.607,33.074h-0.158c0.025-0.017,0.053-0.025,0.078-0.043C27.557,33.049,27.581,33.059,27.607,33.074z M11.418,22.75l5.209-7.018
	l3.375,2.363c-2.203,1.62-2.834,4.285-1.707,7.551c1.061,3.074,3.51,6.324,5.992,7.428h-8.021L11.418,22.75z M37.538,37.693H14.107
	c-0.789,0-1.433-0.812-1.433-1.811s0.644-1.811,1.433-1.811h23.431c0.79,0,1.435,0.812,1.435,1.811S38.328,37.693,37.538,37.693z
	 M21.113,35.883c0,0.637-0.518,1.15-1.15,1.15s-1.15-0.515-1.15-1.15c0-0.635,0.518-1.149,1.15-1.149S21.113,35.248,21.113,35.883z
	 M17.254,35.883c0,0.637-0.518,1.15-1.15,1.15s-1.149-0.515-1.149-1.15c0-0.635,0.517-1.149,1.149-1.149
	S17.254,35.248,17.254,35.883z M36.754,35.883c0,0.637-0.518,1.15-1.15,1.15s-1.149-0.515-1.149-1.15
	c0-0.635,0.517-1.149,1.149-1.149S36.754,35.248,36.754,35.883z M25.188,35.883c0,0.637-0.518,1.15-1.15,1.15
	s-1.148-0.515-1.148-1.15c0-0.635,0.516-1.149,1.148-1.149S25.188,35.248,25.188,35.883z M29.262,35.883
	c0,0.637-0.518,1.15-1.15,1.15c-0.635,0-1.15-0.515-1.15-1.15c0-0.635,0.518-1.149,1.15-1.149
	C28.744,34.732,29.262,35.248,29.262,35.883z M32.835,35.883c0,0.637-0.517,1.15-1.149,1.15c-0.637,0-1.151-0.515-1.151-1.15
	c0-0.635,0.516-1.149,1.151-1.149C32.318,34.732,32.835,35.248,32.835,35.883z"/>
</svg>
