<?xml version="1.0" encoding="iso-8859-1"?>
<!-- Generator: Adobe Illustrator 17.0.0, SVG Export Plug-In . SVG Version: 6.00 Build 0)  -->
<!DOCTYPE svg PUBLIC "-//W3C//DTD SVG 1.1//EN" "http://www.w3.org/Graphics/SVG/1.1/DTD/svg11.dtd">
<svg version="1.1" id="Capa_1" xmlns="http://www.w3.org/2000/svg" xmlns:xlink="http://www.w3.org/1999/xlink" x="0px" y="0px"
	 width="64px" height="64px" viewBox="0 0 64 64" style="enable-background:new 0 0 64 64;" xml:space="preserve">
<g>
	<path d="M2.41,54.5h17.344v-6.96c-1.047,0.711-2.311,1.128-3.672,1.128c-3.614,0-6.543-2.929-6.543-6.543
		c0-3.314,2.466-6.046,5.663-6.477c-0.408-2.596-1.515-5.008-2.883-7.271c-0.335-0.553,0.53-1.056,0.864-0.505
		c1.449,2.396,2.6,4.963,3.019,7.715c1.316,0.024,2.537,0.437,3.553,1.127V25.179c-1.343-1.438-2.834-2.726-4.756-3.622
		c-0.584-0.272-0.076-1.134,0.505-0.863c1.674,0.781,3.034,1.846,4.252,3.051V9.5H2.41V54.5z"/>
	<path d="M33.082,23.207c0.902,0,1.761,0.183,2.542,0.513c1.518-1.852,3.009-3.562,4.63-4.965V9.5H23.746v18.882
		c0.052,0.063,0.107,0.125,0.16,0.189c0.164,0.198,0.331,0.393,0.498,0.589c0.17,0.2,0.341,0.398,0.515,0.596
		c0.515-0.208,1.065-0.345,1.639-0.396c0.173-0.016,0.347-0.026,0.523-0.026c3.039,0,5.534,2.353,5.77,5.332
		c-0.253-0.026-0.51-0.039-0.77-0.039c-0.955,0-1.866,0.186-2.708,0.514c-2.289,0.89-4.032,2.869-4.594,5.3
		c-0.366-0.159-0.712-0.357-1.034-0.585v0.893v0.857V54.5h16.508V42.177v-0.773v-0.786c-0.322-0.107-0.633-0.238-0.926-0.398
		c-0.459-1.745-1.527-3.243-2.969-4.248c-0.026-0.175-0.043-0.352-0.053-0.532c-0.006-0.105-0.016-0.209-0.016-0.315
		c0-2.312,1.365-4.307,3.329-5.235c0.206-0.097,0.418-0.185,0.636-0.258v-0.786v-0.773V19.93c-1.342,1.329-2.543,2.791-3.736,4.26
		c1.474,0.913,2.559,2.391,2.947,4.136c-2.731,1.055-4.676,3.701-4.676,6.799c0,0.005,0.001,0.009,0.001,0.014
		c-0.139-0.054-0.279-0.109-0.422-0.155c-0.076-3.956-3.312-7.152-7.286-7.152c-0.088,0-0.173,0.01-0.259,0.013
		C27.639,25.161,30.131,23.207,33.082,23.207z M37.998,41.164c0.051,0.314,0.084,0.633,0.084,0.961c0,3.314-2.686,6-6,6
		c-3.24,0-5.873-2.57-5.989-5.782c-0.003-0.073-0.011-0.144-0.011-0.218c0-0.181,0.011-0.36,0.027-0.537
		c0.022-0.252,0.06-0.499,0.112-0.741c0.56-2.579,2.777-4.533,5.48-4.703c0.126-0.008,0.252-0.019,0.38-0.019
		c0.235,0,0.466,0.017,0.694,0.043c0.214,0.025,0.424,0.062,0.631,0.108c0.036,0.008,0.071,0.019,0.107,0.027
		c0.247,0.061,0.489,0.136,0.723,0.226c0.269,0.104,0.53,0.224,0.779,0.363c0.366,0.205,0.705,0.449,1.018,0.724
		c0.716,0.629,1.281,1.423,1.634,2.326C37.819,40.333,37.93,40.741,37.998,41.164z"/>
	<path d="M44.246,16.157C46.185,15.289,48.378,14.844,51,15c0.641,0.038,0.644,1.038,0,1c-2.355-0.14-4.666,0.127-6.754,1.046V28.16
		v0.796v0.799c1.968,0.796,3.401,2.64,3.602,4.838c0.016,0.175,0.027,0.352,0.027,0.531c0,2.429-1.504,4.51-3.629,5.37v0.799v0.796
		c2.968-0.924,5.129-3.697,5.129-6.965c0-0.141-0.013-0.278-0.021-0.417c1.178,0.234,2.242,0.785,3.101,1.56
		c3.109-3.966,3.014-9.08,4.688-13.901c0.21-0.605,1.176-0.345,0.964,0.266c-1.744,5.025-1.67,10.283-4.947,14.369
		c0.915,1.125,1.465,2.56,1.465,4.123c0,3.614-2.929,6.543-6.543,6.543c-1.435,0-2.757-0.467-3.836-1.25V54.5H61.59v-45H44.246
		V16.157z"/>
	<path d="M23.746,30.397c0.087-0.062,0.177-0.12,0.267-0.176c-0.087-0.1-0.181-0.196-0.267-0.297V30.397z"/>
</g>
</svg>
