<?xml version="1.0" encoding="utf-8"?>
<!-- Generator: Adobe Illustrator 17.0.0, SVG Export Plug-In . SVG Version: 6.00 Build 0)  -->
<!DOCTYPE svg PUBLIC "-//W3C//DTD SVG 1.1//EN" "http://www.w3.org/Graphics/SVG/1.1/DTD/svg11.dtd">
<svg version="1.1" id="Capa_1" xmlns="http://www.w3.org/2000/svg" xmlns:xlink="http://www.w3.org/1999/xlink" x="0px" y="0px"
	 width="16.232px" height="23.146px" viewBox="0 0 16.232 23.146" enable-background="new 0 0 16.232 23.146" xml:space="preserve">
<path d="M10.263,7.799H9.548l1.715-6.205l4.204-0.656l0.107,0.681l-3.766,0.588L10.263,7.799z M13.035,5.256h0.688v16.951H4.026
	V5.256h0.69v2.543h4.832L6.06,20.416L6.725,20.6l3.538-12.801h2.773V5.256z M6.002,9.301c0,0.484,0.394,0.879,0.879,0.879
	S7.76,9.786,7.76,9.301S7.367,8.423,6.882,8.423S6.002,8.817,6.002,9.301z M11.301,16.722c0-0.484-0.396-0.879-0.879-0.879
	c-0.484,0-0.879,0.394-0.879,0.879c0,0.483,0.395,0.88,0.879,0.88C10.905,17.602,11.301,17.205,11.301,16.722z M13.035,13.384
	c-0.102-0.266-0.357-0.459-0.659-0.459c-0.39,0-0.707,0.316-0.707,0.707c0,0.388,0.317,0.704,0.707,0.704
	c0.301,0,0.558-0.19,0.659-0.457V13.384z M10.422,16.365c-0.205,0-0.373,0.166-0.373,0.371c0,0.413,0.746,0.413,0.746,0
	C10.795,16.532,10.628,16.365,10.422,16.365z M7.251,9.316c0-0.204-0.166-0.368-0.369-0.368c-0.202,0-0.368,0.164-0.368,0.368
	C6.514,9.723,7.251,9.723,7.251,9.316z M1.125,3.625c0.341-1.168,1.43-1.983,2.647-1.983c0.263,0,0.524,0.039,0.779,0.111
	c0.708,0.21,1.291,0.68,1.645,1.328c0.354,0.647,0.433,1.393,0.224,2.1L6.76,5.279c0.486-1.647-0.461-3.382-2.109-3.865
	C3.004,0.929,1.268,1.876,0.785,3.526c-0.487,1.647,0.46,3.384,2.108,3.865l0.1-0.338C1.535,6.622,0.694,5.085,1.125,3.625z
	 M3.798,4.933c-0.07,0.005-0.14-0.002-0.206-0.02C3.454,4.871,3.34,4.781,3.272,4.654C3.203,4.527,3.186,4.382,3.229,4.243
	c0.079-0.278,0.39-0.448,0.669-0.367c0.286,0.085,0.45,0.385,0.367,0.671C4.242,4.62,4.208,4.686,4.16,4.742l1.892,0.285
	C6.39,3.79,5.676,2.5,4.44,2.136c-1.25-0.368-2.568,0.35-2.935,1.602C1.142,4.971,1.839,6.269,3.061,6.655L3.798,4.933z M6.4,5.252
	L4.003,4.893L3.068,7.074L2.995,7.053H2.994l0.024-0.084V6.97l0.931-2.172C3.849,4.849,3.732,4.864,3.617,4.83
	C3.377,4.761,3.24,4.508,3.312,4.268C3.38,4.025,3.633,3.889,3.873,3.959C4.114,4.03,4.251,4.283,4.181,4.522
	C4.143,4.648,4.059,4.743,3.949,4.798H3.95l2.388,0.358l0.082,0.024L6.4,5.252z M4.098,4.499c0.057-0.195-0.053-0.4-0.25-0.456
	C3.814,4.032,3.779,4.027,3.745,4.027c-0.162,0-0.307,0.107-0.352,0.264c-0.026,0.096-0.017,0.194,0.029,0.28
	C3.471,4.658,3.548,4.72,3.641,4.748c0.08,0.022,0.167,0.019,0.242-0.012l0.055-0.027C4.015,4.66,4.072,4.588,4.098,4.499z"/>
</svg>
