<?xml version="1.0" encoding="iso-8859-1"?>
<!-- Generator: Adobe Illustrator 17.1.0, SVG Export Plug-In . SVG Version: 6.00 Build 0)  -->
<!DOCTYPE svg PUBLIC "-//W3C//DTD SVG 1.1//EN" "http://www.w3.org/Graphics/SVG/1.1/DTD/svg11.dtd">
<svg version="1.1" id="Layer_1" xmlns="http://www.w3.org/2000/svg" xmlns:xlink="http://www.w3.org/1999/xlink" x="0px" y="0px"
	 viewBox="0 0 64 64" style="enable-background:new 0 0 64 64;" xml:space="preserve">
<g>
	<path d="M23.719,20H11.123c-0.625,0-1.096,0.495-1.051,1.119l2.526,34.924C12.643,56.666,13.186,57,13.811,57h36.93
		c0.625,0,1.172-0.339,1.222-0.962l2.792-35.004C54.804,20.411,54.337,20,53.712,20H41.138c-0.625,0-0.693-0.264-0.152-0.577
		l8.068-4.673c0.541-0.313,0.694-0.988,0.341-1.504l-4.24-6.198c-0.353-0.516-0.992-0.571-1.427-0.122l-7.48,7.713
		c-0.435,0.449-0.605,0.34-0.38-0.243l3.995-10.34C40.088,3.473,39.764,3,39.138,3H26.263c-0.625,0-0.939,0.469-0.702,1.047
		l4.374,10.641c0.238,0.578,0.06,0.701-0.398,0.275l-8.672-8.078c-0.457-0.426-1.044-0.313-1.311,0.252l-3.138,6.654
		c-0.267,0.565-0.044,1.278,0.497,1.591l6.958,4.04C24.413,19.736,24.344,20,23.719,20z M14.931,48.007
		C13.09,46.064,16,43.759,16,43.759v-0.016c0,0-2.986-2.216-1.21-4.219c1.776-2.003,5.446-0.398,7.329,4.052l0.217,0.252
		C20.602,48.337,16.773,49.949,14.931,48.007z M22.706,53.615l-0.069,0.156c-2.726,1.6-5.42,0.801-5.569-0.944
		c-0.15-1.745,2.125-1.859,2.125-1.859l0.007-0.008c0,0-0.469-2.229,1.256-2.529S23.558,50.57,22.706,53.615z M51.605,29.246
		C53.446,31.188,51,33.493,51,33.493v0.016c0,0,2.522,2.216,0.746,4.219c-1.776,2.003-5.91,0.398-7.793-4.052l0.015-0.252
		C45.702,28.915,49.764,27.303,51.605,29.246z M43.366,23.638l0.069-0.156c2.726-1.6,5.42-0.801,5.569,0.944
		c0.15,1.745-2.125,1.859-2.125,1.859l-0.007,0.008c0,0,0.469,2.229-1.256,2.529C43.891,29.123,42.514,26.682,43.366,23.638z
		 M45.108,39.463l0.189-0.068c3.575,1.037,5.071,3.988,3.699,5.528c-1.371,1.54-3.31-0.313-3.31-0.313l-0.013,0.001
		c0,0-1.527,2.205-3.18,0.972C40.841,44.351,41.815,41.198,45.108,39.463z M39.806,22.682l0.225,0.106
		c2.239,4.032,0.98,7.933-1.57,8.091c-2.55,0.157-2.638-3.165-2.638-3.165l-0.012-0.01c0,0-3.267,0.607-3.645-1.92
		C31.787,23.257,35.395,21.334,39.806,22.682z M27.611,46.374c2.55-0.157,2.638,3.164,2.638,3.164l0.012,0.01
		c0,0,3.267-0.607,3.645,1.92c0.378,2.527-3.23,4.451-7.641,3.102l-0.225-0.106C23.802,50.432,25.061,46.531,27.611,46.374z
		 M20.964,37.789l-0.189,0.068c-3.575-1.037-5.071-3.988-3.699-5.528c1.371-1.54,3.31,0.313,3.31,0.313l0.013-0.001
		c0,0,1.527-2.205,3.18-0.972S24.257,36.054,20.964,37.789z"/>
</g>
</svg>
