<?xml version="1.0" encoding="utf-8"?>
<!-- Generator: Adobe Illustrator 16.0.0, SVG Export Plug-In . SVG Version: 6.00 Build 0)  -->
<!DOCTYPE svg PUBLIC "-//W3C//DTD SVG 1.1//EN" "http://www.w3.org/Graphics/SVG/1.1/DTD/svg11.dtd">
<svg version="1.1" id="Layer_1" xmlns="http://www.w3.org/2000/svg" xmlns:xlink="http://www.w3.org/1999/xlink" x="0px" y="0px"
	 width="50px" height="50px" viewBox="0 0 50 50" enable-background="new 0 0 50 50" xml:space="preserve">
<g>
	<path d="M35.669,32.709l-9.712,5.608v-7.236l-0.31,0.155c-0.213,0.08-0.433,0.121-0.647,0.121c-0.21,0-0.424-0.04-0.639-0.118
		l-0.052-0.007l-0.168-0.078l-0.099-0.05v7.213l-9.712-5.608v-6.495l-1.914-0.964v8.012c0,0.342,0.183,0.658,0.479,0.829
		l11.626,6.713c0.147,0.085,0.313,0.128,0.479,0.128s0.331-0.042,0.479-0.128l11.626-6.713c0.296-0.171,0.479-0.487,0.479-0.829
		v-8.013l-1.914,0.959V32.709z"/>
	<path d="M25.692,13.526l-0.394-0.129c-0.194-0.063-0.403-0.063-0.598,0l-0.393,0.129c0.256,0.588,0.488,1.177,0.691,1.737
		C25.203,14.703,25.437,14.114,25.692,13.526z"/>
	<path d="M38.92,18.542c0-0.006,0.002-0.012,0.002-0.019c-0.001-0.02-0.01-0.039-0.012-0.059c-0.007-0.064-0.019-0.127-0.038-0.188
		c-0.009-0.03-0.021-0.058-0.033-0.086c-0.023-0.054-0.051-0.104-0.083-0.152c-0.019-0.026-0.034-0.052-0.055-0.076
		c-0.038-0.047-0.082-0.087-0.129-0.127c-0.022-0.018-0.041-0.039-0.065-0.055c-0.006-0.003-0.009-0.009-0.015-0.013
		c-0.069-0.046-0.144-0.081-0.221-0.107c-0.002,0-0.004-0.002-0.007-0.003l-2.406-0.791c-0.111,0.123-0.222,0.24-0.328,0.346
		c-1.1,1.1-2.956,2.016-4.677,2.697l2.049,0.832v4.721l-2.84,1.431v-4.931l-3.253-1.719c0.84-0.226,6.019-1.682,8.044-3.708
		c0.591-0.59,1.37-1.505,1.32-2.633c-0.05-1.125-0.836-1.784-1.468-2.313c-0.18-0.151-0.373-0.311-0.557-0.493
		c-0.183-0.183-0.343-0.376-0.494-0.558c-0.52-0.62-1.23-1.47-2.417-1.47c-1.083,0-1.962,0.754-2.529,1.321
		c-2.029,2.029-3.484,7.217-3.709,8.049c-0.224-0.829-1.68-6.02-3.71-8.049c-0.567-0.568-1.446-1.322-2.529-1.322
		c-1.187,0-1.897,0.85-2.417,1.47c-0.151,0.181-0.31,0.374-0.493,0.557s-0.377,0.342-0.557,0.494
		c-0.633,0.53-1.419,1.188-1.469,2.314c-0.05,1.127,0.729,2.043,1.32,2.633c2.025,2.027,7.21,3.483,8.046,3.708l-3.254,1.719v4.931
		l-2.84-1.431v-4.721l2.051-0.833c-1.724-0.682-3.582-1.598-4.68-2.697c-0.105-0.105-0.216-0.223-0.328-0.346l-2.405,0.791
		c-0.002,0-0.004,0.002-0.006,0.002c-0.076,0.026-0.151,0.062-0.222,0.108c-0.006,0.003-0.009,0.009-0.015,0.013
		c-0.024,0.017-0.043,0.037-0.065,0.055c-0.047,0.04-0.091,0.08-0.129,0.126c-0.021,0.024-0.037,0.05-0.055,0.077
		c-0.032,0.048-0.06,0.099-0.083,0.152c-0.012,0.029-0.024,0.057-0.033,0.087c-0.02,0.061-0.031,0.123-0.037,0.188
		c-0.003,0.02-0.012,0.038-0.013,0.059c0,0.006,0.002,0.012,0.002,0.019c0,0.008-0.003,0.016-0.003,0.024v4.348
		c0,0.362,0.204,0.692,0.526,0.854l12.966,6.529c0.014,0.007,0.028,0.004,0.043,0.01c0.123,0.055,0.254,0.092,0.388,0.092
		s0.265-0.037,0.388-0.092c0.015-0.006,0.029-0.003,0.043-0.01l12.966-6.529c0.322-0.163,0.526-0.493,0.526-0.854v-4.348
		C38.923,18.559,38.92,18.55,38.92,18.542z M29.724,11.405c1.868-1.868,2.273-0.431,3.411,0.706c1.136,1.137,2.572,1.542,0.704,3.41
		s-7.47,3.355-7.47,3.355S27.854,13.273,29.724,11.405z M16.865,12.11c1.137-1.136,1.542-2.573,3.41-0.705
		c1.869,1.869,3.355,7.471,3.355,7.471s-5.603-1.486-7.471-3.354S15.729,13.248,16.865,12.11z"/>
</g>
</svg>
