<?xml version="1.0" encoding="iso-8859-1"?>
<!-- Generator: Adobe Illustrator 17.0.2, SVG Export Plug-In . SVG Version: 6.00 Build 0)  -->
<!DOCTYPE svg PUBLIC "-//W3C//DTD SVG 1.1//EN" "http://www.w3.org/Graphics/SVG/1.1/DTD/svg11.dtd">
<svg version="1.1" id="Layer_1" xmlns="http://www.w3.org/2000/svg" xmlns:xlink="http://www.w3.org/1999/xlink" x="0px" y="0px"
	 width="64px" height="64px" viewBox="0 0 64 64" style="enable-background:new 0 0 64 64;" xml:space="preserve">
<g>
	<path d="M57.971,24.709v-9.642c0-0.828-0.672-1.5-1.5-1.5h-13.47c1.371-0.699,2.038-1.807,2.038-2.879
		c0-1.191-0.751-2.294-2.059-3.024c-1.219-0.681-2.917-1.042-4.906-1.042c-2.855,0-5.276,1.894-6.074,4.492
		c-0.798-2.598-3.218-4.492-6.074-4.492c-1.99,0-3.687,0.36-4.906,1.042c-1.309,0.73-2.059,1.833-2.059,3.024
		c0,1.073,0.667,2.18,2.038,2.879H9.378c-0.828,0-1.5,0.672-1.5,1.5v9.642c0,0.828,0.672,1.5,1.5,1.5h1.729v28.563
		c0,0.828,0.672,1.5,1.5,1.5h40.636c0.828,0,1.5-0.672,1.5-1.5V26.209h1.729C57.299,26.209,57.971,25.537,57.971,24.709z
		 M34.362,12.976c0-2.047,1.665-3.712,3.712-3.712c1.518,0,2.803,0.251,3.619,0.706c0.517,0.289,0.705,0.588,0.705,0.718
		c0,0.275-0.822,0.967-2.763,0.967c-1.524,0-2.418,0.914-3.021,1.912h-2.28C34.345,13.371,34.362,13.182,34.362,12.976z
		 M24.365,11.655c-1.941,0-2.763-0.692-2.763-0.967c0-0.13,0.188-0.429,0.705-0.718c0.816-0.456,2.101-0.706,3.619-0.706
		c2.046,0,3.712,1.665,3.712,3.712c0,0.206,0.017,0.395,0.027,0.592h-2.28C26.782,12.569,25.889,11.655,24.365,11.655z
		 M29.377,26.209l-4.952,7.814l-0.838-2.106c-0.227-0.571-0.779-0.946-1.394-0.946h-2.798l2.782-4.762H29.377z M51.742,53.272
		H14.106V26.461h4.45l-3.069,5.253c-0.271,0.464-0.273,1.037-0.006,1.504c0.268,0.466,0.764,0.753,1.301,0.753h4.395l1.548,3.894
		c0.208,0.524,0.692,0.888,1.254,0.939c0.566,0.057,1.104-0.215,1.406-0.69l7.384-11.652h0.146l7.382,11.652
		c0.302,0.476,0.833,0.746,1.407,0.69c0.562-0.052,1.046-0.415,1.254-0.938l1.549-3.895h4.395c0.537,0,1.033-0.287,1.301-0.753
		c0.268-0.467,0.266-1.04-0.006-1.504l-3.069-5.253h4.615V53.272z M46.287,30.971h-2.798c-0.614,0-1.167,0.375-1.394,0.945
		l-0.838,2.107l-4.951-7.814h7.198L46.287,30.971z M54.971,23.209H10.878v-6.642h44.093V23.209z"/>
</g>
</svg>
