<?xml version="1.0" encoding="utf-8"?>
<!-- Generator: Adobe Illustrator 17.1.0, SVG Export Plug-In . SVG Version: 6.00 Build 0)  -->
<!DOCTYPE svg PUBLIC "-//W3C//DTD SVG 1.1//EN" "http://www.w3.org/Graphics/SVG/1.1/DTD/svg11.dtd">
<svg version="1.1" id="Layer_1" xmlns="http://www.w3.org/2000/svg" xmlns:xlink="http://www.w3.org/1999/xlink" x="0px" y="0px"
	 width="1000px" height="1000px" viewBox="0 0 1000 1000" enable-background="new 0 0 1000 1000" xml:space="preserve">
<g>
	<path fill="#1E120D" d="M394.502,62.865c-36.299-26.341-74.607-37.832-113.873-34.15c-33.322,3.124-60.324,14.123-80.258,32.69
		c-19.385,18.057-30.58,42.083-32.374,69.481c-2.367,36.164,12.378,75.592,40.456,108.175c0.492,0.571,0.996,1.132,1.496,1.698
		H70.387v265.731h33.219v456.929h792.788V506.491h33.219V240.76H790.05c0.499-0.565,1.004-1.127,1.496-1.698
		c28.078-32.583,42.823-72.012,40.456-108.175c-1.794-27.398-12.988-51.425-32.374-69.481
		c-19.934-18.568-46.936-29.566-80.258-32.69c-39.265-3.68-77.574,7.809-113.873,34.15c-26.717,19.388-52.331,46.951-76.13,81.925
		c-11.295,16.599-21.103,33.273-29.368,48.659c-8.264-15.386-18.072-32.06-29.368-48.659
		C446.833,109.816,421.219,82.252,394.502,62.865z M138.387,328.816V308.76h723.226v20.057v109.674h-33.219H614.825h-229.65H171.606
		h-33.219V328.816z M453.175,506.491h93.65v136.35L500,621.152l-46.825,21.689V506.491z M259.967,194.672
		c-16.294-18.909-25.309-41.093-24.114-59.343c0.649-9.924,4.306-18.055,10.867-24.167c8.567-7.98,22.488-13.079,40.257-14.745
		c22.491-2.109,44.457,4.815,67.152,21.167c20.247,14.587,40.299,36.274,59.602,64.458c13.919,20.324,25.401,41.105,34.167,58.717
		H337.458C306.386,232.983,278.965,216.72,259.967,194.672z M828.394,895.419H171.606V506.491h213.569v242.787L500,696.092
		l114.825,53.185V506.491h213.569V895.419z M585.586,183.045c19.369-28.464,39.505-50.382,59.85-65.145
		c22.845-16.578,44.952-23.606,67.588-21.483c17.769,1.666,31.689,6.765,40.257,14.745c6.561,6.112,10.217,14.242,10.867,24.167
		c1.195,18.25-7.82,40.435-24.114,59.343c-18.998,22.047-46.42,38.311-77.491,46.087H552.075
		C560.675,223.487,571.918,203.13,585.586,183.045z"/>
</g>
</svg>
