<?xml version="1.0" encoding="utf-8"?>
<!-- Generator: Adobe Illustrator 17.1.0, SVG Export Plug-In . SVG Version: 6.00 Build 0)  -->
<!DOCTYPE svg PUBLIC "-//W3C//DTD SVG 1.1//EN" "http://www.w3.org/Graphics/SVG/1.1/DTD/svg11.dtd">
<svg version="1.1" id="Capa_1" xmlns="http://www.w3.org/2000/svg" xmlns:xlink="http://www.w3.org/1999/xlink" x="0px" y="0px"
	 width="1000px" height="1000px" viewBox="0 0 1000 1000" enable-background="new 0 0 1000 1000" xml:space="preserve">
<path d="M937.89,347.753c-15.592-36.75-48.677-62.118-86.354-73.213c-28.106-8.277-57.97-9.033-87.191-5.847
	c29.142-10.798,59.23-19.286,89.925-23.961c4.716-0.536,9.441-0.973,14.18-1.28c23.907-1.552,43.967-18.825,43.967-43.967
	c0-22.791-20.026-45.522-43.967-43.967c-51.354,3.334-101.526,17.228-148.941,36.79c-50.508,20.837-97.683,46.685-140.788,79.991
	c6.128-26.119,11.014-52.481,12.917-79.338c1.819-25.676-0.063-51.984-6.839-76.867c-7.451-27.36-21.638-51.917-39.947-73.393
	c-9.844-11.546-21.211-21.421-33.094-30.756c-0.466-0.589-0.959-1.151-1.484-1.675c-9.094-9.094-21.832-7.59-31.09,0
	c-18.758,15.379-28.046,40.599-33.341,63.519c-5.558,24.055-7.466,49.071-8.084,73.702c-1.395,55.613,11.175,110.763,40.111,158.674
	c2.104,3.483,4.308,6.925,6.612,10.312c-8.579-1.378-17.31-2.081-26.134-2.081c-12.944,0-25.71,1.547-38.065,4.502
	c-0.36-3.848-0.849-7.7-1.482-11.552c-7.102-43.234-30.614-81.114-66.206-106.664c-28.057-20.14-61.096-30.786-95.547-30.786
	c-52.764,0-102.616,25.564-133.354,68.384c-25.549,35.592-35.709,79.003-28.607,122.237c5.411,32.942,20.359,62.768,42.909,86.407
	c-14.969,10.47-28.268,23.462-39.159,38.634c-46.4,64.639-38.916,151.879,13.58,207.839c-15.309,10.568-28.9,23.758-39.992,39.211
	c-52.742,73.474-35.875,176.158,37.599,228.9c28.057,20.14,61.096,30.786,95.547,30.786c52.764,0,102.616-25.564,133.354-68.384
	c11.041-15.381,19.202-32.225,24.344-49.882c21.772,10.336,45.536,15.716,70.014,15.716c52.764,0,102.616-25.564,133.354-68.384
	c10.95-15.254,19.063-31.947,24.212-49.443c21.383,9.9,44.646,15.049,68.592,15.049c52.764,0,102.616-25.564,133.354-68.384
	c25.549-35.592,35.709-79.003,28.607-122.237s-30.614-81.114-66.206-106.663c-28.057-20.141-61.097-30.786-95.547-30.786
	c-12.971,0-25.763,1.553-38.142,4.519c-2.61-28.171-12.448-55.577-29.001-79.209c2.129-1.825,4.286-3.62,6.484-5.364
	c0.534-0.401,1.068-0.802,1.604-1.201c1.595-1.184,3.21-2.34,4.831-3.487c3.639-2.574,7.354-5.039,11.107-7.442
	c15.736-10.077,32.388-18.71,49.459-26.284c0.755-0.335,2.848-1.229,4.159-1.792c1.597-0.659,3.195-1.318,4.799-1.959
	c4.829-1.932,9.702-3.753,14.6-5.503c9.499-3.394,19.135-6.402,28.861-9.077c9.695-2.666,19.504-4.909,29.384-6.768
	c4.474-0.841,8.969-1.564,13.475-2.217c0.996-0.124,1.993-0.243,2.99-0.358c2.713-0.314,5.433-0.574,8.154-0.811
	c9.497-0.827,19.04-1.109,28.57-0.851c4.435,0.12,8.864,0.407,13.281,0.808c1.01,0.091,2.018,0.197,3.025,0.308
	c0.389,0.08,4.811,0.689,6.151,0.923c8.584,1.497,17.033,3.734,25.23,6.686c0.849,0.306,2.902,1.132,4.014,1.573
	c0.965,0.442,1.925,0.895,2.881,1.357c3.914,1.889,7.696,4.04,11.369,6.359c1.689,1.067,3.334,2.202,4.962,3.359
	c0.264,0.188,0.521,0.387,0.782,0.579c0.112,0.089,0.219,0.175,0.313,0.252c3.385,2.763,6.551,5.784,9.559,8.951
	c1.409,1.484,2.75,3.029,4.068,4.593c0.263,0.312,0.513,0.634,0.77,0.951c0.09,0.12,0.176,0.235,0.25,0.336
	c2.736,3.744,5.167,7.704,7.407,11.761c1.072,1.941,2.058,3.928,3.018,5.927c0.378,0.788,0.733,1.587,1.09,2.384
	c2.022,5.051,3.781,10.268,5.063,15.553c0.28,1.153,0.496,2.321,0.705,3.489c0.012,0.141,0.026,0.295,0.042,0.472
	c0.261,2.792,0.268,5.602,0.195,8.402c-0.036,1.396-0.154,2.788-0.271,4.179c-0.001,0.007-0.001,0.012-0.002,0.019
	c-0.516,3.105-1.292,6.163-2.17,9.183c-0.347,1.193-2.226,6.111-2.185,6.249c-0.845,1.795-1.759,3.558-2.705,5.301
	c-1.35,2.488-2.874,4.877-4.45,7.226c-0.268,0.4-0.548,0.791-0.826,1.183c0.018-0.086-2.074,2.626-2.686,3.334
	c-3.203,3.708-6.773,7.078-10.533,10.214c0.45-0.484-4.324,3.036-5.439,3.743c-2.775,1.759-5.686,3.29-8.642,4.717
	c-0.144,0.07-0.274,0.133-0.391,0.19c-1.143,0.442-2.3,0.845-3.46,1.241c-2.65,0.903-5.369,1.589-8.1,2.196
	c-0.536,0.119-1.076,0.219-1.617,0.319c-0.717,0.101-1.722,0.238-2.257,0.283c-3.3,0.276-6.618,0.219-9.92,0.025
	c-0.411-0.024-1.151-0.104-1.809-0.179c-0.795-0.15-1.588-0.31-2.38-0.475c-2.809-0.585-5.566-1.422-8.276-2.358
	c-0.006-0.002-0.014-0.005-0.021-0.008c-0.626-0.309-1.246-0.627-1.863-0.952c-1.088-0.573-4.055-2.629-4.942-3.166
	c-0.787-0.712-1.552-1.447-2.302-2.196c-0.598-0.597-1.779-2.032-2.547-2.963c-0.642-0.974-1.26-1.964-1.848-2.97
	c-0.533-0.912-1.592-3.268-2.143-4.465c-0.842-2.512-1.472-5.093-1.967-7.695c-0.041-0.545-0.075-1.091-0.106-1.636
	c-0.124-2.172-0.065-4.35,0.074-6.52c0.003-0.042,0.006-0.085,0.009-0.129c0.021-0.111,0.041-0.223,0.063-0.334
	c0.335-1.743,0.817-3.453,1.351-5.144c0.063-0.198,0.135-0.393,0.203-0.589c0.427-0.853,0.895-1.683,1.397-2.493
	c0.576-0.722,1.33-1.641,1.87-2.168c0.047-0.046,0.098-0.088,0.146-0.133c0.48-0.303,1.193-0.662,1.874-0.983
	c0.521-0.151,1.045-0.287,1.574-0.41c0.475-0.049,0.959-0.09,1.345-0.102c0.789-0.023,1.577-0.003,2.365,0.039
	c0.772,0.107,1.707,0.247,2.285,0.375c1.96,0.433,3.877,1.042,5.778,1.679c11.366,3.808,23.997-4.281,27.042-15.354
	c3.31-12.032-4.003-23.239-15.354-27.043c-20.897-7.002-46.196-3.918-60.929,13.865c-14.247,17.196-17.58,39.232-13.002,60.726
	c4.425,20.775,19.286,40.162,38.527,49.247c27.159,12.823,57.622,10.312,84.043-2.998c25.091-12.64,43.409-35.869,53.358-61.692
	c4.66-12.096,6.554-25.88,5.611-38.781C947.887,373.463,943.413,360.771,937.89,347.753z M483.295,191.726
	c-0.016-0.105-0.03-0.194-0.044-0.288c-0.013-0.105-0.026-0.207-0.04-0.326c-0.266-2.134-0.482-4.273-0.69-6.413
	c-2.14-21.965-1.095-44.619,0.769-66.571c0.242-2.849,0.531-5.693,0.839-8.536c0.156-1.435,0.329-2.868,0.503-4.302
	c0.009-0.077,0.017-0.139,0.025-0.208c0.865-6.107,1.964-12.18,3.27-18.208c1.194-5.509,2.664-10.955,4.366-16.328
	c0.821-2.592,1.749-5.147,2.721-7.686c0.038-0.098,0.085-0.218,0.137-0.345c0.602-1.339,1.239-2.662,1.892-3.977
	c0.214-0.431,0.449-0.85,0.672-1.277c0.63,0.58,1.265,1.154,1.89,1.739c5.388,5.042,10.442,10.431,15.228,16.045
	c1.059,1.242,2.085,2.513,3.11,3.784c0.02,0.025,0.036,0.045,0.056,0.069c0.121,0.163,0.258,0.348,0.426,0.573
	c1.885,2.519,3.664,5.114,5.405,7.733c3.65,5.49,6.891,11.244,9.845,17.134c1.001,1.996,1.929,4.029,2.834,6.07
	c-0.516-1.049,1.952,5.04,2.405,6.302c2.124,5.91,3.824,11.965,5.267,18.074c0.664,2.811,1.223,5.645,1.749,8.484
	c0.206,1.111,0.858,5.603,1.026,6.578c0.627,5.463,1.005,10.953,1.216,16.446c0.477,12.409-0.169,24.846-1.402,37.194
	c-0.226,2.262-0.491,4.52-0.767,6.776c0.058-0.637-0.814,5.813-1.016,7.127c-1.031,6.685-2.254,13.34-3.564,19.975
	c-4.142,20.968-9.48,41.678-15.022,62.32c-0.247-0.321-0.46-0.599-0.574-0.753c-1.288-1.741-2.526-3.519-3.756-5.3
	c-7.89-11.422-14.505-23.701-20.231-36.333c-0.371-0.818-0.722-1.645-1.081-2.468c-0.133-0.349-1.098-2.653-1.319-3.206
	c-1.261-3.153-2.433-6.341-3.575-9.539c-2.468-6.913-4.593-13.944-6.5-21.031c-1.739-6.463-3.182-13.004-4.435-19.578
	C484.313,198.238,483.788,194.984,483.295,191.726z M507.241,410.17c36.229,26.007,45.575,75.712,22.13,112.965
	c-1.046,1.364-2.074,2.743-3.079,4.144c-1.021,1.423-2.008,2.861-2.977,4.305c-15.884,19.427-39.873,30.882-65.177,30.882
	c-17.61,0-34.518-5.455-48.895-15.775c-36.23-26.007-45.575-75.713-22.129-112.966c1.045-1.363,2.073-2.743,3.079-4.143
	c1.021-1.423,2.009-2.862,2.981-4.309c15.884-19.424,39.871-30.878,65.173-30.878C475.957,394.395,492.865,399.85,507.241,410.17z
	 M163.824,532.21c15.748-21.938,41.305-35.036,68.365-35.036c17.611,0,34.518,5.455,48.896,15.775
	c36.228,26.006,45.574,75.709,22.131,112.963c-1.046,1.364-2.075,2.744-3.081,4.146c-1.022,1.424-2.008,2.862-2.978,4.307
	c-15.884,19.426-39.872,30.88-65.176,30.88c-17.611,0-34.518-5.455-48.895-15.775C145.447,622.451,136.806,569.849,163.824,532.21z
	 M188.683,284.932c15.748-21.938,41.305-35.036,68.365-35.036c17.611,0,34.518,5.455,48.895,15.775
	c18.233,13.088,30.278,32.494,33.916,54.641c3.357,20.438-0.833,40.945-11.782,58.318c-1.047,1.365-2.077,2.747-3.084,4.149
	c-1.021,1.423-2.008,2.861-2.977,4.305c-15.884,19.427-39.873,30.882-65.177,30.882c-17.61,0-34.518-5.455-48.895-15.775
	c-18.233-13.088-30.278-32.493-33.916-54.641S175.594,303.165,188.683,284.932z M273.933,877.258
	c-15.748,21.938-41.305,35.036-68.365,35.036c-17.611,0-34.518-5.455-48.895-15.775c-37.639-27.019-46.279-79.621-19.261-117.26
	c15.748-21.938,41.305-35.036,68.365-35.036c17.61,0,34.518,5.455,48.895,15.775c18.233,13.088,30.278,32.493,33.916,54.641
	S287.021,859.025,273.933,877.258z M501.644,774.708c-15.748,21.938-41.305,35.036-68.364,35.036
	c-17.611,0-34.519-5.455-48.896-15.775c-36.229-26.006-45.574-75.71-22.131-112.963c1.046-1.364,2.075-2.744,3.081-4.145
	c1.022-1.423,2.008-2.862,2.978-4.306c15.884-19.426,39.872-30.881,65.176-30.881c17.61,0,34.518,5.455,48.895,15.775
	c18.233,13.088,30.278,32.493,33.916,54.641S514.732,756.476,501.644,774.708z M708.541,554.67
	c18.233,13.088,30.278,32.493,33.916,54.641s-1.567,44.386-14.655,62.619c-15.748,21.938-41.305,35.036-68.364,35.036
	c-17.611,0-34.518-5.455-48.895-15.775c-36.229-26.007-45.575-75.712-22.13-112.965c1.046-1.364,2.074-2.743,3.079-4.144
	c1.021-1.423,2.008-2.861,2.977-4.305c15.884-19.427,39.873-30.882,65.177-30.882C677.256,538.895,694.164,544.35,708.541,554.67z"
	/>
</svg>
