<?xml version="1.0" encoding="iso-8859-1"?>
<!-- Generator: Adobe Illustrator 17.0.0, SVG Export Plug-In . SVG Version: 6.00 Build 0)  -->
<!DOCTYPE svg PUBLIC "-//W3C//DTD SVG 1.1//EN" "http://www.w3.org/Graphics/SVG/1.1/DTD/svg11.dtd">
<svg version="1.1" id="Capa_1" xmlns="http://www.w3.org/2000/svg" xmlns:xlink="http://www.w3.org/1999/xlink" x="0px" y="0px"
	 width="64px" height="64px" viewBox="0 0 64 64" style="enable-background:new 0 0 64 64;" xml:space="preserve">
<g>
	<path d="M26.751,27.211c-0.203-2.18-2.017-3.893-4.25-3.893c-1.217,0-2.31,0.512-3.09,1.326c-0.773-0.756-1.828-1.225-2.995-1.225
		c-2.369,0-4.29,1.921-4.29,4.29c0,2.13,1.557,3.885,3.593,4.22c-0.06,0.285-0.093,0.579-0.093,0.882
		c0,2.215,1.685,4.017,3.839,4.245c0,0.015-0.004,0.029-0.004,0.045c0,2.369,1.921,4.29,4.29,4.29c0,2.169,1.615,3.943,3.705,4.231
		c-0.123,0.398-0.208,0.813-0.208,1.252c0,2.369,1.921,4.29,4.29,4.29c2.37,0,4.29-1.921,4.29-4.29c0-0.61-0.131-1.189-0.361-1.714
		c0.014,0,0.026,0.004,0.04,0.004c2.329,0,4.214-1.859,4.278-4.173c1.475-0.678,2.506-2.16,2.506-3.891c2.37,0,4.29-1.921,4.29-4.29
		c0-0.639-0.148-1.239-0.399-1.783c1.145-0.77,1.899-2.078,1.899-3.561c0-2.369-1.921-4.29-4.29-4.29
		c-0.838,0-1.614,0.25-2.275,0.666c-0.603-0.323-1.282-0.524-2.015-0.524c-2.233,0-4.047,1.713-4.25,3.893
		c-0.167-1.797-1.43-3.262-3.124-3.725c0.081-1.004,0.147-2.508,0.041-4.211C36.701,16.841,35.291,11,35.291,11
		c-2.077-0.15-3.242,2.019-3.845,3.777c-0.69-2.479-1.948-4.852-4.178-6.35c-0.459-0.31-1.08-0.185-1.388,0.273
		c-0.308,0.459-0.185,1.08,0.273,1.388c4.357,2.924,4.191,10.517,3.967,13.322C28.302,23.79,26.927,25.326,26.751,27.211z"/>
</g>
</svg>
