<?xml version="1.0" encoding="utf-8"?>
<!-- Generator: Adobe Illustrator 17.1.0, SVG Export Plug-In . SVG Version: 6.00 Build 0)  -->
<!DOCTYPE svg PUBLIC "-//W3C//DTD SVG 1.1//EN" "http://www.w3.org/Graphics/SVG/1.1/DTD/svg11.dtd">
<svg version="1.1" id="Capa_1" xmlns="http://www.w3.org/2000/svg" xmlns:xlink="http://www.w3.org/1999/xlink" x="0px" y="0px"
	 width="1000px" height="1000px" viewBox="0 0 1000 1000" enable-background="new 0 0 1000 1000" xml:space="preserve">
<path d="M958.2,186.6c-7.1-10.4-20.5-12-30.8-5.7c-2.6,1.6-5.2,3.1-7.9,4.6c-0.4,0.2-1.4,0.7-2.1,1.1c-0.8,0.4-1.5,0.8-2.3,1.1
	c-5.9,2.9-12,5.4-18.2,7.7c-5.7,2.1-11.5,4-17.4,5.7c-3,0.8-5.9,1.6-8.9,2.4c-1.5,0.4-2.9,0.7-4.4,1c-0.7,0.1-1.4,0.3-2.1,0.4
	c-26,5.3-52.7,7.1-79.1,7.8c-53.6,1.3-107.3-3.3-160.8-0.3c-50.4,2.9-101.8,14-143,44.7c-8.2,6.1-15.9,12.8-23,20
	c10.1-25.3,22.2-49.8,36.9-72.8c10-14.7,20.9-28.7,33.4-41.5c2.6-2.6,5.3-5.2,8-7.7c0.1-0.1,0.3-0.2,0.4-0.4
	c1.9-1.7,3.9-3.3,5.9-4.9c7-5.7,14.4-10.8,22-15.7c3.3-2.1,6.7-4.1,10.2-6.1c1.7-1,3.4-1.9,5.2-2.9c0.1-0.1,0.2-0.1,0.3-0.2
	c0,0,0,0,0,0c7.5-3.7,15.2-7,23-10c14.9-5.8,30.4-10.3,46-13.9c34.7-7.2,70.1-10.2,105.5-11.9c18.1-0.8,31.7-18.4,30.3-35.9
	c-1.6-18.5-17.8-31.1-35.9-30.3c-53.5,2.5-107.7,8.4-158.6,25.9C538.1,67,491,99.6,457,143.8c-55.8,72.5-81.9,161.2-98.5,249.9
	c-11.3,0.2-22.5,2-33.3,5.3c-18.7,5.8-36.2,16.3-51.1,31.4c-17.3-29.9-47-52.4-83.6-59.2C124,358.8,59.9,402.8,47.5,469.2
	c-11.4,61.4,25.3,120.7,83.3,139.2c-6.5,11.5-11.3,24.2-13.8,37.9c-11.7,62.8,27,123.6,87.5,140.4c-7.5,12.3-13,26.2-15.8,41.3
	c-12.4,66.5,31.6,130.6,98.1,142.9c66.4,12.4,130.5-31.6,142.9-98.1c3.3-17.7,2.6-35.3-1.5-51.8c59.4,1.8,113-39.9,124.2-100.1
	c2.9-15.4,2.7-30.7-0.1-45.2c61.5,4.6,118.1-37.8,129.6-99.8c12.4-66.4-31.6-130.5-98.1-142.9c-41.6-7.7-82.3,6.6-110,34.8
	c3.3-3.3-20.1-32.2-22.8-35.1c-7.1-7.6-15.2-14.3-24-19.8c4.1-6.1,8.7-12,13.8-17.4c1.9-2.1,4-4.1,6.1-6c0.7-0.7,1.6-1.4,2.1-1.8
	c1.6-1.3,3.2-2.6,4.9-3.8c5.9-4.5,12.2-8.4,18.7-11.9c0.2-0.1,0.5-0.3,0.7-0.4c1.5-0.8,3.1-1.5,4.7-2.2c3.6-1.6,7.2-3.1,10.9-4.5
	c7.2-2.8,14.7-5.1,22.1-7.1c1.8-0.5,3.7-0.9,5.5-1.4c0.6-0.1,1.8-0.4,2.8-0.7c3.5-0.7,7-1.4,10.5-2c16.6-2.9,33.5-4.5,50.3-5.6
	c70.6-4.3,141.8,2.9,212-6.4c33.9-4.5,67.4-13.2,97-30.8c29.1-17.3,51.6-44.7,64.4-76c3.7-9.2,6.7-18.7,9.3-28.2
	C964.3,201.1,962.8,193.3,958.2,186.6z M194.5,430.5c-1.8,9.8-15.9,15.3-31.5,12.4c-15.6-2.9-26.8-13.2-25-22.9
	c1.8-9.7,15.9-15.3,31.5-12.4C185.2,410.5,196.4,420.8,194.5,430.5z M276.3,617c-1.8,9.8-15.9,15.3-31.5,12.4s-26.8-13.1-24.9-22.9
	c1.8-9.7,15.9-15.3,31.5-12.4C266.9,597,278.1,607.3,276.3,617z M557.7,490.8c1.8-9.7,15.9-15.3,31.5-12.4
	c15.6,2.9,26.8,13.2,25,22.9c-1.8,9.8-15.9,15.3-31.5,12.4C567.1,510.8,555.9,500.6,557.7,490.8z M350,787.8
	c-1.8,9.8-15.9,15.3-31.5,12.4c-15.6-2.9-26.8-13.2-25-22.9c1.8-9.7,15.9-15.3,31.5-12.4C340.6,767.8,351.8,778.1,350,787.8z
	 M400.6,461.6c-1.8,9.8-15.9,15.3-31.5,12.4c-15.6-2.9-26.8-13.2-24.9-22.9c1.8-9.7,15.9-15.3,31.5-12.4
	C391.2,441.6,402.4,451.8,400.6,461.6z M445.8,623.3c15.6,2.9,26.7,13.2,24.9,22.9c-1.8,9.7-15.9,15.3-31.5,12.4
	c-15.6-2.9-26.8-13.2-25-22.9C416.1,625.9,430.2,620.4,445.8,623.3z M900.1,241.4c-1.1,1.5-2.2,3-3.3,4.4c-2.4,3.1-4.9,6-7.6,8.9
	c-1.9,2-3.9,4-5.9,5.9c-0.7,0.7-1.6,1.4-2.1,1.8c-1.6,1.3-3.2,2.6-4.8,3.8c-5.8,4.4-12.1,8.3-18.5,11.8c0,0-0.1,0-0.1,0.1
	c-0.1,0.1-0.2,0.1-0.4,0.2c-1.6,0.8-3.2,1.5-4.8,2.3c-3.6,1.6-7.2,3.1-10.8,4.5c-7.2,2.7-14.6,5-22,6.9c-1.8,0.5-3.7,0.9-5.5,1.4
	c-0.5,0.1-1.1,0.2-1.6,0.4c-3.9,0.8-7.8,1.5-11.7,2.2c-69.5,11.9-140.9,4.8-211.1,7.6c-37.7,1.5-77.5,5.9-113.4,19
	c0.7-0.8,1.4-1.7,2.1-2.5c3.3-3.8,6.7-7.5,10.2-11.2c1.7-1.8,3.5-3.5,5.4-5.3c0.4-0.4,0.8-0.7,1.1-1.1c0.7-0.6,1.6-1.5,2.1-1.8
	c8-6.8,16.6-12.9,25.7-18.2c1.5-0.9,2.9-1.7,4.4-2.5c-0.2,0.2,4.5-2.3,5.7-2.8c5.4-2.5,10.9-4.7,16.5-6.7c5.5-2,11.1-3.6,16.7-5.1
	c2.4-0.7,4.8-1.2,7.3-1.8c0.8-0.2,1.7-0.4,2.1-0.5c2.1-0.4,4.2-0.8,6.3-1.2c12.6-2.3,25.4-3.8,38.2-4.7
	c92.5-7.1,191,12.4,280.3-16.3C900.4,241,900.3,241.2,900.1,241.4z"/>
</svg>
