<?xml version="1.0" encoding="utf-8"?>
<!-- Generator: Adobe Illustrator 17.1.0, SVG Export Plug-In . SVG Version: 6.00 Build 0)  -->
<!DOCTYPE svg PUBLIC "-//W3C//DTD SVG 1.1//EN" "http://www.w3.org/Graphics/SVG/1.1/DTD/svg11.dtd">
<svg version="1.1" id="Capa_1" xmlns="http://www.w3.org/2000/svg" xmlns:xlink="http://www.w3.org/1999/xlink" x="0px" y="0px"
	 width="1000px" height="1000px" viewBox="0 0 1000 1000" enable-background="new 0 0 1000 1000" xml:space="preserve">
<path d="M813.704,19.224c-7.501-7.501-17.676-11.716-28.284-11.716s-20.783,4.214-28.284,11.716L11.532,764.827
	c-15.621,15.621-15.621,40.947,0,56.568c54.126,54.126,117.261,96.041,187.65,124.581c67.968,27.558,139.78,41.531,213.442,41.531
	c73.649,0,145.455-13.973,213.422-41.529c70.394-28.541,133.531-70.457,187.657-124.583
	c54.133-54.133,96.052-117.274,124.591-187.672c27.556-67.97,41.525-139.781,41.521-213.439
	c-0.004-73.653-13.98-145.46-41.539-213.425C909.736,136.473,867.824,73.343,813.704,19.224z M571.102,397.676l80.489-40
	c22.091-10.979,48.9-1.97,59.878,20.121c10.979,22.092,1.97,48.9-20.121,59.879c-12.939,6.43-27.71,5.895-39.757,0L571.102,397.676z
	 M623.233,603.269c-7.858,23.384-33.185,35.97-56.569,28.113c-13.696-4.602-23.763-15.426-28.112-28.113l-28.63-85.198l85.198,28.63
	C618.505,554.559,631.091,579.885,623.233,603.269z M409.893,719.131c-22.092,10.979-48.9,1.97-59.879-20.122
	c-6.43-12.939-5.895-27.71,0-39.757l40-80.489l40,80.489C440.992,681.344,431.984,708.152,409.893,719.131z M864.156,603.667
	c-24.494,60.419-60.501,114.641-107.021,161.16c-46.514,46.514-100.731,82.518-161.148,107.014
	c-58.373,23.667-120.064,35.667-183.362,35.667c-63.31,0-125.009-12.001-183.384-35.669
	c-48.085-19.497-92.246-46.286-131.721-79.862l47.953-47.953C310.32,881.861,555.986,873.305,710.8,718.491
	s163.37-400.479,25.532-565.326l47.953-47.953c33.572,39.47,60.357,83.625,79.854,131.709
	c23.67,58.373,35.673,120.066,35.677,183.368C899.82,483.594,887.822,545.292,864.156,603.667z"/>
</svg>
