<?xml version="1.0" encoding="utf-8"?>
<!-- Generator: Adobe Illustrator 17.1.0, SVG Export Plug-In . SVG Version: 6.00 Build 0)  -->
<!DOCTYPE svg PUBLIC "-//W3C//DTD SVG 1.1//EN" "http://www.w3.org/Graphics/SVG/1.1/DTD/svg11.dtd">
<svg version="1.1" id="Capa_1" xmlns="http://www.w3.org/2000/svg" xmlns:xlink="http://www.w3.org/1999/xlink" x="0px" y="0px"
	 width="1000px" height="1000px" viewBox="0 0 1000 1000" enable-background="new 0 0 1000 1000" xml:space="preserve">
<path d="M788.525,489H194.159c-57.469-29.913-88.593-93.938-88.593-157.926c0-94.58,76.604-171.133,171.111-171.133
	c0.926,0,1.785,0.201,2.686,0.252C317.061,73.796,403.005,13.267,503.341,13.267s186.357,60.53,224.029,147.025
	c92.574,2.212,167.063,77.606,167.063,170.783C894.434,402.406,850.654,463.363,788.525,489z M321.561,759.394l7.817,19.969
	L500,861.358l170.552-81.995l7.853-19.969L500,673.642L321.561,759.394z M238.859,548.147l71.734,183.233L465.369,657
	L238.859,548.147z M394.38,945.4l0.766,2.088c9.294,23.707,32.45,39.513,58.267,39.513H500h46.447
	c25.816,0,48.973-15.806,58.267-39.513l0.836-2.088L500,894.676L394.38,945.4z M345.429,820.361l37.984,97.025L465.369,878
	L345.429,820.361z M752.391,519H500H247.469L500,640.358L752.391,519z M534.49,657l154.775,74.38L761,548.147L534.49,657z
	 M616.446,917.385l37.984-97.025L534.49,878L616.446,917.385z"/>
</svg>
