<?xml version="1.0" encoding="iso-8859-1"?>
<!-- Generator: Adobe Illustrator 17.1.0, SVG Export Plug-In . SVG Version: 6.00 Build 0)  -->
<!DOCTYPE svg PUBLIC "-//W3C//DTD SVG 1.1//EN" "http://www.w3.org/Graphics/SVG/1.1/DTD/svg11.dtd">
<svg version="1.1" id="Layer_1" xmlns="http://www.w3.org/2000/svg" xmlns:xlink="http://www.w3.org/1999/xlink" x="0px" y="0px"
	 viewBox="0 0 64 64" style="enable-background:new 0 0 64 64;" xml:space="preserve">
<g>
	<path d="M45.006,17.25c-9.333-1.167-5-7.25-5-7.25H41c1.105,0,2-1.137,2-2.5S42.105,5,41,5H24c-1.105,0-2,1.137-2,2.5
		s0.895,2.5,2,2.5h2c0,0,4.333,5.833-5,7c-9.333,1.167-10.167,11.417-8,22.583S18,58,18,58h13h4h13.006c0,0,2.833-7.5,5-18.667
		C55.172,28.167,54.339,18.417,45.006,17.25z M42.429,37.404c1.701-0.105,1.759,2.11,1.759,2.11l0.008,0.007
		c0,0,2.179-0.405,2.431,1.28s-2.154,2.968-5.095,2.069l-0.15-0.071C39.889,40.111,40.728,37.509,42.429,37.404z M20.259,34.91
		c1.212-1.36,2.924,0.277,2.924,0.277l0.011-0.001c0,0,1.349-1.948,2.809-0.859c1.46,1.089,0.6,3.874-2.309,5.407l-0.167,0.06
		C20.369,38.877,19.047,36.27,20.259,34.91z M18.21,48.76C16.583,47.044,19,45.008,19,45.008v-0.015c0,0-2.484-1.958-0.915-3.728
		s4.966-0.352,6.629,3.579l0.115,0.223C23.297,49.053,19.837,50.477,18.21,48.76z M25.233,53.715l-0.061,0.138
		c-2.409,1.413-4.788,0.707-4.92-0.834c-0.132-1.541,1.877-1.643,1.877-1.643l0.006-0.008c0,0-0.415-1.969,1.11-2.234
		C24.769,48.869,25.986,51.025,25.233,53.715z M28.378,54.559l-0.199-0.094c-1.978-3.562-0.866-7.009,1.387-7.148
		c2.253-0.139,2.331,2.796,2.331,2.796l0.011,0.009c0,0,2.886-0.536,3.221,1.696C35.462,54.051,32.275,55.75,28.378,54.559z
		 M31.147,44.193l-0.019-0.01c0,0-4.175,1.775-5.426-1.48c-1.251-3.256,2.988-6.886,9.265-6.394l0.163,0.08
		c4.176,4.712,3.821,10.277,0.469,11.241C32.247,48.595,31.147,44.193,31.147,44.193z M44.982,54.536l-0.128,0.089
		c-5.272,1.174-9.3-1.407-8.629-4.323s4.43-1.911,4.43-1.911l0.015-0.01c0,0,0.404-3.87,3.367-3.455
		C47,45.341,47.961,50.031,44.982,54.536z"/>
</g>
</svg>
