<?xml version="1.0" encoding="utf-8"?>
<!-- Generator: Adobe Illustrator 16.0.4, SVG Export Plug-In . SVG Version: 6.00 Build 0)  -->
<!DOCTYPE svg PUBLIC "-//W3C//DTD SVG 1.1//EN" "http://www.w3.org/Graphics/SVG/1.1/DTD/svg11.dtd">
<svg version="1.1" id="Layer_1" xmlns="http://www.w3.org/2000/svg" xmlns:xlink="http://www.w3.org/1999/xlink" x="0px" y="0px"
	 width="50px" height="50px" viewBox="0 0 50 50" enable-background="new 0 0 50 50" xml:space="preserve">
<path d="M35.928,31.237c0-0.088-0.057-0.221-0.068-0.306c-0.092-0.729-0.285-1.425-0.664-2.062
	c-0.357-0.601-0.844-1.075-1.396-1.398c-0.356-0.208-0.75-0.355-1.184-0.444c-0.685-0.145-1.355-0.095-2.019,0.128
	c-0.244,0.083-0.487,0.167-0.729,0.244c0.689-1.822,2.182-2.988,2.182-2.988l-1.527-1.104c-0.72,0.936-1.157,1.865-1.419,2.7
	c-0.054-0.415-0.205-0.964-0.595-1.355c-0.707-0.707-1.938-0.622-1.938-0.622s-0.085,1.232,0.625,1.938
	c0.535,0.536,1.378,0.617,1.748,0.625c-0.073,0.312-0.123,0.604-0.156,0.873c-0.315-0.094-0.629-0.202-0.943-0.31
	c-0.664-0.223-1.334-0.272-2.021-0.128c-0.434,0.089-0.824,0.236-1.182,0.444c-0.507,0.297-0.945,0.734-1.292,1.266V18.115
	c0-0.117-0.041-0.229-0.115-0.319l-2.285-2.755c0.247-0.031,0.44-0.233,0.44-0.488v-2.875c0-0.276-0.224-0.5-0.5-0.5h-4.366
	c-0.276,0-0.5,0.224-0.5,0.5v2.875c0,0.255,0.193,0.457,0.439,0.488l-2.284,2.755c-0.075,0.089-0.115,0.202-0.115,0.319v19.957
	c0,0.276,0.224,0.5,0.5,0.5h8.286c0.276,0,0.5-0.224,0.5-0.5v-2.829c0.289,0.659,0.643,1.287,1.056,1.888
	c0.283,0.409,0.583,0.798,0.96,1.11c0.298,0.244,0.609,0.506,0.999,0.577c0.042,0.006,0.088,0,0.134,0c0.051,0,0.104,0,0.156,0
	c0.06,0,0.121,0.008,0.184,0c0.54-0.085,1.032-0.371,1.559-0.5c0.074-0.018,0.143-0.034,0.218-0.048
	c0.189-0.04,0.388-0.062,0.585-0.064c0.007,0,0.013,0,0.021,0c0.006,0,0.013,0,0.021,0c0.199,0.003,0.398,0.024,0.587,0.064
	c0.071,0.015,0.146,0.03,0.219,0.048c0.526,0.129,1.017,0.415,1.555,0.5c0.062,0.008,0.125,0,0.186,0c0.052,0,0.105,0,0.16,0
	c0.041,0,0.087,0.006,0.131,0c0.389-0.07,0.701-0.333,0.999-0.577c0.379-0.312,0.677-0.701,0.958-1.11
	c0.798-1.159,1.392-2.41,1.676-3.817c0.075-0.375,0.173-0.748,0.211-1.129C35.95,31.854,35.928,31.642,35.928,31.237z
	 M17.022,12.176h3.366v1.875h-3.366V12.176z M17.749,15.051h1.911l2.689,3.242v1.404h-7.286v-1.404L17.749,15.051z"/>
</svg>
