<?xml version="1.0" encoding="utf-8"?>
<!-- Generator: Adobe Illustrator 17.1.0, SVG Export Plug-In . SVG Version: 6.00 Build 0)  -->
<!DOCTYPE svg PUBLIC "-//W3C//DTD SVG 1.1//EN" "http://www.w3.org/Graphics/SVG/1.1/DTD/svg11.dtd">
<svg version="1.1" id="Capa_1" xmlns="http://www.w3.org/2000/svg" xmlns:xlink="http://www.w3.org/1999/xlink" x="0px" y="0px"
	 width="1000px" height="1000px" viewBox="0 0 1000 1000" enable-background="new 0 0 1000 1000" xml:space="preserve">
<path d="M644.534,22.304c-87.557,0-169.874,34.097-231.786,96.009c-61.912,61.912-96.009,144.229-96.009,231.786
	s34.096,169.873,96.009,231.786c61.912,61.912,144.229,96.009,231.786,96.009s169.874-34.097,231.786-96.009
	c61.912-61.912,96.009-144.229,96.009-231.786s-34.096-169.873-96.009-231.786C814.407,56.401,732.091,22.304,644.534,22.304z
	 M405.882,317.378c5.543-41.291,21.612-79.994,46.889-113.111c3.642-4.772,10.228-4.959,14.473-0.714l117.119,116.939
	c4.245,4.245,2.82,7.507-3.184,7.507H415.547C409.544,328,405.083,323.328,405.882,317.378z M452.771,495.861
	c-25.278-33.117-41.346-71.839-46.889-113.13c-0.799-5.95,3.662-10.731,9.666-10.731h165.631c6.003,0,7.429,3.361,3.184,7.606
	L467.243,496.684C462.998,500.929,456.414,500.633,452.771,495.861z M623,579.084c0,6.003-4.955,10.465-10.905,9.666
	c-41.291-5.543-80.135-21.611-113.252-46.889c-4.772-3.642-5.074-10.228-0.829-14.473L615.223,410.27
	c4.245-4.245,7.777-2.82,7.777,3.184V579.084z M623,286.743c0,6.003-3.545,7.429-7.79,3.184L498.04,172.808
	c-4.245-4.245-3.995-10.83,0.777-14.472c33.117-25.278,72-41.346,113.291-46.889c5.95-0.799,10.892,3.662,10.892,9.666V286.743z
	 M667,121.113c0-6.003,4.488-10.465,10.438-9.666c41.291,5.543,79.902,21.611,113.019,46.889c4.772,3.642,4.957,10.228,0.712,14.473
	L674.368,289.927c-4.245,4.245-7.368,2.82-7.368-3.184V121.113z M790.367,541.861c-33.117,25.278-71.591,41.346-112.883,46.889
	c-5.95,0.799-10.484-3.662-10.484-9.666V413.454c0-6.003,3.078-7.429,7.323-3.184L791.26,527.389
	C795.505,531.634,795.139,538.219,790.367,541.861z M883.185,382.72c-5.543,41.291-21.612,80.043-46.889,113.16
	c-3.642,4.772-10.228,5.008-14.473,0.763L704.705,379.606c-4.245-4.245-2.82-7.606,3.184-7.606H873.52
	C879.523,372,883.984,376.771,883.185,382.72z M873.52,328H707.889c-6.003,0-7.429-3.262-3.184-7.507l117.119-117.029
	c4.245-4.245,10.83-3.924,14.472,0.848c25.278,33.117,41.346,71.752,46.889,113.044C883.984,323.305,879.523,328,873.52,328z"/>
<path d="M350.126,981.497c83.925,0,163.029-31.321,223.97-88.442c4.38-4.106,11.263-10.99,15.358-15.381
	c0.001-0.002,0.003-0.003,0.004-0.005c4.094-4.39,3.857-11.496-0.388-15.741L402.598,675.456l-66.539-66.539
	c-4.245-4.245-11.128-11.128-15.373-15.372L141.9,414.758c-4.245-4.245-11.352-4.482-15.742-0.387
	c-2.645,2.466-5.217,4.945-7.824,7.552c-61.912,61.912-96.005,144.225-96.005,231.782c0,87.557,34.098,169.872,96.011,231.784
	S262.568,981.497,350.126,981.497z M371,717.071c0-6.003,3.993-7.429,8.238-3.184l117.395,117.119
	c4.245,4.245,4.245,10.83-0.528,14.472c-33.108,25.266-72.475,41.344-113.751,46.889c-5.95,0.799-11.353-3.662-11.353-9.665V717.071
	z M327,716.99v165.631c0,6.003-4.04,10.464-9.99,9.665c-41.277-5.545-79.685-21.623-112.794-46.889
	c-4.772-3.642-4.643-10.227-0.398-14.472l116.307-117.119C324.37,709.561,327,710.987,327,716.99z M111.462,622.432
	c5.545-41.277,21.623-80.474,46.889-113.582c3.642-4.772,10.227-5.24,14.472-0.995l117.119,117.789
	c4.245,4.245,2.82,8.356-3.184,8.356H121.127C115.123,634,110.662,628.382,111.462,622.432z M121.074,676h165.631
	c6.003,0,7.429,2.872,3.184,7.117L172.77,799.951c-4.245,4.245-10.83,3.826-14.472-0.946
	c-25.266-33.108-41.343-71.425-46.889-112.702C110.61,680.354,115.071,676,121.074,676z"/>
</svg>
