<?xml version="1.0" encoding="utf-8"?>
<!-- Generator: Adobe Illustrator 17.1.0, SVG Export Plug-In . SVG Version: 6.00 Build 0)  -->
<!DOCTYPE svg PUBLIC "-//W3C//DTD SVG 1.1//EN" "http://www.w3.org/Graphics/SVG/1.1/DTD/svg11.dtd">
<svg version="1.1" id="Capa_1" xmlns="http://www.w3.org/2000/svg" xmlns:xlink="http://www.w3.org/1999/xlink" x="0px" y="0px"
	 width="1000px" height="1000px" viewBox="0 0 1000 1000" enable-background="new 0 0 1000 1000" xml:space="preserve">
<path d="M511.482,973.155c27.331,0,49.518-22.122,49.518-49.453V712.336c167-23.95,296.661-168.225,296.661-342.811
	c0-191.393-155.051-346.37-346.441-346.37c-191.389,0-346.225,154.977-346.225,346.37C164.995,544.111,294,688.386,462,712.336
	v211.366C462,951.032,484.187,973.155,511.482,973.155z M368.231,419.01c0-74.22,50.688-148.441,143.489-148.441
	c73.628,0,108.244,68.677,108.244,101.344c0,13.872-2.752,48.667-23.532,66.881c-24.158,20.987-69.862-3.174-55.604-31.447
	c18.581-31.111,1.988-63.115-35.245-63.115c-38.383,0-56.196,34.006-56.196,79.729c0,44.552,40.333,97.444,91.441,101.646
	c94.573,7.775,148.409-68.214,148.409-146.147c0-107.669-86.458-187.434-187.977-187.434c-119.958,0-195.137,93.376-195.137,207.2
	c0,26.513,2.527,55.397,10.059,93.794c5.751,28.708-24.928,31.482-32.667,12.484c-13.63-33.26-28.48-86.493-28.48-126.044
	c0-154.613,103.885-257.331,246.226-257.331c136.135,0,257.281,112.621,257.281,257.331c0,93.987-69.305,217.71-206.625,217.71
	C444.437,597.169,368.231,527.847,368.231,419.01z"/>
</svg>
