<?xml version="1.0" encoding="utf-8"?>
<!-- Generator: Adobe Illustrator 17.1.0, SVG Export Plug-In . SVG Version: 6.00 Build 0)  -->
<!DOCTYPE svg PUBLIC "-//W3C//DTD SVG 1.1//EN" "http://www.w3.org/Graphics/SVG/1.1/DTD/svg11.dtd">
<svg version="1.1" id="Capa_1" xmlns="http://www.w3.org/2000/svg" xmlns:xlink="http://www.w3.org/1999/xlink" x="0px" y="0px"
	 width="1000px" height="1000px" viewBox="0 0 1000 1000" enable-background="new 0 0 1000 1000" xml:space="preserve">
<path d="M300.056,254.746c68.646,0,130.814-15.675,130.814-35.043c0-19.347-62.168-35.043-130.814-35.043
	c-68.671,0-130.835,15.696-130.835,35.043C169.221,239.071,231.385,254.746,300.056,254.746z"/>
<path d="M111.764,616.232c53.793,18.131,122.467,28.116,193.369,28.116c4.306,0,9.695-0.165,14.4-0.326
	C333.575,643.541,345,631.777,345,617.799V486.928c0-21.677,21.089-44.546,59.382-64.396
	c40.778-21.138,99.835-37.969,166.292-47.393c13.24-1.877,23.607-13.818,23.602-27.188l-0.088-145.61l-0.504-1.892
	c-8.471-31.828-42.875-59.11-99.494-78.898c-52.909-18.491-121.484-28.675-193.095-28.675c-71.616,0-140.192,10.184-193.096,28.675
	c-56.605,19.785-91.009,47.066-99.493,78.893l-0.507,1.904l0.231,334.699l0.688,2.188
	C21.202,578.365,71.626,602.705,111.764,616.232z M90.954,220.664c0-15.874,30.087-31.892,55.853-40.785
	c40.997-14.15,95.8-21.943,154.316-21.943c58.514,0,113.313,7.793,154.304,21.943c18.737,6.468,33.835,14.126,43.664,22.148
	c5.556,4.535,12.179,11.449,12.179,18.637c0,7.194-6.624,14.112-12.181,18.649c-9.828,8.023-24.926,15.684-43.662,22.153
	c-40.988,14.152-95.787,21.945-154.304,21.945c-58.518,0-113.321-7.794-154.315-21.945c-18.74-6.47-33.841-14.13-43.67-22.154
	C97.579,234.775,90.954,227.857,90.954,220.664z"/>
<path d="M896.036,438.731C841.293,417.833,768.832,406.324,692,406.324c-76.823,0-149.282,11.509-204.028,32.408
	C428.663,461.372,396,493.291,396,528.607v307.215c0,35.308,32.664,67.22,91.973,89.857C542.721,946.576,615.18,958.084,692,958.084
	c76.829,0,149.29-11.508,204.036-32.405C955.34,903.043,988,871.131,988,835.822V528.607C988,493.29,955.34,461.371,896.036,438.731
	z M895.007,534.348c0,7.196-6.623,14.114-12.179,18.65c-9.826,8.023-24.923,15.684-43.658,22.152
	c-40.984,14.15-95.786,21.943-154.31,21.943c-58.527,0-113.333-7.793-154.323-21.944c-18.737-6.469-33.836-14.129-43.664-22.152
	c-5.557-4.537-12.181-11.455-12.181-18.65c0-7.188,6.623-14.103,12.18-18.637c9.828-8.021,24.928-15.681,43.666-22.148
	c40.993-14.15,95.799-21.943,154.323-21.943c58.521,0,113.322,7.793,154.311,21.943c18.735,6.468,33.832,14.126,43.659,22.148
	C888.385,520.245,895.007,527.16,895.007,534.348z"/>
<path d="M684.882,498.343c-68.671,0-130.857,15.696-130.857,35.043c0,19.368,62.186,35.043,130.857,35.043
	c68.646,0,131.901-15.675,131.901-35.043C816.783,514.039,753.527,498.343,684.882,498.343z"/>
</svg>
