<?xml version="1.0" encoding="utf-8"?>
<!-- Generator: Adobe Illustrator 17.1.0, SVG Export Plug-In . SVG Version: 6.00 Build 0)  -->
<!DOCTYPE svg PUBLIC "-//W3C//DTD SVG 1.1//EN" "http://www.w3.org/Graphics/SVG/1.1/DTD/svg11.dtd">
<svg version="1.1" id="Capa_1" xmlns="http://www.w3.org/2000/svg" xmlns:xlink="http://www.w3.org/1999/xlink" x="0px" y="0px"
	 width="1000px" height="1000px" viewBox="0 0 1000 1000" enable-background="new 0 0 1000 1000" xml:space="preserve">
<path d="M98,453v375h-0.198l0.083,134.312C97.888,969.23,103.542,975,110.46,975h749.131c20.694,0,37.474-16.77,37.485-37.464
	L897.117,862H898v-34V453v-40h-0.637l0.044-80.797c0.004-6.918-3.271-17.157-7.314-22.77L780.148,157H214.357L104.723,309.434
	c-4.043,5.613-7.231,15.771-7.228,22.689L97.57,453H98z M818,453v375H178V453H818z"/>
<path d="M769,62.728C769,41.978,752.022,25,731.272,25H497.495H263.172C242.177,25,225,42.177,225,63.172V127h544V62.728z"/>
<polygon points="249,590.042 283.552,726 317.089,726 351,590.042 351,726 384,726 384,553 331.446,553 300.497,670.676 
	269.195,553 217,553 217,726 249,726 "/>
<rect x="417" y="553" width="35" height="173"/>
<polygon points="608,697 521,697 521,555 486,555 486,726 608,726 "/>
<polygon points="668,673.71 696.124,644.959 743.429,726 788.499,726 720.011,620.437 784.968,553 738.133,553 668,629.935 668,553 
	633,553 633,726 668,726 "/>
</svg>
