<?xml version="1.0" encoding="utf-8"?>
<!-- Generator: Adobe Illustrator 17.1.0, SVG Export Plug-In . SVG Version: 6.00 Build 0)  -->
<!DOCTYPE svg PUBLIC "-//W3C//DTD SVG 1.1//EN" "http://www.w3.org/Graphics/SVG/1.1/DTD/svg11.dtd">
<svg version="1.1" id="Capa_1" xmlns="http://www.w3.org/2000/svg" xmlns:xlink="http://www.w3.org/1999/xlink" x="0px" y="0px"
	 width="1000px" height="1000px" viewBox="0 0 1000 1000" enable-background="new 0 0 1000 1000" xml:space="preserve">
<path d="M598.3,494.5c-33.1,4.5-69.9,6.8-109.4,6.8c-65.7,0-117-6.3-123.7-7.2c-6.6-0.6-13.2-1.3-19.7-2
	c-26.4,139.5-60.8,476.3,226.5,466.4C902,947.3,553.1,708.6,598.3,494.5z"/>
<path d="M484,40.9c-190.7,0-352.4,142.2-368.1,323.7c-1.7,20.1,9.3,39.4,28.1,48.8c3.5,1.8,71.1,35,207.6,49.4
	c5.5,0.6,11.2,1.1,16.9,1.7c0,0,52.6,7,120.4,7c34.4,0,116-7.8,119-8.1c141.1-14,211.9-47.9,215.6-49.7c19-9.3,30.2-28.7,28.5-49
	C836.3,183.1,674.7,40.9,484,40.9z M229.4,376.8c-22.6,0-41.4-18.8-41.4-41.4s18.8-41.4,41.4-41.4c22.6,0,41.4,18.8,41.4,41.4
	S252,376.8,229.4,376.8z M639.2,140.9c22.6,0,41.4,18.8,41.4,41.4c0,22.6-18.8,41.4-41.4,41.4c-22.6,0-41.4-18.8-41.4-41.4
	C597.8,159.7,616.7,140.9,639.2,140.9z M448.8,142.9c22.6,0,41.4,18.8,41.4,41.4s-18.8,41.4-41.4,41.4s-41.4-18.8-41.4-41.4
	S426.3,142.9,448.8,142.9z M641.3,380.9c-22.6,0-41.4-18.8-41.4-41.4s18.8-41.4,41.4-41.4c22.6,0,41.4,18.8,41.4,41.4
	C682.7,362.1,663.8,380.9,641.3,380.9z"/>
</svg>
