<?xml version="1.0" encoding="utf-8"?>
<!-- Generator: Adobe Illustrator 17.1.0, SVG Export Plug-In . SVG Version: 6.00 Build 0)  -->
<!DOCTYPE svg PUBLIC "-//W3C//DTD SVG 1.1//EN" "http://www.w3.org/Graphics/SVG/1.1/DTD/svg11.dtd">
<svg version="1.1" id="Capa_1" xmlns="http://www.w3.org/2000/svg" xmlns:xlink="http://www.w3.org/1999/xlink" x="0px" y="0px"
	 width="1000px" height="1000px" viewBox="0 0 1000 1000" enable-background="new 0 0 1000 1000" xml:space="preserve">
<path d="M57.462,501.964c4.751,2.4,98.963,48.66,289.599,65.834l-10.403,163.858c-8.848,134.02,61.882,238.115,158.966,238.115
	c97.031,0,167.857-104.095,159.01-238.115l-10.399-164.142c189.831-17.314,284.935-62.866,289.782-65.222
	c24.47-12.047,39.013-36.984,36.753-63.246C950.488,204.978,741.974,21.546,496.048,21.546
	c-246.023,0-454.54,183.431-474.823,417.499C19.013,465.023,33.272,489.82,57.462,501.964z M415.483,735.607l10.351-162.87
	c21.742,0.8,44.097,1.412,67.815,1.412c25.125,0,48.795-0.655,71.761-1.6l10.356,162.87c3.618,55.059-10.168,104.799-36.802,133.316
	c-12.943,13.791-27.481,20.803-43.34,20.803c-15.859,0-30.401-7.011-43.297-20.803C425.646,840.218,411.859,790.479,415.483,735.607
	z"/>
</svg>
