<?xml version="1.0" encoding="utf-8"?>
<!-- Generator: Adobe Illustrator 17.1.0, SVG Export Plug-In . SVG Version: 6.00 Build 0)  -->
<!DOCTYPE svg PUBLIC "-//W3C//DTD SVG 1.1//EN" "http://www.w3.org/Graphics/SVG/1.1/DTD/svg11.dtd">
<svg version="1.1" id="Capa_1" xmlns="http://www.w3.org/2000/svg" xmlns:xlink="http://www.w3.org/1999/xlink" x="0px" y="0px"
	 width="1000px" height="1000px" viewBox="0 0 1000 1000" enable-background="new 0 0 1000 1000" xml:space="preserve">
<path d="M762.197,205.683c-2.111,0-4.238,0.478-6.215,1.458l-48.77,24.18c-19.856,9.797-56.195,11.524-98.273,13.525
	c-33.29,1.579-71.024,3.368-114.709,9.165c-101.878,13.663-182.122,68.824-209.436,143.96
	c-14.129,38.867-13.852,82.506,0.804,126.201c14.199,42.338,41.516,84.612,76.916,119.034c24.411,23.736,52.435,43.395,81.042,56.85
	c31.385,14.762,63.133,22.247,94.362,22.247c25.751,0,50.755-5.173,74.316-15.377c73.396-31.785,123.763-115.13,131.443-217.51
	c3.213-42.826,2.877-80.137,2.579-113.056l-0.02-2.149l-0.004-0.449c-0.397-43.653-0.712-78.139,7.727-98.431l21.143-50.213
	c2.271-5.392,0.949-11.626-3.313-15.633C769.136,206.987,765.688,205.683,762.197,205.683z M677.569,374.767l0.006,0.558
	c0.326,32.039,0.695,68.352-2.368,108.958c-2.861,38.198-12.99,73.359-29.294,101.69c-15.831,27.512-36.919,47.557-60.983,57.968
	c-8.012,3.467-16.468,5.955-25.133,7.393c-6.52,1.083-13.318,1.631-20.21,1.631c-28.817,0-59.885-9.379-89.843-27.124
	c-28.981-17.166-55.454-41.641-74.54-68.916c-15.085-21.555-25.524-44.799-30.191-67.22c-4.995-24-3.594-46.96,4.166-68.243
	c8.983-24.639,27.763-46.867,54.308-64.28c27.334-17.931,61.866-30.105,99.865-35.208c40.408-5.367,76.784-7.098,108.878-8.625
	l2.429-0.118c23.53-1.142,44.645-2.167,63.803-4.549C677.165,328.513,677.356,350.38,677.569,374.767z"/>
<path d="M610.611,360.318c-3.036,0-6.093,0.691-8.93,2.107l-24.23,12.101c-3.992,1.905-17.84,2.553-28.975,3.075l-0.229,0.011
	c-0.026,0.001-0.053,0.002-0.079,0.004l-0.529,0.027c-12.536,0.636-26.744,1.358-43.188,3.586
	c-43.855,5.783-78.849,30.377-91.332,64.195c-6.956,18.846-6.863,39.697,0.27,60.299c6.243,18.032,17.54,35.073,32.67,49.28
	c22.517,21.143,50.772,33.269,77.523,33.269c11.77,0,23.065-2.297,33.575-6.828c16.738-7.216,31.085-20.181,41.49-37.493
	c9.837-16.366,15.869-36.221,17.445-57.418c1.263-16.617,1.079-30.795,0.944-43.304L617,442.583v-0.241
	c0-11.165-0.107-25.06,1.603-29.14c0.009-0.022,0.032-0.044,0.042-0.067l10.44-25.154c3.198-7.711,1.274-16.598-4.832-22.291
	C620.467,362.16,615.568,360.318,610.611,360.318z M555.961,482.041c-1.582,21.141-10.698,38.834-22.683,44.017
	c-3.067,1.326-6.479,1.999-10.142,1.999c-15.291,0-33.976-11.445-45.437-27.833c-8.483-12.13-11.356-24.541-7.884-34.049
	c4.482-12.273,21.615-22.399,42.632-25.197c0.021-0.003,0.04-0.005,0.06-0.008c14.18-1.931,26.787-2.573,38.484-3.064
	c0.026-0.001,0.053-0.002,0.079-0.003c1.912-0.088,3.813-0.178,5.701-0.275c0.008,1.093,0.017,2.194,0.025,3.302l0.018,2.144
	l0.013,2.286C556.89,456.268,556.959,468.633,555.961,482.041z"/>
<path d="M297.28,777.872c-12.312-9.249-24.414-19.401-36.082-30.313c-28.603-26.75-54.331-57.527-76.164-90.912l-30.735-0.829
	c-15.506-0.418-20.28,9.174-8.992,19.812c16.195,15.261,32.603,26.917,32.603,26.917c-35.096,15.849-90.255-5.65-122.022-21.068
	c-13.954-6.772-21.867-0.914-16.157,13.509c36.861,93.118,115.36,87.712,115.36,87.712c-30.18,54.407-92.898,69.047-129.413,72.873
	c-15.427,1.616-18.949,10.166-5.482,17.861c72.014,41.152,159.091-9.979,159.091-9.979c1.862,48.992,37.505,93.762,61.022,118.134
	c10.771,11.162,14.194,8.114,10.625-6.981c-13.598-57.502,9.146-134.025,9.146-134.025c15.829,22.604,31.947,36.023,44.767,43.927
	c13.202,8.141,16.959,1.571,11.235-12.845C306.571,847.712,300.792,812.634,297.28,777.872z"/>
<path d="M936.966,28.301c-2.432,0-5.52,0.855-9.158,2.659l-49.877,24.732c-39.827,19.55-102.89,22.62-182.867,26.499
	c-57.624,2.74-122.995,5.825-197.184,15.82c-166.604,22.208-297.403,110.909-341.357,231.65
	c-9.767,26.763-15.219,54.999-16.313,83.46c-3.268,84.964,30.795,174.37,83.693,246.97c17.438,23.932,36.919,46.04,57.788,65.558
	c3.972,3.715,8,7.324,12.067,10.846c9.894,8.566,20.052,16.559,30.419,23.878c73.781,52.091,163.751,92.721,254.076,92.721
	c36.78,0,73.625-6.739,109.451-22.185c117.983-50.866,198.974-186.585,211.555-354.137c5.641-74.814,4.966-140.308,4.409-198.167
	c-0.808-79.894-1.506-142.913,15.816-183.801l21.609-51.357C945.119,33.878,943.18,28.3,936.966,28.301z M842.74,279.198
	c0.625,56.617,1.261,120.767-4.223,192.999c-10.779,144.958-77.85,260.991-174.845,302.878
	c-28.212,12.183-58.227,17.691-88.409,17.691c-22.014,0-44.118-2.931-65.671-8.339C372.584,750.048,260.899,645.081,215.67,512.149
	c-17.827-52.395-21.031-109.15-1.952-161.674c36.091-99.359,148.104-172.981,292.195-192.141
	c71.613-9.593,135.571-12.689,192.094-15.379c58.08-2.744,107.973-5.156,149.966-13.933
	C841.684,171.374,842.172,221.227,842.74,279.198z"/>
</svg>
