<?xml version="1.0" encoding="utf-8"?>
<!-- Generator: Adobe Illustrator 17.1.0, SVG Export Plug-In . SVG Version: 6.00 Build 0)  -->
<!DOCTYPE svg PUBLIC "-//W3C//DTD SVG 1.1//EN" "http://www.w3.org/Graphics/SVG/1.1/DTD/svg11.dtd">
<svg version="1.1" id="Capa_1" xmlns="http://www.w3.org/2000/svg" xmlns:xlink="http://www.w3.org/1999/xlink" x="0px" y="0px"
	 width="1000px" height="1000px" viewBox="0 0 1000 1000" enable-background="new 0 0 1000 1000" xml:space="preserve">
<path d="M676.3,381.3c-91.9-21.5-126.9-78.3-135.7-161.7c-4.8-46.4-6.7-106-9.3-158.6c-0.9-17.9-15.9-33.4-33.4-34.7
	c-17.5-1.3-32.7,12.2-33.7,30.1c-1.4,24-2.6,49.8-4.3,66.8c-5,50.9-7.6,102.3-16.4,152.6c-9,51.6-39.6,84-94.2,96.6
	c-78.8,18.2-150.7,53-208.2,112.2C1.5,628.6,50.8,849.6,234.8,924.9c17.4,7.1,22.5-0.6,12.1-16.3
	c-102.7-155.3-77.1-363.4,56.5-456.9c15.4-10.8,24.9-11,19.8-2.8c-3.5,5.6-6.4,10.2-9.5,14.7c-54.4,78.1-81.1,164.6-77,259.6
	c0.1,3.2,0.8,6.4,1.3,9.6c3.5,25.9,7.5,51.8,15.5,76.7c7.5,23.4,18.6,45.6,32.9,65.7c13.9,19.5,30.7,37,49.6,51.7
	c15.7,12.1,121.6,76.4,137.5,39c5.3-12.3,23.1-111.5,25.6-133c6.4-56.9,10.4-125.7,10.6-183c0-9.3-1-22.5-2.5-33.4
	c-0.4-4-1.1-8.4,3.2-7.3c2.5,1.3,3.5,4.2,4.3,7.3c13.2,50.1,21.6,103.9,24.5,155.5c1.2,22.3,1.4,44.7,2.3,67
	c1.2,28.9,2.9,57.8,4.5,86.7c0.5,8.3,0.9,16.6,1.4,24.9c0.8,13.7,15.8,22.7,33,17.5c128.4-38.9,204.9-174.4,176.9-324
	c-2.2-11.8-4.8-23.6-7.1-35.4c-1-5-2-9.9-3-14.9c-1.7-8.2,4.9-1.8,13,15.1c45.7,95,44.3,190.9,2.8,288c-7.4,17.3,0.5,27.3,17.8,20.1
	C908.1,864.1,974,701.7,915.4,571.9C868.4,467.8,782.4,406.2,676.3,381.3z"/>
</svg>
