<?xml version="1.0" encoding="utf-8"?>
<!-- Generator: Adobe Illustrator 17.1.0, SVG Export Plug-In . SVG Version: 6.00 Build 0)  -->
<!DOCTYPE svg PUBLIC "-//W3C//DTD SVG 1.1//EN" "http://www.w3.org/Graphics/SVG/1.1/DTD/svg11.dtd">
<svg version="1.1" id="Capa_1" xmlns="http://www.w3.org/2000/svg" xmlns:xlink="http://www.w3.org/1999/xlink" x="0px" y="0px"
	 width="1000px" height="1000px" viewBox="0 0 1000 1000" enable-background="new 0 0 1000 1000" xml:space="preserve">
<path d="M868.1,274.5c-25.2-6.5-56.6,5.5-80.3,13.4c-17.8,6-34.8,14.7-51,24.4c16.9-38.5,28.6-83.7,18.3-124.7
	c-17.2-68.9-82.6-127.8-119.6-156.5c-14-10.8-32.4-5.9-38.5,10.7c-16.3,44.4-37.8,131,5.6,203.2c31.4,52.3,45.8,97.1,52.3,128.3
	c-4.3,4-8.6,8.1-12.7,12.3c-22.6-43.2-67.5-107.2-144-134.5c-120.6-43-197.3-2.7-279.6,79.6C92.8,456.4,81.2,628.5,161.7,844.4
	c5.8,13.5-1.3,28-13.8,42.6c-10.6,14.1-6.8,24.4,10.9,25.4c33-1.3,68,7,81.3,11.7c205,76.9,391.4,73.7,518.4-53.3
	c76.7-76.7,123.5-157.7,88-271.3c-23.7-75.7-98.4-126.5-145.5-152c37.2-37.9,79.8-64.7,131.4-78.2c25.9-6.8,65.1-15.9,69.3-48
	C904.2,301.4,887.6,279.5,868.1,274.5z"/>
</svg>
