<?xml version="1.0" encoding="utf-8"?>
<!-- Generator: Adobe Illustrator 16.0.0, SVG Export Plug-In . SVG Version: 6.00 Build 0)  -->
<!DOCTYPE svg PUBLIC "-//W3C//DTD SVG 1.1//EN" "http://www.w3.org/Graphics/SVG/1.1/DTD/svg11.dtd">
<svg version="1.1" id="Layer_1" xmlns="http://www.w3.org/2000/svg" xmlns:xlink="http://www.w3.org/1999/xlink" x="0px" y="0px"
	 width="100px" height="100px" viewBox="0 0 100 100" enable-background="new 0 0 100 100" xml:space="preserve">
<g>
	<path d="M35.53,50.161c1.898,0,3.63-0.711,4.957-1.874l9.286,9.286V80.94c0,0.275,0.224,0.5,0.5,0.5s0.501-0.225,0.501-0.5V67.426
		c0.01-0.01,0.022-0.014,0.035-0.022l8.703-8.704c1.325,1.163,3.059,1.874,4.956,1.874c4.156,0,7.537-3.381,7.537-7.538
		c0-4.156-3.381-7.538-7.537-7.538c-4.155,0-7.536,3.382-7.536,7.538c0,1.897,0.711,3.63,1.873,4.957l-8.031,8.032V33.609
		c3.924-0.259,7.037-3.523,7.037-7.512c0-4.156-3.381-7.538-7.538-7.538c-4.156,0-7.538,3.381-7.538,7.538
		c0,3.987,3.115,7.253,7.038,7.512V56.16l-8.579-8.579c1.163-1.326,1.874-3.06,1.874-4.957c0-4.155-3.382-7.536-7.538-7.536
		c-4.156,0-7.537,3.381-7.537,7.536S31.375,50.161,35.53,50.161z"/>
</g>
</svg>
