<?xml version="1.0" encoding="iso-8859-1"?>
<!-- Generator: Adobe Illustrator 16.0.0, SVG Export Plug-In . SVG Version: 6.00 Build 0)  -->
<!DOCTYPE svg PUBLIC "-//W3C//DTD SVG 1.1//EN" "http://www.w3.org/Graphics/SVG/1.1/DTD/svg11.dtd">
<svg version="1.1" id="Layer_1" xmlns="http://www.w3.org/2000/svg" xmlns:xlink="http://www.w3.org/1999/xlink" x="0px" y="0px"
	 width="36px" height="36px" viewBox="0 0 36 36" style="enable-background:new 0 0 36 36;" xml:space="preserve">
<path style="fill:#010101;" d="M26.201,29.107c-0.644-0.388-0.563,0.617-2.481-0.974c-1.88-1.559-2.93-0.591-4.608-0.551
	c-0.072-0.31-0.121-0.646-0.115-1.028c-0.005-0.205,0.015-0.424,0.037-0.645c0.05-0.147,0.17-0.504,0.33-0.979
	c0.137-0.303,0.24-0.681,0.449-1.035c0.102-0.177,0.177-0.379,0.308-0.549c0.128-0.171,0.258-0.345,0.388-0.519l0.458-0.457
	c0.155-0.147,0.341-0.255,0.503-0.38c0.262-0.206,0.536-0.347,0.783-0.488c0.036,0.015,0.067,0.029,0.11,0.042
	c0.097,0.031,0.216,0.079,0.34,0.111c0.126,0.036,0.264,0.071,0.405,0.1c0.146,0.032,0.291,0.054,0.444,0.073
	c0.152,0.019,0.305,0.025,0.459,0.031c0.152-0.003,0.307-0.004,0.456-0.021c0.15-0.021,0.299-0.032,0.445-0.069
	c0.289-0.06,0.564-0.149,0.823-0.268c0.128-0.052,0.258-0.127,0.38-0.19c0.12-0.063,0.242-0.145,0.356-0.214
	c0.113-0.07,0.226-0.142,0.333-0.214c0.109-0.074,0.206-0.138,0.286-0.191c0.083-0.048,0.157-0.109,0.207-0.14
	c0.054-0.039,0.081-0.059,0.081-0.059s-0.014-0.033-0.042-0.085c-0.028-0.05-0.069-0.137-0.134-0.219
	c-0.063-0.084-0.144-0.205-0.246-0.298c-0.104-0.096-0.229-0.196-0.371-0.295c-0.143-0.092-0.302-0.166-0.479-0.24
	c-0.175-0.073-0.358-0.111-0.554-0.151c-0.194-0.035-0.388-0.044-0.591-0.042c-0.198,0.008-0.396,0.031-0.59,0.069
	c-0.188,0.048-0.382,0.099-0.558,0.175c-0.178,0.073-0.347,0.159-0.501,0.262c-0.312,0.197-0.568,0.449-0.764,0.7
	c-0.097,0.128-0.18,0.252-0.245,0.372c-0.069,0.121-0.117,0.241-0.158,0.338c-0.021,0.044-0.037,0.09-0.05,0.131
	c0.054-0.027,0.11-0.056,0.174-0.087c0.312-0.151,0.736-0.335,1.176-0.476c0.221-0.07,0.444-0.126,0.655-0.171
	c0.107-0.017,0.21-0.032,0.31-0.048c0.098-0.009,0.192-0.017,0.277-0.024c0.085,0.001,0.164,0.001,0.234,0.002
	c0.069-0.002,0.131,0.01,0.18,0.015c0.1,0.011,0.156,0.019,0.156,0.019s-0.058-0.002-0.155-0.006c-0.051,0-0.112-0.009-0.18-0.001
	c-0.069,0.006-0.147,0.011-0.232,0.018c-0.084,0.014-0.174,0.028-0.271,0.043c-0.094,0.024-0.193,0.048-0.296,0.072
	c-0.205,0.06-0.419,0.132-0.629,0.217c-0.258,0.105-0.496,0.224-0.719,0.341c-0.123,0.042-0.259,0.089-0.404,0.149
	c-0.295,0.161-0.682,0.283-1.024,0.538c-0.172,0.125-0.367,0.232-0.533,0.383c-0.163,0.155-0.329,0.313-0.495,0.471
	c-0.133,0.186-0.266,0.372-0.396,0.556c-0.133,0.183-0.206,0.394-0.307,0.58c-0.209,0.375-0.27,0.773-0.389,1.088
	c-0.086,0.325-0.122,0.604-0.163,0.795c-0.012,0.062-0.019,0.099-0.027,0.143c0.03-0.27,0.071-0.548,0.112-0.834
	c0.104-0.555,0.237-1.135,0.396-1.735c0.155-0.603,0.354-1.212,0.536-1.854c0.177-0.694,0.33-1.302,0.456-1.992
	c0.066-0.474,0.132-0.946,0.181-1.416c0.158-0.271,0.348-0.571,0.507-0.911c0.089-0.19,0.2-0.369,0.303-0.56
	c0.092-0.197,0.242-0.34,0.373-0.53c0.229-0.297,0.482-0.575,0.735-0.833c0.095,0.008,0.202,0.021,0.315,0.023
	c0.131,0.005,0.273,0.006,0.417,0c0.149-0.004,0.296-0.018,0.449-0.035c0.152-0.019,0.302-0.049,0.453-0.08
	c0.147-0.039,0.297-0.077,0.438-0.13c0.142-0.056,0.283-0.103,0.416-0.174c0.267-0.127,0.513-0.28,0.735-0.457
	c0.112-0.08,0.22-0.185,0.323-0.275c0.102-0.091,0.201-0.198,0.295-0.293c0.094-0.096,0.186-0.191,0.272-0.287
	c0.088-0.099,0.167-0.184,0.231-0.255c0.069-0.066,0.127-0.144,0.168-0.185c0.043-0.051,0.064-0.076,0.064-0.076
	s-0.021-0.029-0.061-0.073c-0.04-0.041-0.101-0.116-0.183-0.18c-0.081-0.067-0.188-0.165-0.311-0.23
	c-0.124-0.068-0.269-0.136-0.431-0.197c-0.16-0.056-0.333-0.09-0.522-0.119c-0.188-0.029-0.375-0.022-0.574-0.015
	c-0.197,0.013-0.387,0.051-0.584,0.101c-0.19,0.056-0.377,0.126-0.556,0.209c-0.172,0.092-0.348,0.187-0.5,0.303
	c-0.155,0.114-0.298,0.237-0.424,0.374c-0.255,0.267-0.444,0.572-0.573,0.863c-0.063,0.146-0.114,0.287-0.149,0.42
	c-0.038,0.134-0.056,0.262-0.073,0.365c-0.01,0.048-0.014,0.097-0.017,0.14c0.046-0.04,0.094-0.081,0.148-0.126
	c0.266-0.222,0.635-0.502,1.027-0.743c0.197-0.121,0.401-0.229,0.596-0.323c0.1-0.042,0.196-0.081,0.289-0.12
	c0.093-0.032,0.183-0.063,0.263-0.091c0.083-0.019,0.16-0.038,0.229-0.054c0.066-0.019,0.13-0.021,0.178-0.028
	c0.1-0.014,0.156-0.02,0.156-0.02s-0.057,0.012-0.152,0.031c-0.049,0.012-0.11,0.019-0.175,0.042
	c-0.065,0.022-0.14,0.046-0.221,0.072c-0.079,0.034-0.162,0.069-0.254,0.107c-0.085,0.046-0.176,0.093-0.27,0.141
	c-0.185,0.106-0.375,0.229-0.559,0.361c-0.124,0.09-0.235,0.185-0.35,0.278c-0.184,0.134-0.371,0.279-0.556,0.453
	c-0.316,0.281-0.615,0.618-0.908,0.967c-0.117,0.178-0.285,0.359-0.375,0.563c-0.101,0.197-0.212,0.39-0.295,0.579
	c-0.094,0.211-0.186,0.406-0.275,0.592c0.005-0.075,0.018-0.151,0.021-0.227c0.069-0.676,0.046-1.346,0.013-1.993
	c0.008-0.647-0.135-1.269-0.214-1.854c-0.072-0.589-0.288-1.123-0.416-1.621c-0.103-0.396-0.279-0.731-0.434-1.047
	c0.034,0.004,0.073,0.012,0.102,0.015c-0.036-0.066-0.078-0.141-0.126-0.222c-0.125-0.217-0.3-0.481-0.491-0.747
	c-0.053-0.076-0.106-0.158-0.154-0.226c-0.222-0.317-0.377-0.528-0.465-0.646c0.013,0.01,0.023,0.019,0.036,0.028
	c0.162,0.143,0.33,0.301,0.487,0.471c0.314,0.337,0.596,0.705,0.792,0.989c0.041,0.059,0.076,0.11,0.11,0.161
	c0.008-0.042,0.019-0.091,0.021-0.14c0.011-0.104,0.027-0.231,0.026-0.371c0.001-0.137-0.01-0.286-0.031-0.444
	c-0.047-0.314-0.148-0.66-0.322-0.984c-0.085-0.166-0.19-0.322-0.31-0.474C19.285,8.096,19.142,7.957,19,7.822
	c-0.149-0.127-0.311-0.245-0.479-0.35c-0.177-0.1-0.349-0.188-0.536-0.252c-0.189-0.061-0.368-0.117-0.558-0.139
	c-0.19-0.023-0.365-0.036-0.534-0.025c-0.174,0.017-0.331,0.042-0.469,0.075c-0.135,0.03-0.264,0.097-0.36,0.14
	c-0.096,0.039-0.174,0.096-0.225,0.124C15.79,7.428,15.762,7.45,15.762,7.45s0.014,0.03,0.042,0.091
	c0.028,0.05,0.063,0.14,0.112,0.223c0.043,0.086,0.098,0.188,0.155,0.307c0.059,0.116,0.121,0.232,0.187,0.351
	c0.064,0.115,0.132,0.246,0.206,0.36c0.075,0.115,0.151,0.245,0.237,0.352c0.168,0.229,0.363,0.443,0.587,0.637
	c0.109,0.104,0.233,0.187,0.355,0.278c0.121,0.089,0.255,0.165,0.386,0.242c0.139,0.07,0.274,0.14,0.416,0.197
	c0.143,0.059,0.281,0.111,0.424,0.154c0.136,0.045,0.272,0.08,0.398,0.11c0.095,0.391,0.266,0.801,0.338,1.284
	c0.061,0.493,0.205,1.007,0.23,1.574c0.025,0.566,0.105,1.153,0.073,1.772c-0.005,0.308-0.01,0.621-0.015,0.938
	c-0.026,0.316-0.054,0.636-0.081,0.959c-0.021,0.451-0.089,0.896-0.161,1.34c-0.001-0.015-0.002-0.022-0.004-0.039
	c-0.03-0.148-0.007-0.384-0.113-0.63c-0.08-0.254-0.177-0.553-0.354-0.837c-0.146-0.302-0.376-0.574-0.578-0.866
	c-0.244-0.256-0.472-0.528-0.726-0.742c-0.237-0.229-0.493-0.408-0.706-0.563c-0.06-0.047-0.114-0.077-0.171-0.113
	c-0.182-0.161-0.378-0.325-0.594-0.481c-0.184-0.133-0.374-0.255-0.559-0.361c-0.094-0.048-0.185-0.095-0.27-0.141
	c-0.092-0.038-0.175-0.073-0.254-0.107c-0.081-0.026-0.155-0.05-0.221-0.072c-0.064-0.023-0.126-0.03-0.175-0.042
	c-0.096-0.02-0.152-0.031-0.152-0.031s0.057,0.006,0.156,0.02c0.048,0.007,0.111,0.01,0.178,0.028
	c0.068,0.016,0.146,0.035,0.229,0.054c0.08,0.028,0.17,0.059,0.263,0.091c0.093,0.039,0.189,0.078,0.289,0.12
	c0.194,0.094,0.398,0.202,0.596,0.323c0.393,0.241,0.762,0.521,1.027,0.743c0.055,0.045,0.103,0.086,0.148,0.126
	c-0.003-0.043-0.007-0.092-0.017-0.14c-0.018-0.104-0.035-0.231-0.073-0.365c-0.035-0.133-0.086-0.273-0.149-0.42
	c-0.129-0.291-0.318-0.597-0.573-0.863c-0.126-0.137-0.269-0.26-0.424-0.374c-0.152-0.116-0.328-0.211-0.5-0.303
	c-0.179-0.083-0.365-0.153-0.556-0.209c-0.197-0.05-0.387-0.088-0.584-0.101c-0.199-0.008-0.387-0.015-0.574,0.015
	c-0.189,0.029-0.362,0.063-0.522,0.119c-0.162,0.062-0.307,0.129-0.431,0.197c-0.122,0.065-0.229,0.163-0.311,0.23
	c-0.082,0.063-0.143,0.139-0.183,0.18c-0.04,0.044-0.061,0.073-0.061,0.073s0.021,0.025,0.064,0.076
	c0.041,0.041,0.099,0.118,0.168,0.185c0.064,0.071,0.144,0.156,0.231,0.255c0.087,0.096,0.179,0.191,0.272,0.287
	c0.094,0.095,0.193,0.202,0.295,0.293c0.104,0.091,0.211,0.195,0.323,0.275c0.223,0.177,0.469,0.33,0.735,0.457
	c0.133,0.071,0.274,0.118,0.416,0.174c0.141,0.053,0.29,0.091,0.438,0.13c0.151,0.031,0.301,0.062,0.453,0.08
	c0.153,0.018,0.3,0.031,0.449,0.035c0.144,0.006,0.286,0.005,0.417,0c0.128-0.002,0.255-0.02,0.356-0.026
	c0.032-0.002,0.056-0.007,0.085-0.011c0.104,0.099,0.21,0.203,0.318,0.314c0.241,0.217,0.453,0.489,0.682,0.745
	c0.202,0.275,0.437,0.531,0.584,0.816c0.178,0.27,0.312,0.535,0.409,0.774c0.122,0.23,0.152,0.445,0.204,0.59
	c0.014,0.049,0.022,0.078,0.033,0.112c-0.028,0.171-0.055,0.341-0.081,0.512c-0.102,0.636-0.267,1.341-0.405,1.934
	c-0.177,0.635-0.328,1.283-0.463,1.911c-0.032,0.155-0.056,0.309-0.084,0.463c-0.055-0.203-0.122-0.417-0.231-0.63
	c-0.145-0.307-0.334-0.611-0.527-0.912c-0.35-0.496-0.729-0.956-1.06-1.323c0.024-0.004,0.056-0.007,0.076-0.01
	c-0.053-0.054-0.112-0.114-0.18-0.181c-0.133-0.131-0.298-0.28-0.478-0.433c-0.124-0.131-0.2-0.212-0.2-0.212
	s0.028,0.045,0.068,0.107c-0.11-0.09-0.217-0.181-0.335-0.267c-0.184-0.133-0.374-0.255-0.559-0.361
	c-0.094-0.048-0.185-0.095-0.27-0.141c-0.092-0.038-0.175-0.073-0.254-0.107c-0.081-0.026-0.155-0.05-0.221-0.072
	c-0.064-0.023-0.126-0.03-0.175-0.042c-0.096-0.02-0.152-0.031-0.152-0.031s0.057,0.006,0.156,0.02
	c0.048,0.007,0.111,0.01,0.178,0.028c0.068,0.016,0.146,0.035,0.229,0.054c0.08,0.028,0.17,0.059,0.263,0.091
	c0.093,0.039,0.189,0.078,0.289,0.12c0.194,0.094,0.398,0.202,0.596,0.323c0.393,0.241,0.762,0.521,1.027,0.743
	c0.055,0.045,0.103,0.086,0.148,0.126c-0.003-0.043-0.007-0.092-0.017-0.14c-0.018-0.104-0.035-0.231-0.073-0.365
	c-0.035-0.133-0.086-0.273-0.149-0.42c-0.129-0.291-0.318-0.597-0.573-0.863c-0.126-0.137-0.269-0.26-0.424-0.374
	c-0.152-0.116-0.328-0.211-0.5-0.303c-0.179-0.083-0.365-0.153-0.556-0.209c-0.197-0.05-0.387-0.088-0.584-0.101
	c-0.199-0.008-0.387-0.015-0.574,0.015c-0.189,0.029-0.362,0.063-0.522,0.119c-0.162,0.062-0.307,0.129-0.431,0.197
	c-0.122,0.065-0.229,0.163-0.311,0.23c-0.082,0.063-0.143,0.139-0.183,0.18c-0.04,0.044-0.061,0.073-0.061,0.073
	s0.021,0.025,0.064,0.076c0.041,0.041,0.099,0.118,0.168,0.185c0.064,0.071,0.144,0.156,0.231,0.255
	c0.087,0.096,0.179,0.191,0.272,0.287c0.094,0.095,0.193,0.202,0.295,0.293c0.104,0.091,0.211,0.195,0.323,0.275
	c0.223,0.177,0.469,0.33,0.735,0.457c0.133,0.071,0.274,0.118,0.416,0.174c0.141,0.053,0.29,0.091,0.438,0.13
	c0.151,0.031,0.301,0.062,0.453,0.08c0.153,0.018,0.3,0.031,0.449,0.035c0.144,0.006,0.286,0.005,0.417,0
	c0.105-0.002,0.204-0.014,0.295-0.021c0.302,0.412,0.689,0.91,1.045,1.443c0.401,0.571,0.743,1.183,0.894,1.678
	c0.005,0.02,0.007,0.035,0.012,0.055c-0.151,0.931-1.029,3.182-1.016,4.104c-0.333,0.058-0.719,0.037-1.252-0.195
	c-1.354-0.591-2.804-0.241-3.079,0.709s-1.169,0.486-1.6,0.775c-0.722,0.484-1.135,1.046-1.135,1.646H27.55
	C27.55,30.232,27.055,29.621,26.201,29.107z M18.564,9.105c-0.078-0.07-0.153-0.14-0.223-0.206
	c-0.079-0.062-0.149-0.118-0.217-0.172c-0.07-0.047-0.136-0.09-0.192-0.129c-0.056-0.039-0.113-0.063-0.158-0.087
	c-0.087-0.044-0.138-0.07-0.138-0.07s0.053,0.021,0.145,0.061c0.045,0.02,0.105,0.039,0.164,0.074
	c0.062,0.033,0.131,0.073,0.207,0.113c0.069,0.048,0.147,0.102,0.228,0.157c0.051,0.04,0.104,0.082,0.157,0.123
	c0.02,0.046,0.051,0.117,0.09,0.206C18.605,9.153,18.586,9.127,18.564,9.105z"/>
</svg>
