<?xml version="1.0" encoding="utf-8"?>
<!-- Generator: Adobe Illustrator 16.0.0, SVG Export Plug-In . SVG Version: 6.00 Build 0)  -->
<!DOCTYPE svg PUBLIC "-//W3C//DTD SVG 1.1//EN" "http://www.w3.org/Graphics/SVG/1.1/DTD/svg11.dtd">
<svg version="1.1" id="Artwork" xmlns="http://www.w3.org/2000/svg" xmlns:xlink="http://www.w3.org/1999/xlink" x="0px" y="0px"
	 width="512px" height="512px" viewBox="0 0 512 512" enable-background="new 0 0 512 512" xml:space="preserve">
<path d="M387.037,361.309c-3.81-5.243-10.219-8.251-17.583-8.251H273.94v-5.755c19.994-14.301,36.854-23.488,51.79-31.619
	c13.978-7.608,26.05-14.18,36.125-22.718c8.1-6.864,12.566-17.994,12.253-30.536c-0.328-13.159-5.876-25.111-14.841-31.974
	c-17.933-13.726-43.692-10.303-57.409,7.616c-0.691,0.896-13.796,17.971-27.918,40.609v-45.693
	c8.456-5.533,14.407-13.335,16.904-22.29c0.934-3.35,1.382-6.812,1.376-10.372c7.649,5.39,14.987,7.028,21.063,7.028
	c4.912,0,9-1.065,11.761-2.07c19.338-7.039,33.167-30.991,29.593-51.257c-1.109-6.291-5.121-18.144-19.438-25.329
	c14.316-7.186,18.328-19.038,19.438-25.328c3.573-20.267-10.255-44.218-29.592-51.257c-6.003-2.185-18.273-4.637-31.654,4.168
	c0.935-15.99-7.324-25.391-12.217-29.496c-15.763-13.229-43.421-13.228-59.186,0c-4.893,4.105-13.151,13.506-12.217,29.497
	c-13.382-8.806-25.653-6.354-31.653-4.169c-19.338,7.038-33.166,30.99-29.593,51.256c1.109,6.291,5.121,18.144,19.438,25.329
	c-14.316,7.186-18.328,19.038-19.438,25.329c-3.574,20.267,10.255,44.218,29.593,51.257c2.762,1.005,6.848,2.07,11.761,2.07
	c6.117-0.001,13.513-1.661,21.218-7.138c0.021,3.445,0.468,6.802,1.375,10.057c2.541,9.111,8.643,17.064,17.328,22.719v120.065
	h-84.578c-7.372,0-13.771,3.009-17.558,8.255c-3.787,5.245-4.627,12.267-2.306,19.263l29.216,88.073
	c4.417,13.312,18.862,23.739,32.888,23.739h140.632c14.042,0,28.438-10.461,32.777-23.816l28.583-87.99
	C391.728,373.577,390.847,366.553,387.037,361.309z M241.799,229.667c0-3.438-3.078-5.297-3.106-5.313
	c-0.007-0.004-12.025-7.844-14.663-17.305c-2.325-8.337-0.34-18.044,5.9-28.853c1.657-2.87,0.673-6.539-2.196-8.196
	c-0.896-0.519-1.872-0.778-2.839-0.803c-1.934-0.051-3.838,0.839-5.024,2.483c-0.119,0.164-0.23,0.336-0.333,0.516
	c-10.888,18.861-24.139,26.605-37.316,21.811c-14.047-5.113-24.475-23.176-21.879-37.896c2.435-13.809,15.769-21.413,37.547-21.413
	c3.313,0,6-2.687,6-6s-2.687-6-6-6c-21.778,0-35.113-7.604-37.547-21.412c-2.596-14.722,7.833-32.784,21.879-37.896
	c13.176-4.794,25.381,3.596,37.317,21.811c4.128,6.3,13.961-0.116,10.393-6c-11.294-18.62-10.971-34.21-0.23-43.223
	c11.451-9.609,32.308-9.609,43.759,0c10.741,9.013,10.659,24.362-0.23,43.223c-1.657,2.87-0.673,6.539,2.196,8.196
	c2.869,1.657,6.54,0.674,8.196-2.196c10.89-18.86,24.145-26.603,37.317-21.811c14.046,5.112,24.475,23.176,21.879,37.896
	c-2.435,13.808-15.769,21.412-37.547,21.412c-3.313,0-6,2.687-6,6s2.687,6,6,6c21.778,0,35.112,7.604,37.547,21.412
	c2.596,14.722-7.833,32.784-21.879,37.897c-13.178,4.793-26.429-2.951-37.317-21.811c-1.657-2.87-5.327-3.851-8.196-2.196
	c-2.87,1.657-3.853,5.326-2.196,8.196c6.362,11.02,8.399,20.87,6.055,29.278c-2.583,9.263-9.987,14.529-14.2,16.856
	c-0.005,0.003-3.145,1.522-3.145,5.335c0,17.822,0,71.289,0,71.289c0,3.313,2.687,5.936,6,6c2.31,0.045,4.227-1.705,5.773-4.384
	c16.987-30.25,37.444-56.908,37.662-57.19c9.707-12.681,27.918-15.102,40.598-5.396c6.019,4.606,9.904,13.321,10.139,22.743
	c0.218,8.763-2.778,16.644-8.016,21.083c-9.135,7.741-20.153,13.739-34.103,21.333c-15.086,8.212-33.862,18.432-55.582,34.228
	c-0.045,0.032-2.471,2.128-2.471,4.853c0,2.208,0,8.833,0,8.833h-20.141C241.799,353.058,241.799,260.515,241.799,229.667z
	 M349.457,464.864c-2.733,8.414-12.517,15.523-21.364,15.523H187.461c-8.863,0-18.708-7.106-21.498-15.518l-21.754-65.58h226.549
	L349.457,464.864z M378.04,376.874l-3.383,10.416H140.228l-3.481-10.493c-1.109-3.343-0.879-6.348,0.646-8.461
	c1.526-2.114,4.306-3.278,7.829-3.278h224.232c3.53,0,6.327,1.174,7.875,3.305C378.878,370.494,379.13,373.517,378.04,376.874z"/>
</svg>
