<?xml version="1.0" encoding="iso-8859-1"?>
<!-- Generator: Adobe Illustrator 17.0.0, SVG Export Plug-In . SVG Version: 6.00 Build 0)  -->
<!DOCTYPE svg PUBLIC "-//W3C//DTD SVG 1.1//EN" "http://www.w3.org/Graphics/SVG/1.1/DTD/svg11.dtd">
<svg version="1.1" id="Capa_1" xmlns="http://www.w3.org/2000/svg" xmlns:xlink="http://www.w3.org/1999/xlink" x="0px" y="0px"
	 width="64px" height="64px" viewBox="0 0 64 64" style="enable-background:new 0 0 64 64;" xml:space="preserve">
<g>
	<path d="M7.168,32.243c0.223,0.72,0.955,1.154,1.766,1.13c-0.005,0.036-0.008,0.073-0.014,0.109h47.014h0.869h0.546
		c0.061-0.03,0.123-0.055,0.181-0.094c0.773-0.523,0.913-1.666,0.314-2.552l-1.673-2.472c0.786-0.323,1.285-1.065,1.159-1.837
		c-0.139-0.854-0.991-1.429-1.955-1.373c0.262-0.77,0.061-1.598-0.563-2.022c-0.604-0.411-1.415-0.316-2.029,0.167
		c-0.013-0.019-0.027-0.038-0.041-0.057c0.187-0.153,0.34-0.344,0.438-0.575c0.364-0.859-0.139-1.895-1.124-2.312l-2.941-1.247
		c0,0-0.001-0.001-0.001-0.001c0.426-0.488,0.587-1.136,0.352-1.715c-0.077-0.19-0.195-0.351-0.334-0.491l7.801-11.257
		c0.55-0.795,0.353-1.885-0.442-2.436c-0.793-0.551-1.884-0.352-2.435,0.441l-8.001,11.547l-0.535-0.754
		c-0.248-0.35-0.578-0.597-0.932-0.74l3.448-10.464c0.302-0.918-0.196-1.907-1.114-2.21c-0.919-0.301-1.907,0.196-2.21,1.114
		l-3.249,9.858l-0.26-0.366c-0.62-0.872-1.739-1.141-2.5-0.601c-0.728,0.517-0.857,1.586-0.324,2.442
		c-0.296-0.069-0.592-0.135-0.892-0.193l-1.171-1.648c-0.62-0.872-1.739-1.141-2.5-0.601c-0.556,0.395-0.763,1.113-0.594,1.812
		c-0.044-0.001-0.087-0.003-0.131-0.003c0.069-0.49-0.053-0.979-0.391-1.338c-0.64-0.679-1.79-0.635-2.569,0.099l-1.01,0.952
		c-0.38-0.287-0.889-0.444-1.436-0.395l-3.377,0.304c-1.066,0.096-1.862,0.927-1.778,1.857c0.009,0.102,0.033,0.2,0.061,0.295
		l-0.225-0.205c-0.792-0.72-1.942-0.744-2.57-0.053c-0.423,0.465-0.493,1.133-0.257,1.741l-3.048,0.274
		c-1.066,0.096-1.862,0.927-1.778,1.857c0.017,0.191,0.078,0.368,0.161,0.534c-0.359,0.05-0.691,0.207-0.941,0.481
		c-0.602,0.662-0.498,1.736,0.208,2.458c-0.07,0.086-0.137,0.175-0.206,0.262l-2.971,0.921c-1.022,0.317-1.626,1.297-1.35,2.188
		c0.047,0.15,0.122,0.283,0.209,0.408c-0.427-0.027-0.846,0.093-1.167,0.383c-0.692,0.626-0.671,1.777,0.046,2.57l1.103,1.219
		l-1.285,0.398C7.496,30.372,6.891,31.351,7.168,32.243z"/>
	<path d="M32.861,62.308c15.368,0,27.826-12.458,27.826-27.826H56.93H8.793H5.036C5.036,49.85,17.494,62.308,32.861,62.308z"/>
</g>
</svg>
