<?xml version="1.0" encoding="utf-8"?>
<!-- Generator: Adobe Illustrator 17.1.0, SVG Export Plug-In . SVG Version: 6.00 Build 0)  -->
<!DOCTYPE svg PUBLIC "-//W3C//DTD SVG 1.1//EN" "http://www.w3.org/Graphics/SVG/1.1/DTD/svg11.dtd">
<svg version="1.1" id="Layer_1" xmlns="http://www.w3.org/2000/svg" xmlns:xlink="http://www.w3.org/1999/xlink" x="0px" y="0px"
	 width="1000px" height="1000px" viewBox="0 0 1000 1000" enable-background="new 0 0 1000 1000" xml:space="preserve">
<g>
	<path fill="#1E120D" d="M899.856,971.419l-60.428-748.139H707.373C704.85,112.034,613.576,22.312,501.734,22.312h-3.469
		c-111.842,0-203.115,89.723-205.638,200.969H160.571l-60.428,748.139H899.856z M498.266,90.312h3.469
		c74.342,0,135.113,59.226,137.618,132.969H360.647C363.152,149.538,423.924,90.312,498.266,90.312z M223.3,291.281h69.268h414.865
		H776.7l49.442,612.139H173.857L223.3,291.281z"/>
	<path fill="#1E120D" d="M540.307,496.526h94.851v-65h-94.851V394.02h-65v37.506H371.229v197.706h104.078v67.706h-96.464v65h96.464
		v38.743h65v-38.743h101.242V564.232H540.307V496.526z M576.549,629.232v67.706h-36.242v-67.706H576.549z M436.229,564.232v-67.706
		h39.078v67.706H436.229z"/>
</g>
</svg>
