<?xml version="1.0" encoding="utf-8"?>
<!-- Generator: Adobe Illustrator 17.1.0, SVG Export Plug-In . SVG Version: 6.00 Build 0)  -->
<!DOCTYPE svg PUBLIC "-//W3C//DTD SVG 1.1//EN" "http://www.w3.org/Graphics/SVG/1.1/DTD/svg11.dtd">
<svg version="1.1" id="Layer_1" xmlns="http://www.w3.org/2000/svg" xmlns:xlink="http://www.w3.org/1999/xlink" x="0px" y="0px"
	 width="1000px" height="1000px" viewBox="0 0 1000 1000" enable-background="new 0 0 1000 1000" xml:space="preserve">
<g>
	<path fill="#1E120D" d="M985,608.271V414.604H865.068L581.175,152.287c3.188-8.986,4.94-18.646,4.94-28.713
		c0-47.484-38.631-86.115-86.115-86.115s-86.115,38.631-86.115,86.115c0,10.066,1.752,19.727,4.94,28.713L134.932,414.604H15
		v193.667h33.906l117.808,344.062h666.57l117.808-344.062H985z M657.747,711.271H534V609.21h133.825L657.747,711.271z M466,884.334
		H359.342l-10.375-105.062H466V884.334z M342.253,711.271L332.175,609.21H466v102.062H342.253z M518.115,123.574
		c0,5.251-2.259,9.973-5.84,13.284c-3.231,2.988-7.537,4.831-12.275,4.831s-9.043-1.843-12.275-4.831
		c-3.581-3.312-5.84-8.033-5.84-13.284s2.259-9.973,5.84-13.284c3.231-2.988,7.537-4.831,12.275-4.831s9.043,1.843,12.275,4.831
		C515.856,113.602,518.115,118.323,518.115,123.574z M464.985,202.22c10.706,4.786,22.549,7.47,35.015,7.47
		s24.309-2.684,35.015-7.47l229.854,212.385H235.132L464.985,202.22z M83,482.604h834v57.667H83V482.604z M263.845,609.21
		l10.078,102.062H156.05L121.104,609.21H263.845z M215.307,884.334l-35.974-105.062h101.305l10.374,105.062H215.307z M534,779.271
		h117.032l-10.375,105.062H534V779.271z M784.693,884.334h-75.706l10.374-105.062h101.305L784.693,884.334z M843.95,711.271H726.077
		l10.078-102.062h142.742L843.95,711.271z"/>
</g>
</svg>
