<?xml version="1.0" encoding="utf-8"?>
<!-- Generator: Adobe Illustrator 16.0.0, SVG Export Plug-In . SVG Version: 6.00 Build 0)  -->
<!DOCTYPE svg PUBLIC "-//W3C//DTD SVG 1.1//EN" "http://www.w3.org/Graphics/SVG/1.1/DTD/svg11.dtd">
<svg version="1.1" id="Layer_1" xmlns="http://www.w3.org/2000/svg" xmlns:xlink="http://www.w3.org/1999/xlink" x="0px" y="0px"
	 width="96px" height="96px" viewBox="0 0 96 96" enable-background="new 0 0 96 96" xml:space="preserve">
<path d="M86.048,18.893H67.38v-6.564c0-2.109-1.206-4.031-3.104-4.951c-1.898-0.918-4.154-0.67-5.809,0.639L39.975,22.646H21.021
	l-1.395-6.893L5.698,13.43l-1.246,7.469l8.785,1.463l9.32,44.965l-4.092,13.01h5.658c-0.32,0.773-0.5,1.627-0.5,2.523
	c0,3.486,2.656,6.313,5.934,6.313s5.932-2.826,5.932-6.313c0-0.896-0.18-1.75-0.496-2.523h31.289
	c-0.318,0.773-0.496,1.627-0.496,2.523c0,3.486,2.654,6.313,5.932,6.313c3.275,0,5.932-2.826,5.932-6.313
	c0-0.896-0.18-1.75-0.498-2.523h5.016v-7.57H28.784l0.766-2.43l53.035-22.191v-5.818V41.15h3.463c3.037,0,5.5-2.463,5.5-5.5V24.393
	C91.548,21.355,89.085,18.893,86.048,18.893z M86.048,35.938H61.88V48L39.519,30.309L61.88,12.615V24.68h24.168V35.938z"/>
</svg>
