<?xml version="1.0" encoding="iso-8859-1"?>
<!-- Generator: Adobe Illustrator 16.0.4, SVG Export Plug-In . SVG Version: 6.00 Build 0)  -->
<!DOCTYPE svg PUBLIC "-//W3C//DTD SVG 1.1//EN" "http://www.w3.org/Graphics/SVG/1.1/DTD/svg11.dtd">
<svg version="1.1" id="Capa_1" xmlns="http://www.w3.org/2000/svg" xmlns:xlink="http://www.w3.org/1999/xlink" x="0px" y="0px"
	 width="4.725px" height="15px" viewBox="0 0 4.725 15" style="enable-background:new 0 0 4.725 15;" xml:space="preserve">
<path style="fill:#010002;" d="M3.704,15c0,0,0.652-0.104,0.831-0.958c0.19-0.916-0.006-1.521-0.118-2.035
	c-0.111-0.516-0.074-0.776,0.097-1.608c0.273-1.337,0.251-3.647,0.104-4.758C4.47,4.53,3.938,3.833,3.683,3.308
	C3.261,2.444,3.255,1.373,3.255,1.373H3.49V0.962L3.405,0.898V0.067c0,0-0.383-0.085-1.043-0.063
	c-0.66-0.021-1.043,0.063-1.043,0.063v0.831L1.232,0.962v0.411h0.235c0,0-0.004,1.071-0.426,1.935
	C0.786,3.833,0.253,4.53,0.106,5.641s-0.169,3.421,0.104,4.758c0.169,0.832,0.208,1.093,0.095,1.608
	c-0.11,0.514-0.309,1.119-0.116,2.035C0.368,14.896,1.021,15,1.021,15H3.704z"/>
<g>
</g>
<g>
</g>
<g>
</g>
<g>
</g>
<g>
</g>
<g>
</g>
<g>
</g>
<g>
</g>
<g>
</g>
<g>
</g>
<g>
</g>
<g>
</g>
<g>
</g>
<g>
</g>
<g>
</g>
</svg>
