<?xml version="1.0" encoding="utf-8"?>
<!-- Generator: Adobe Illustrator 15.0.0, SVG Export Plug-In . SVG Version: 6.00 Build 0)  -->
<!DOCTYPE svg PUBLIC "-//W3C//DTD SVG 1.1//EN" "http://www.w3.org/Graphics/SVG/1.1/DTD/svg11.dtd">
<svg version="1.1" id="Layer_1" xmlns="http://www.w3.org/2000/svg" xmlns:xlink="http://www.w3.org/1999/xlink" x="0px" y="0px"
	 width="64px" height="64px" viewBox="0 0 64 64" enable-background="new 0 0 64 64" xml:space="preserve">
<g>
	<path fill="#231F20" d="M44.474,16.189V13.25c0-1.203-0.979-2.178-2.181-2.178h-6.181V1.836l-7.19,3.887l-0.148,0.081v5.269h-7.067
		c-1.203,0-2.182,0.976-2.182,2.178v2.938c-3.358,2.427-4.991,6.71-4.991,13.092c0,8.987,3.46,28.231,9.113,32.712l0.22,0.171
		h16.267l0.219-0.171c5.654-4.481,9.111-23.726,9.111-32.712C49.465,22.899,47.831,18.616,44.474,16.189z M34.514,4.52v6.552h-4.14
		V6.759L34.514,4.52z M36.112,17.442h6.03c0.337,0,0.675-0.081,0.982-0.236l0.107,0.07c3.119,2.056,4.634,5.984,4.634,12.004
		c0,1.985-0.158,4.386-0.459,6.945c-0.972,0.606-4.12,2.4-7.442,2.4c-1.415,0-2.711-0.327-3.853-0.969V17.442z M20.875,17.205
		c0.309,0.157,0.646,0.238,0.984,0.238h6.915v15.79c-0.76-0.139-1.572-0.206-2.414-0.206c-4.07,0-8.128,1.608-9.858,2.387
		c-0.244-2.281-0.367-4.343-0.367-6.132c0-6.021,1.515-9.948,4.634-12.006L20.875,17.205z M30.374,33.644V17.442h4.14v19.022
		c-0.132-0.123-0.259-0.253-0.384-0.387C33.113,34.972,31.85,34.152,30.374,33.644z"/>
</g>
</svg>
