<?xml version="1.0" encoding="iso-8859-1"?>
<!-- Generator: Adobe Illustrator 17.1.0, SVG Export Plug-In . SVG Version: 6.00 Build 0)  -->
<!DOCTYPE svg PUBLIC "-//W3C//DTD SVG 1.1//EN" "http://www.w3.org/Graphics/SVG/1.1/DTD/svg11.dtd">
<svg version="1.1" id="Layer_1" xmlns="http://www.w3.org/2000/svg" xmlns:xlink="http://www.w3.org/1999/xlink" x="0px" y="0px"
	 viewBox="0 0 64 64" style="enable-background:new 0 0 64 64;" xml:space="preserve">
<g>
	<path d="M41.129,26.299c-12.13-3.339-18.362,7.011-18.696,10.35s-1.113,5.008-2.448,5.008c-1.335,0-2.337-4.563,1.224-9.682
		c3.561-5.119,17.249-15.357,7.011-24.817c-10.461-8.792-20.365,4.34-18.362,9.793c0.695,2.393,2.532,3.45,2.532,3.45
		s-2.365,3.06-1.753,3.867c0.612,0.807,4.897-3.478,5.063-3.867c0.167-0.39,3.116-1.28,2.504-6.288
		c-0.612-5.008,9.459-3.839,5.119,3.951c-4.34,7.79-18.696,11.907-17.472,25.929c0,0,1.113,19.586,32.718,14.801
		c0,0,22.813-3.672,20.254-28.044C51.59,32.753,50.143,29.192,41.129,26.299z M47.813,40.846l-0.132-0.088
		c-3.697-1.492-5.049-4.808-3.421-6.3C45.888,32.965,47.753,35,47.753,35h0.014c0,0,1.865-2.035,3.493-0.543
		C52.888,35.95,51.51,39.353,47.813,40.846z"/>
</g>
</svg>
