<?xml version="1.0" encoding="utf-8"?>
<!-- Generator: Adobe Illustrator 17.1.0, SVG Export Plug-In . SVG Version: 6.00 Build 0)  -->
<!DOCTYPE svg PUBLIC "-//W3C//DTD SVG 1.1//EN" "http://www.w3.org/Graphics/SVG/1.1/DTD/svg11.dtd">
<svg version="1.1" id="Capa_1" xmlns="http://www.w3.org/2000/svg" xmlns:xlink="http://www.w3.org/1999/xlink" x="0px" y="0px"
	 width="1000px" height="1000px" viewBox="0 0 1000 1000" enable-background="new 0 0 1000 1000" xml:space="preserve">
<path d="M767.49,217.682l-100.368,46.296l103.031,149.246c5.575,8.077,9.413,15.369,11.731,22.293
	c5.033,15.031,1.922,26.126-1.574,32.787c-6.371,12.14-18.966,19.388-33.691,19.388c-9.464,0-20.107-2.903-32.536-8.876
	L484.88,368.669L271.823,477.331c-12.604,6.429-23.512,9.554-33.346,9.554c-14.446,0-27.01-7.046-33.607-18.847
	c-3.579-6.403-7.004-17.158-2.99-32.034c1.928-7.147,5.364-14.685,10.504-23.044l92.251-150.032l-78.196-42.468
	C104.06,295.494,23.908,419.529,23.908,560.015C23.908,789.145,236.645,975,498.992,975c262.363,0,475.099-185.855,475.099-414.985
	C974.077,417.881,892.239,292.45,767.49,217.682z"/>
<path d="M594.214,133.901l-63.19-89.948C522.156,31.33,510.365,25,498.525,25c-11.548,0-23.143,6.023-32.113,18.104l-67.022,90.265
	l-164.718,20.785c-30.234,3.815-33.034,18.697-6.255,33.241l28.861,15.674l89.495,48.604l-108.833,177
	c-11.052,17.975-10.104,28.212,0.537,28.212c4.727,0,11.366-2.02,19.715-6.278l226.291-115.412l242.594,116.581
	c8.352,4.014,14.924,5.916,19.541,5.916c10.568,0,10.893-9.972-1.155-27.424L622.173,251.673l112.597-51.937l33.742-15.564
	c27.672-12.764,25.579-26.08-4.673-29.741L594.214,133.901z"/>
</svg>
