<?xml version="1.0" encoding="utf-8"?>
<!-- Generator: Adobe Illustrator 17.1.0, SVG Export Plug-In . SVG Version: 6.00 Build 0)  -->
<!DOCTYPE svg PUBLIC "-//W3C//DTD SVG 1.1//EN" "http://www.w3.org/Graphics/SVG/1.1/DTD/svg11.dtd">
<svg version="1.1" id="Capa_1" xmlns="http://www.w3.org/2000/svg" xmlns:xlink="http://www.w3.org/1999/xlink" x="0px" y="0px"
	 width="1000px" height="1000px" viewBox="0 0 1000 1000" enable-background="new 0 0 1000 1000" xml:space="preserve">
<path d="M876,932V556.1c0-94.5-50-174.2-119-204.2V97.9c13-5.9,21.9-19.9,21.9-36.4c0-21.8-15.4-39.5-34.7-39.5h-88.7
	c-19.3,0-34.9,17.6-34.9,39.5c0,14.9,7.7,29.6,18.7,36.3L639,351.6c-62,26.6-107.1,93.6-116.2,174.9c-0.6,5.6,3.5,10.5,9.1,10.5h255
	c5.6,0,10.1,3.8,10.1,9.4v296.3c0,5.6-4.5,10.3-10.1,10.3H530.6c-5.6,0-10.2,4.5-10.2,10.1l0.1,69.2c0,21.8,17.2,39.7,39,39.7h277
	C858.5,972,876,953.8,876,932z"/>
<path d="M135.4,962.3c-2.3,5.1,0.8,9.7,6.4,9.7h281.7c5.6,0,8.6-4.5,6.3-9.7c-18.6-41-59.7-70-107.7-70V728.9
	c68-15.5,119-67.7,119-130.4V363c0-13.6-15.7-24-35.1-24H158.6c-19.4,0-34.6,10.4-34.6,24v235.4c0,63.5,50,116.4,119,131.1v162.9
	C195,892.4,154,921.3,135.4,962.3z M223.5,630.1c-11.1,0-20.5-9.2-20.5-20.3V504v-16.1v-61.6c0-4.6,3.7-8.3,8.3-8.3h142.5
	c4.6,0,8.3,3.7,8.3,8.3v69.5c0,4.6-3.7,8.3-8.3,8.3H244v105.8C244,620.9,234.6,630.1,223.5,630.1z"/>
</svg>
