<?xml version="1.0" encoding="utf-8"?>
<!-- Generator: Adobe Illustrator 17.0.2, SVG Export Plug-In . SVG Version: 6.00 Build 0)  -->
<!DOCTYPE svg PUBLIC "-//W3C//DTD SVG 1.0//EN" "http://www.w3.org/TR/2001/REC-SVG-20010904/DTD/svg10.dtd">
<svg version="1.0" id="Layer_1" xmlns="http://www.w3.org/2000/svg" xmlns:xlink="http://www.w3.org/1999/xlink" x="0px" y="0px"
	 width="5.966px" height="17.363px" viewBox="0 0 5.966 17.363" enable-background="new 0 0 5.966 17.363" xml:space="preserve">
<g>
	<path fill="none" d="M4.342,5.323C4.293,5.373,4.224,5.42,4.139,5.462c0.134,0.528,0.293,1.129,0.479,1.823
		c0.285,1.06,0.554,2.061,0.577,2.348L5.221,9.93c0.082,0.931,0.233,2.664,0.13,5.904c-0.009,0.098-0.408,0.395-2.07,0.472
		l-0.124,0.014c-0.048,0-0.109-0.001-0.179-0.003c-0.025,0-0.048,0.001-0.07,0.002l-0.222-0.013
		c-1.661-0.077-2.061-0.373-2.069-0.457c-0.104-3.251,0.048-4.985,0.129-5.916l0.026-0.299c0.023-0.287,0.292-1.287,0.576-2.346
		c0.187-0.697,0.347-1.301,0.481-1.831C1.743,5.412,1.675,5.363,1.627,5.311C1.172,7.105,0.578,9.136,0.539,9.614
		c-0.069,0.859-0.271,2.597-0.155,6.241c0.046,0.504,1.451,0.644,2.291,0.683v0.015c0,0,0.005,0,0.014,0
		c0.037,0,0.144,0,0.295-0.004c0.151,0.004,0.258,0.004,0.295,0.004c0.009,0,0.014,0,0.014,0v-0.015
		c0.839-0.039,2.244-0.179,2.291-0.683c0.116-3.644-0.086-5.383-0.155-6.241C5.389,9.137,4.797,7.114,4.342,5.323z"/>
	<path d="M5.8,9.879L5.775,9.586C5.749,9.262,5.532,8.443,5.181,7.134C4.795,5.701,4.084,3.05,4.172,2.566
		c0.343-0.464,0.208-0.923,0.03-1.193C4.222,1.183,4.24,0.852,4.18,0.551C4.074,0.024,3.06,0,3.05,0
		C3.026,0,3.004,0.001,2.983,0.002C2.963,0.001,2.941,0,2.917,0c-0.01,0-1.025,0.024-1.13,0.551c-0.06,0.3-0.042,0.631-0.022,0.821
		c-0.178,0.27-0.313,0.729,0.03,1.193C1.883,3.05,1.171,5.701,0.786,7.134C0.434,8.443,0.218,9.262,0.191,9.586L0.166,9.879
		c-0.082,0.943-0.236,3.164-0.131,6.452c0.053,0.589,1.634,1.031,2.956,1.031s2.885-0.439,2.938-1.011
		C6.036,13.044,5.883,10.823,5.8,9.879z M2.983,11.125c0.98,0,1.774,0.599,1.774,1.337S3.962,13.8,2.983,13.8
		s-1.774-0.599-1.774-1.337S2.003,11.125,2.983,11.125z M5.582,15.855c-0.046,0.504-1.451,0.644-2.291,0.683
		c0,0-0.158,0.015-0.308,0.011c-0.151,0.004-0.308-0.011-0.308-0.011c-0.839-0.039-2.244-0.179-2.291-0.683
		c-0.116-3.644,0.086-5.383,0.155-6.241c0.039-0.477,0.633-2.509,1.088-4.302c0.047,0.052,0.116,0.101,0.202,0.144
		C1.694,5.985,1.535,6.589,1.347,7.286C1.063,8.345,0.794,9.345,0.771,9.632L0.745,9.932c-0.081,0.931-0.232,2.665-0.129,5.916
		c0.008,0.084,0.408,0.381,2.069,0.457l0.222,0.013c0.022,0,0.046-0.001,0.07-0.002c0.071,0.002,0.131,0.003,0.179,0.003
		l0.124-0.014c1.661-0.077,2.061-0.373,2.07-0.472c0.103-3.24-0.048-4.973-0.13-5.904L5.195,9.632
		C5.172,9.345,4.903,8.344,4.619,7.284C4.432,6.591,4.274,5.989,4.139,5.462C4.224,5.42,4.293,5.373,4.342,5.323
		c0.454,1.79,1.046,3.814,1.085,4.29C5.496,10.472,5.699,12.211,5.582,15.855z"/>
</g>
<ellipse cx="2.983" cy="12.463" rx="1.386" ry="0.974"/>
</svg>
