<?xml version="1.0" encoding="utf-8"?>
<!-- Generator: Adobe Illustrator 17.0.2, SVG Export Plug-In . SVG Version: 6.00 Build 0)  -->
<!DOCTYPE svg PUBLIC "-//W3C//DTD SVG 1.0//EN" "http://www.w3.org/TR/2001/REC-SVG-20010904/DTD/svg10.dtd">
<svg version="1.0" id="Layer_1" xmlns="http://www.w3.org/2000/svg" xmlns:xlink="http://www.w3.org/1999/xlink" x="0px" y="0px"
	 width="10.917px" height="20.913px" viewBox="0 0 10.917 20.913" enable-background="new 0 0 10.917 20.913" xml:space="preserve">
<path d="M10.917,5.991c0-1.645-0.588-3.946-1.499-5.862L9.357,0H1.56L1.499,0.129C0.588,2.045,0,4.346,0,5.991
	c0,2.842,1.802,4.991,4.412,5.446c-0.012,0.041-0.026,0.082-0.026,0.127v1.058c0,0.191,0.119,0.352,0.286,0.418
	c-0.001,0.024-0.004,0.046-0.004,0.071c0,0.445,0.228,3.258,0.439,5.767c-0.001,0.004-0.001,0.007-0.002,0.01
	c0.003,0.013,0.004,0.024,0.006,0.037c0.015,0.173,0.029,0.344,0.043,0.512c-0.035,0.552-0.423,0.548-0.714,1.024H2.381
	c-0.249,0-0.452,0.202-0.452,0.452h7.058c0-0.249-0.202-0.452-0.452-0.452H6.477c-0.291-0.476-0.679-0.472-0.714-1.024
	c0.014-0.169,0.029-0.34,0.043-0.512c0.002-0.013,0.004-0.024,0.006-0.037c-0.001-0.004-0.001-0.007-0.002-0.01
	c0.211-2.509,0.439-5.322,0.439-5.767c0-0.025-0.004-0.047-0.004-0.071c0.167-0.066,0.286-0.228,0.286-0.418v-1.058
	c0-0.045-0.013-0.086-0.026-0.127C9.115,10.982,10.917,8.833,10.917,5.991z M1.847,0.452H9.07c0.375,0.81,0.689,1.698,0.927,2.571
	H1.67C0.953,5.332,0.72,7.397,2.092,9.61c-1.2-0.934-1.585-2.361-1.639-3.662C0.463,4.428,1.017,2.244,1.847,0.452z"/>
</svg>
